SplineFontDB: 3.2
FontName: Dotrice-Bold-Condensed
FullName: Dotrice Bold Condensed
FamilyName: Dotrice
Weight: Bold
Copyright: Paul Flo Williams, 2010
Version: 1.001
ItalicAngle: 0
UnderlinePosition: -150
UnderlineWidth: 50
Ascent: 750
Descent: 250
InvalidEm: 0
sfntRevision: 0x00010041
LayerCount: 2
Layer: 0 0 "Back" 1
Layer: 1 0 "Fore" 0
XUID: [1021 585 -1826229311 13254574]
StyleMap: 0x0020
FSType: 0
OS2Version: 4
OS2_WeightWidthSlopeOnly: 0
OS2_UseTypoMetrics: 1
CreationTime: 1283345713
ModificationTime: 1306952498
PfmFamily: 81
TTFWeight: 700
TTFWidth: 2
LineGap: 90
VLineGap: 0
Panose: 4 8 7 9 4 15 4 2 4 2
OS2TypoAscent: 750
OS2TypoAOffset: 0
OS2TypoDescent: -250
OS2TypoDOffset: 0
OS2TypoLinegap: 90
OS2WinAscent: 680
OS2WinAOffset: 0
OS2WinDescent: 200
OS2WinDOffset: 0
HheadAscent: 680
HheadAOffset: 0
HheadDescent: -200
HheadDOffset: 0
OS2SubXSize: 650
OS2SubYSize: 699
OS2SubXOff: 0
OS2SubYOff: 140
OS2SupXSize: 650
OS2SupYSize: 699
OS2SupXOff: 0
OS2SupYOff: 479
OS2StrikeYSize: 49
OS2StrikeYPos: 258
OS2CapHeight: 26
OS2XHeight: 28
OS2FamilyClass: 2058
OS2Vendor: 'HDAD'
OS2CodePages: 00000001.00000000
OS2UnicodeRanges: 00000003.00000002.00000000.00000000
MarkAttachClasses: 1
DEI: 91125

StartChar: .notdef
Encoding: 65536 -1 0
Width: 432
GlyphClass: 1
Flags: MW
HStem: -200 80 -100 80 0 80 100 80 200 80 300 80 400 80 500 80 600 80
LayerCount: 2
Fore
SplineSet
0 -160 m 0
 0 -138 18 -119.999023438 40 -119.999023438 c 0
 46.4638671875 -119.999023438 52.58203125 -121.552734375 58 -124.3046875 c 1
 63.41796875 -121.552734375 69.5361328125 -119.999023438 76 -119.999023438 c 0
 82.4638671875 -119.999023438 88.58203125 -121.552734375 94 -124.3046875 c 1
 99.41796875 -121.552734375 105.536132812 -119.999023438 112 -119.999023438 c 0
 118.463867188 -119.999023438 124.58203125 -121.552734375 130 -124.3046875 c 1
 135.41796875 -121.552734375 141.536132812 -119.999023438 148 -119.999023438 c 0
 154.463867188 -119.999023438 160.58203125 -121.552734375 166 -124.3046875 c 1
 171.41796875 -121.552734375 177.536132812 -119.999023438 184 -119.999023438 c 0
 190.463867188 -119.999023438 196.58203125 -121.552734375 202 -124.3046875 c 1
 207.41796875 -121.552734375 213.536132812 -119.999023438 220 -119.999023438 c 0
 226.463867188 -119.999023438 232.58203125 -121.552734375 238 -124.3046875 c 1
 243.41796875 -121.552734375 249.536132812 -119.999023438 256 -119.999023438 c 0
 262.463867188 -119.999023438 268.58203125 -121.552734375 274 -124.3046875 c 1
 279.41796875 -121.552734375 285.536132812 -119.999023438 292 -119.999023438 c 0
 298.463867188 -119.999023438 304.58203125 -121.552734375 310 -124.3046875 c 1
 315.41796875 -121.552734375 321.536132812 -119.999023438 328 -119.999023438 c 0
 334.463867188 -119.999023438 340.58203125 -121.552734375 346 -124.3046875 c 1
 351.41796875 -121.552734375 357.536132812 -119.999023438 364 -119.999023438 c 0
 386 -119.999023438 404 -137.999023438 404 -159.999023438 c 0
 404 -181.999023438 386 -199.999023438 364 -199.999023438 c 0
 357.536132812 -199.999023438 351.41796875 -198.4453125 346 -195.693359375 c 1
 340.58203125 -198.4453125 334.463867188 -199.999023438 328 -199.999023438 c 0
 321.536132812 -199.999023438 315.41796875 -198.4453125 310 -195.693359375 c 1
 304.58203125 -198.4453125 298.463867188 -199.999023438 292 -199.999023438 c 0
 285.536132812 -199.999023438 279.41796875 -198.4453125 274 -195.693359375 c 1
 268.58203125 -198.4453125 262.463867188 -199.999023438 256 -199.999023438 c 0
 249.536132812 -199.999023438 243.41796875 -198.4453125 238 -195.693359375 c 1
 232.58203125 -198.4453125 226.463867188 -199.999023438 220 -199.999023438 c 0
 213.536132812 -199.999023438 207.41796875 -198.4453125 202 -195.693359375 c 1
 196.58203125 -198.4453125 190.463867188 -199.999023438 184 -199.999023438 c 0
 177.536132812 -199.999023438 171.41796875 -198.4453125 166 -195.693359375 c 1
 160.58203125 -198.4453125 154.463867188 -199.999023438 148 -199.999023438 c 0
 141.536132812 -199.999023438 135.41796875 -198.4453125 130 -195.693359375 c 1
 124.58203125 -198.4453125 118.463867188 -199.999023438 112 -199.999023438 c 0
 105.536132812 -199.999023438 99.41796875 -198.4453125 94 -195.693359375 c 1
 88.58203125 -198.4453125 82.4638671875 -199.999023438 76 -199.999023438 c 0
 69.5361328125 -199.999023438 63.41796875 -198.4453125 58 -195.693359375 c 1
 52.58203125 -198.446289062 46.4638671875 -200 40 -200 c 0
 18 -200 0 -182 0 -160 c 0
288 -59.9990234375 m 0
 288 -37.9990234375 306 -19.9990234375 328 -19.9990234375 c 0
 334.463867188 -19.9990234375 340.58203125 -21.552734375 346 -24.3046875 c 1
 351.41796875 -21.552734375 357.536132812 -19.9990234375 364 -19.9990234375 c 0
 386 -19.9990234375 404 -37.9990234375 404 -59.9990234375 c 0
 404 -81.9990234375 386 -99.9990234375 364 -99.9990234375 c 0
 357.536132812 -99.9990234375 351.41796875 -98.4453125 346 -95.693359375 c 1
 340.58203125 -98.4453125 334.463867188 -99.9990234375 328 -99.9990234375 c 0
 306 -99.9990234375 288 -81.9990234375 288 -59.9990234375 c 0
0 -59.9990234375 m 0
 0 -37.9990234375 18 -19.9990234375 40 -19.9990234375 c 0
 46.4638671875 -19.9990234375 52.58203125 -21.552734375 58 -24.3046875 c 1
 63.41796875 -21.552734375 69.5361328125 -19.9990234375 76 -19.9990234375 c 0
 98 -19.9990234375 116 -37.9990234375 116 -59.9990234375 c 0
 116 -81.9990234375 98 -99.9990234375 76 -99.9990234375 c 0
 69.5361328125 -99.9990234375 63.41796875 -98.4453125 58 -95.693359375 c 1
 52.58203125 -98.4453125 46.4638671875 -99.9990234375 40 -99.9990234375 c 0
 18 -99.9990234375 0 -81.9990234375 0 -59.9990234375 c 0
216 40.0009765625 m 0
 216 62.0009765625 234 80.0009765625 256 80.0009765625 c 0
 262.463867188 80.0009765625 268.58203125 78.447265625 274 75.6953125 c 1
 279.41796875 78.447265625 285.536132812 80.0009765625 292 80.0009765625 c 0
 298.463867188 80.0009765625 304.58203125 78.447265625 310 75.6953125 c 1
 315.41796875 78.447265625 321.536132812 80.0009765625 328 80.0009765625 c 0
 334.463867188 80.0009765625 340.58203125 78.447265625 346 75.6953125 c 1
 351.41796875 78.447265625 357.536132812 80.0009765625 364 80.0009765625 c 0
 386 80.0009765625 404 62.0009765625 404 40.0009765625 c 0
 404 18.0009765625 386 0.0009765625 364 0.0009765625 c 0
 357.536132812 0.0009765625 351.41796875 1.5546875 346 4.306640625 c 1
 340.58203125 1.5546875 334.463867188 0.0009765625 328 0.0009765625 c 0
 321.536132812 0.0009765625 315.41796875 1.5546875 310 4.306640625 c 1
 304.58203125 1.5546875 298.463867188 0.0009765625 292 0.0009765625 c 0
 285.536132812 0.0009765625 279.41796875 1.5546875 274 4.306640625 c 1
 268.58203125 1.5546875 262.463867188 0.0009765625 256 0.0009765625 c 0
 234 0.0009765625 216 18.0009765625 216 40.0009765625 c 0
0 40.0009765625 m 0
 0 62.0009765625 18 80.0009765625 40 80.0009765625 c 0
 46.4638671875 80.0009765625 52.58203125 78.447265625 58 75.6953125 c 1
 63.41796875 78.447265625 69.5361328125 80.0009765625 76 80.0009765625 c 0
 82.4638671875 80.0009765625 88.58203125 78.447265625 94 75.6953125 c 1
 99.41796875 78.447265625 105.536132812 80.0009765625 112 80.0009765625 c 0
 118.463867188 80.0009765625 124.58203125 78.447265625 130 75.6953125 c 1
 135.41796875 78.447265625 141.536132812 80.0009765625 148 80.0009765625 c 0
 170 80.0009765625 188 62.0009765625 188 40.0009765625 c 0
 188 18.0009765625 170 0.0009765625 148 0.0009765625 c 0
 141.536132812 0.0009765625 135.41796875 1.5546875 130 4.306640625 c 1
 124.58203125 1.5546875 118.463867188 0.0009765625 112 0.0009765625 c 0
 105.536132812 0.0009765625 99.41796875 1.5546875 94 4.306640625 c 1
 88.58203125 1.5546875 82.4638671875 0.0009765625 76 0.0009765625 c 0
 69.5361328125 0.0009765625 63.41796875 1.5546875 58 4.306640625 c 1
 52.58203125 1.5546875 46.4638671875 0.0009765625 40 0.0009765625 c 0
 18 0.0009765625 0 18.0009765625 0 40.0009765625 c 0
0 140.000976562 m 0
 0 162.000976562 18 180.000976562 40 180.000976562 c 0
 46.4638671875 180.000976562 52.58203125 178.447265625 58 175.6953125 c 1
 63.41796875 178.447265625 69.5361328125 180.000976562 76 180.000976562 c 0
 91.7802734375 180.000976562 105.501953125 170.740234375 112 157.384765625 c 1
 118.498046875 170.740234375 132.219726562 180.000976562 148 180.000976562 c 0
 154.463867188 180.000976562 160.58203125 178.447265625 166 175.6953125 c 1
 171.41796875 178.447265625 177.536132812 180.000976562 184 180.000976562 c 0
 190.463867188 180.000976562 196.58203125 178.447265625 202 175.6953125 c 1
 207.41796875 178.447265625 213.536132812 180.000976562 220 180.000976562 c 0
 226.463867188 180.000976562 232.58203125 178.447265625 238 175.6953125 c 1
 243.41796875 178.447265625 249.536132812 180.000976562 256 180.000976562 c 0
 271.780273438 180.000976562 285.501953125 170.740234375 292 157.384765625 c 1
 298.498046875 170.740234375 312.219726562 180.000976562 328 180.000976562 c 0
 334.463867188 180.000976562 340.58203125 178.447265625 346 175.6953125 c 1
 351.41796875 178.447265625 357.536132812 180.000976562 364 180.000976562 c 0
 386 180.000976562 404 162.000976562 404 140.000976562 c 0
 404 118.000976562 386 100.000976562 364 100.000976562 c 0
 357.536132812 100.000976562 351.41796875 101.5546875 346 104.306640625 c 1
 340.58203125 101.5546875 334.463867188 100.000976562 328 100.000976562 c 0
 312.219726562 100.000976562 298.498046875 109.26171875 292 122.6171875 c 1
 285.501953125 109.26171875 271.780273438 100.000976562 256 100.000976562 c 0
 249.536132812 100.000976562 243.41796875 101.5546875 238 104.306640625 c 1
 232.58203125 101.5546875 226.463867188 100.000976562 220 100.000976562 c 0
 213.536132812 100.000976562 207.41796875 101.5546875 202 104.306640625 c 1
 196.58203125 101.5546875 190.463867188 100.000976562 184 100.000976562 c 0
 177.536132812 100.000976562 171.41796875 101.5546875 166 104.306640625 c 1
 160.58203125 101.5546875 154.463867188 100.000976562 148 100.000976562 c 0
 132.219726562 100.000976562 118.498046875 109.26171875 112 122.6171875 c 1
 105.501953125 109.26171875 91.7802734375 100.000976562 76 100.000976562 c 0
 69.5361328125 100.000976562 63.41796875 101.5546875 58 104.306640625 c 1
 52.58203125 101.5546875 46.4638671875 100.000976562 40 100.000976562 c 0
 18 100.000976562 0 118.000976562 0 140.000976562 c 0
288 240.000976562 m 0
 288 262.000976562 306 280.000976562 328 280.000976562 c 0
 334.463867188 280.000976562 340.58203125 278.447265625 346 275.6953125 c 1
 351.41796875 278.447265625 357.536132812 280.000976562 364 280.000976562 c 0
 386 280.000976562 404 262.000976562 404 240.000976562 c 0
 404 218.000976562 386 200.000976562 364 200.000976562 c 0
 357.536132812 200.000976562 351.41796875 201.5546875 346 204.306640625 c 1
 340.58203125 201.5546875 334.463867188 200.000976562 328 200.000976562 c 0
 306 200.000976562 288 218.000976562 288 240.000976562 c 0
144 240.000976562 m 0
 144 262.000976562 162 280.000976562 184 280.000976562 c 0
 190.463867188 280.000976562 196.58203125 278.447265625 202 275.6953125 c 1
 207.41796875 278.447265625 213.536132812 280.000976562 220 280.000976562 c 0
 242 280.000976562 260 262.000976562 260 240.000976562 c 0
 260 218.000976562 242 200.000976562 220 200.000976562 c 0
 213.536132812 200.000976562 207.41796875 201.5546875 202 204.306640625 c 1
 196.58203125 201.5546875 190.463867188 200.000976562 184 200.000976562 c 0
 162 200.000976562 144 218.000976562 144 240.000976562 c 0
0 240.000976562 m 0
 0 262.000976562 18 280.000976562 40 280.000976562 c 0
 46.4638671875 280.000976562 52.58203125 278.447265625 58 275.6953125 c 1
 63.41796875 278.447265625 69.5361328125 280.000976562 76 280.000976562 c 0
 98 280.000976562 116 262.000976562 116 240.000976562 c 0
 116 218.000976562 98 200.000976562 76 200.000976562 c 0
 69.5361328125 200.000976562 63.41796875 201.5546875 58 204.306640625 c 1
 52.58203125 201.5546875 46.4638671875 200.000976562 40 200.000976562 c 0
 18 200.000976562 0 218.000976562 0 240.000976562 c 0
0 340.000976562 m 0
 0 362.000976562 18 380.000976562 40 380.000976562 c 0
 46.4638671875 380.000976562 52.58203125 378.447265625 58 375.6953125 c 1
 63.41796875 378.447265625 69.5361328125 380.000976562 76 380.000976562 c 0
 91.7802734375 380.000976562 105.501953125 370.740234375 112 357.384765625 c 1
 118.498046875 370.740234375 132.219726562 380.000976562 148 380.000976562 c 0
 154.463867188 380.000976562 160.58203125 378.447265625 166 375.6953125 c 1
 171.41796875 378.447265625 177.536132812 380.000976562 184 380.000976562 c 0
 190.463867188 380.000976562 196.58203125 378.447265625 202 375.6953125 c 1
 207.41796875 378.447265625 213.536132812 380.000976562 220 380.000976562 c 0
 226.463867188 380.000976562 232.58203125 378.447265625 238 375.6953125 c 1
 243.41796875 378.447265625 249.536132812 380.000976562 256 380.000976562 c 0
 271.780273438 380.000976562 285.501953125 370.740234375 292 357.384765625 c 1
 298.498046875 370.740234375 312.219726562 380.000976562 328 380.000976562 c 0
 334.463867188 380.000976562 340.58203125 378.447265625 346 375.6953125 c 1
 351.41796875 378.447265625 357.536132812 380.000976562 364 380.000976562 c 0
 386 380.000976562 404 362.000976562 404 340.000976562 c 0
 404 318.000976562 386 300.000976562 364 300.000976562 c 0
 357.536132812 300.000976562 351.41796875 301.5546875 346 304.306640625 c 1
 340.58203125 301.5546875 334.463867188 300.000976562 328 300.000976562 c 0
 312.219726562 300.000976562 298.498046875 309.26171875 292 322.6171875 c 1
 285.501953125 309.26171875 271.780273438 300.000976562 256 300.000976562 c 0
 249.536132812 300.000976562 243.41796875 301.5546875 238 304.306640625 c 1
 232.58203125 301.5546875 226.463867188 300.000976562 220 300.000976562 c 0
 213.536132812 300.000976562 207.41796875 301.5546875 202 304.306640625 c 1
 196.58203125 301.5546875 190.463867188 300.000976562 184 300.000976562 c 0
 177.536132812 300.000976562 171.41796875 301.5546875 166 304.306640625 c 1
 160.58203125 301.5546875 154.463867188 300.000976562 148 300.000976562 c 0
 132.219726562 300.000976562 118.498046875 309.26171875 112 322.6171875 c 1
 105.501953125 309.26171875 91.7802734375 300.000976562 76 300.000976562 c 0
 69.5361328125 300.000976562 63.41796875 301.5546875 58 304.306640625 c 1
 52.58203125 301.5546875 46.4638671875 300.000976562 40 300.000976562 c 0
 18 300.000976562 0 318.000976562 0 340.000976562 c 0
216 440.000976562 m 0
 216 462.000976562 234 480.000976562 256 480.000976562 c 0
 262.463867188 480.000976562 268.58203125 478.447265625 274 475.6953125 c 1
 279.41796875 478.447265625 285.536132812 480.000976562 292 480.000976562 c 0
 298.463867188 480.000976562 304.58203125 478.447265625 310 475.6953125 c 1
 315.41796875 478.447265625 321.536132812 480.000976562 328 480.000976562 c 0
 334.463867188 480.000976562 340.58203125 478.447265625 346 475.6953125 c 1
 351.41796875 478.447265625 357.536132812 480.000976562 364 480.000976562 c 0
 386 480.000976562 404 462.000976562 404 440.000976562 c 0
 404 418.000976562 386 400.000976562 364 400.000976562 c 0
 357.536132812 400.000976562 351.41796875 401.5546875 346 404.306640625 c 1
 340.58203125 401.5546875 334.463867188 400.000976562 328 400.000976562 c 0
 321.536132812 400.000976562 315.41796875 401.5546875 310 404.306640625 c 1
 304.58203125 401.5546875 298.463867188 400.000976562 292 400.000976562 c 0
 285.536132812 400.000976562 279.41796875 401.5546875 274 404.306640625 c 1
 268.58203125 401.5546875 262.463867188 400.000976562 256 400.000976562 c 0
 234 400.000976562 216 418.000976562 216 440.000976562 c 0
0 440.000976562 m 0
 0 462.000976562 18 480.000976562 40 480.000976562 c 0
 46.4638671875 480.000976562 52.58203125 478.447265625 58 475.6953125 c 1
 63.41796875 478.447265625 69.5361328125 480.000976562 76 480.000976562 c 0
 82.4638671875 480.000976562 88.58203125 478.447265625 94 475.6953125 c 1
 99.41796875 478.447265625 105.536132812 480.000976562 112 480.000976562 c 0
 118.463867188 480.000976562 124.58203125 478.447265625 130 475.6953125 c 1
 135.41796875 478.447265625 141.536132812 480.000976562 148 480.000976562 c 0
 170 480.000976562 188 462.000976562 188 440.000976562 c 0
 188 418.000976562 170 400.000976562 148 400.000976562 c 0
 141.536132812 400.000976562 135.41796875 401.5546875 130 404.306640625 c 1
 124.58203125 401.5546875 118.463867188 400.000976562 112 400.000976562 c 0
 105.536132812 400.000976562 99.41796875 401.5546875 94 404.306640625 c 1
 88.58203125 401.5546875 82.4638671875 400.000976562 76 400.000976562 c 0
 69.5361328125 400.000976562 63.41796875 401.5546875 58 404.306640625 c 1
 52.58203125 401.5546875 46.4638671875 400.000976562 40 400.000976562 c 0
 18 400.000976562 0 418.000976562 0 440.000976562 c 0
288 540.000976562 m 0
 288 562.000976562 306 580.000976562 328 580.000976562 c 0
 334.463867188 580.000976562 340.58203125 578.447265625 346 575.6953125 c 1
 351.41796875 578.447265625 357.536132812 580.000976562 364 580.000976562 c 0
 386 580.000976562 404 562.000976562 404 540.000976562 c 0
 404 518.000976562 386 500.000976562 364 500.000976562 c 0
 357.536132812 500.000976562 351.41796875 501.5546875 346 504.306640625 c 1
 340.58203125 501.5546875 334.463867188 500.000976562 328 500.000976562 c 0
 306 500.000976562 288 518.000976562 288 540.000976562 c 0
0 540.000976562 m 0
 0 562.000976562 18 580.000976562 40 580.000976562 c 0
 46.4638671875 580.000976562 52.58203125 578.447265625 58 575.6953125 c 1
 63.41796875 578.447265625 69.5361328125 580.000976562 76 580.000976562 c 0
 98 580.000976562 116 562.000976562 116 540.000976562 c 0
 116 518.000976562 98 500.000976562 76 500.000976562 c 0
 69.5361328125 500.000976562 63.41796875 501.5546875 58 504.306640625 c 1
 52.58203125 501.5546875 46.4638671875 500.000976562 40 500.000976562 c 0
 18 500.000976562 0 518.000976562 0 540.000976562 c 0
0 640.000976562 m 0
 0 662.000976562 18 680.000976562 40 680.000976562 c 0
 46.4638671875 680.000976562 52.58203125 678.447265625 58 675.6953125 c 1
 63.41796875 678.447265625 69.5361328125 680.000976562 76 680.000976562 c 0
 82.4638671875 680.000976562 88.58203125 678.447265625 94 675.6953125 c 1
 99.41796875 678.447265625 105.536132812 680.000976562 112 680.000976562 c 0
 118.463867188 680.000976562 124.58203125 678.447265625 130 675.6953125 c 1
 135.41796875 678.447265625 141.536132812 680.000976562 148 680.000976562 c 0
 154.463867188 680.000976562 160.58203125 678.447265625 166 675.6953125 c 1
 171.41796875 678.447265625 177.536132812 680.000976562 184 680.000976562 c 0
 190.463867188 680.000976562 196.58203125 678.447265625 202 675.6953125 c 1
 207.41796875 678.447265625 213.536132812 680.000976562 220 680.000976562 c 0
 226.463867188 680.000976562 232.58203125 678.447265625 238 675.6953125 c 1
 243.41796875 678.447265625 249.536132812 680.000976562 256 680.000976562 c 0
 262.463867188 680.000976562 268.58203125 678.447265625 274 675.6953125 c 1
 279.41796875 678.447265625 285.536132812 680.000976562 292 680.000976562 c 0
 298.463867188 680.000976562 304.58203125 678.447265625 310 675.6953125 c 1
 315.41796875 678.447265625 321.536132812 680.000976562 328 680.000976562 c 0
 334.463867188 680.000976562 340.58203125 678.447265625 346 675.6953125 c 1
 351.41796875 678.447265625 357.536132812 680.000976562 364 680.000976562 c 0
 386 680.000976562 404 662.000976562 404 640.000976562 c 0
 404 618.000976562 386 600.000976562 364 600.000976562 c 0
 357.536132812 600.000976562 351.41796875 601.5546875 346 604.306640625 c 1
 340.58203125 601.5546875 334.463867188 600.000976562 328 600.000976562 c 0
 321.536132812 600.000976562 315.41796875 601.5546875 310 604.306640625 c 1
 304.58203125 601.5546875 298.463867188 600.000976562 292 600.000976562 c 0
 285.536132812 600.000976562 279.41796875 601.5546875 274 604.306640625 c 1
 268.58203125 601.5546875 262.463867188 600.000976562 256 600.000976562 c 0
 249.536132812 600.000976562 243.41796875 601.5546875 238 604.306640625 c 1
 232.58203125 601.5546875 226.463867188 600.000976562 220 600.000976562 c 0
 213.536132812 600.000976562 207.41796875 601.5546875 202 604.306640625 c 1
 196.58203125 601.5546875 190.463867188 600.000976562 184 600.000976562 c 0
 177.536132812 600.000976562 171.41796875 601.5546875 166 604.306640625 c 1
 160.58203125 601.5546875 154.463867188 600.000976562 148 600.000976562 c 0
 141.536132812 600.000976562 135.41796875 601.5546875 130 604.306640625 c 1
 124.58203125 601.5546875 118.463867188 600.000976562 112 600.000976562 c 0
 105.536132812 600.000976562 99.41796875 601.5546875 94 604.306640625 c 1
 88.58203125 601.5546875 82.4638671875 600.000976562 76 600.000976562 c 0
 69.5361328125 600.000976562 63.41796875 601.5546875 58 604.306640625 c 1
 52.58203125 601.5546875 46.4638671875 600.000976562 40 600.000976562 c 0
 18 600.000976562 0 618.000976562 0 640.000976562 c 0
EndSplineSet
EndChar

StartChar: exclam
Encoding: 33 33 2
Width: 432
GlyphClass: 2
Flags: MW
HStem: 0 80 300 80 400 80 500 80 600 80
LayerCount: 2
Fore
SplineSet
144 40 m 0
 144 62 162 80.0009765625 184 80.0009765625 c 0
 190.463867188 80.0009765625 196.58203125 78.447265625 202 75.6953125 c 1
 207.41796875 78.447265625 213.536132812 80.0009765625 220 80.0009765625 c 0
 242 80.0009765625 260 62.0009765625 260 40.0009765625 c 0
 260 18.0009765625 242 0.0009765625 220 0.0009765625 c 0
 213.536132812 0.0009765625 207.41796875 1.5546875 202 4.306640625 c 1
 196.58203125 1.5537109375 190.463867188 0 184 0 c 0
 162 0 144 18 144 40 c 0
144 340.000976562 m 0
 144 362.000976562 162 380.000976562 184 380.000976562 c 0
 190.463867188 380.000976562 196.58203125 378.447265625 202 375.6953125 c 1
 207.41796875 378.447265625 213.536132812 380.000976562 220 380.000976562 c 0
 242 380.000976562 260 362.000976562 260 340.000976562 c 0
 260 318.000976562 242 300.000976562 220 300.000976562 c 0
 213.536132812 300.000976562 207.41796875 301.5546875 202 304.306640625 c 1
 196.58203125 301.5546875 190.463867188 300.000976562 184 300.000976562 c 0
 162 300.000976562 144 318.000976562 144 340.000976562 c 0
144 440.000976562 m 0
 144 462.000976562 162 480.000976562 184 480.000976562 c 0
 190.463867188 480.000976562 196.58203125 478.447265625 202 475.6953125 c 1
 207.41796875 478.447265625 213.536132812 480.000976562 220 480.000976562 c 0
 242 480.000976562 260 462.000976562 260 440.000976562 c 0
 260 418.000976562 242 400.000976562 220 400.000976562 c 0
 213.536132812 400.000976562 207.41796875 401.5546875 202 404.306640625 c 1
 196.58203125 401.5546875 190.463867188 400.000976562 184 400.000976562 c 0
 162 400.000976562 144 418.000976562 144 440.000976562 c 0
144 540.000976562 m 0
 144 562.000976562 162 580.000976562 184 580.000976562 c 0
 190.463867188 580.000976562 196.58203125 578.447265625 202 575.6953125 c 1
 207.41796875 578.447265625 213.536132812 580.000976562 220 580.000976562 c 0
 242 580.000976562 260 562.000976562 260 540.000976562 c 0
 260 518.000976562 242 500.000976562 220 500.000976562 c 0
 213.536132812 500.000976562 207.41796875 501.5546875 202 504.306640625 c 1
 196.58203125 501.5546875 190.463867188 500.000976562 184 500.000976562 c 0
 162 500.000976562 144 518.000976562 144 540.000976562 c 0
144 640.000976562 m 0
 144 662.000976562 162 680.000976562 184 680.000976562 c 0
 190.463867188 680.000976562 196.58203125 678.447265625 202 675.6953125 c 1
 207.41796875 678.447265625 213.536132812 680.000976562 220 680.000976562 c 0
 242 680.000976562 260 662.000976562 260 640.000976562 c 0
 260 618.000976562 242 600.000976562 220 600.000976562 c 0
 213.536132812 600.000976562 207.41796875 601.5546875 202 604.306640625 c 1
 196.58203125 601.5546875 190.463867188 600.000976562 184 600.000976562 c 0
 162 600.000976562 144 618.000976562 144 640.000976562 c 0
EndSplineSet
EndChar

StartChar: quotedbl
Encoding: 34 34 3
Width: 432
GlyphClass: 2
Flags: MW
HStem: 400 80 500 80 600 80
CounterMasks: 1 e0
LayerCount: 2
Fore
SplineSet
216 440 m 0
 216 462 234 480.000976562 256 480.000976562 c 0
 262.463867188 480.000976562 268.58203125 478.447265625 274 475.6953125 c 1
 279.41796875 478.447265625 285.536132812 480.000976562 292 480.000976562 c 0
 314 480.000976562 332 462.000976562 332 440.000976562 c 0
 332 418.000976562 314 400.000976562 292 400.000976562 c 0
 285.536132812 400.000976562 279.41796875 401.5546875 274 404.306640625 c 1
 268.58203125 401.553710938 262.463867188 400 256 400 c 0
 234 400 216 418 216 440 c 0
72 440.000976562 m 0
 72 462.000976562 90 480.000976562 112 480.000976562 c 0
 118.463867188 480.000976562 124.58203125 478.447265625 130 475.6953125 c 1
 135.41796875 478.447265625 141.536132812 480.000976562 148 480.000976562 c 0
 170 480.000976562 188 462.000976562 188 440.000976562 c 0
 188 418.000976562 170 400.000976562 148 400.000976562 c 0
 141.536132812 400.000976562 135.41796875 401.5546875 130 404.306640625 c 1
 124.58203125 401.5546875 118.463867188 400.000976562 112 400.000976562 c 0
 90 400.000976562 72 418.000976562 72 440.000976562 c 0
216 540.000976562 m 0
 216 562.000976562 234 580.000976562 256 580.000976562 c 0
 262.463867188 580.000976562 268.58203125 578.447265625 274 575.6953125 c 1
 279.41796875 578.447265625 285.536132812 580.000976562 292 580.000976562 c 0
 314 580.000976562 332 562.000976562 332 540.000976562 c 0
 332 518.000976562 314 500.000976562 292 500.000976562 c 0
 285.536132812 500.000976562 279.41796875 501.5546875 274 504.306640625 c 1
 268.58203125 501.5546875 262.463867188 500.000976562 256 500.000976562 c 0
 234 500.000976562 216 518.000976562 216 540.000976562 c 0
72 540.000976562 m 0
 72 562.000976562 90 580.000976562 112 580.000976562 c 0
 118.463867188 580.000976562 124.58203125 578.447265625 130 575.6953125 c 1
 135.41796875 578.447265625 141.536132812 580.000976562 148 580.000976562 c 0
 170 580.000976562 188 562.000976562 188 540.000976562 c 0
 188 518.000976562 170 500.000976562 148 500.000976562 c 0
 141.536132812 500.000976562 135.41796875 501.5546875 130 504.306640625 c 1
 124.58203125 501.5546875 118.463867188 500.000976562 112 500.000976562 c 0
 90 500.000976562 72 518.000976562 72 540.000976562 c 0
216 640.000976562 m 0
 216 662.000976562 234 680.000976562 256 680.000976562 c 0
 262.463867188 680.000976562 268.58203125 678.447265625 274 675.6953125 c 1
 279.41796875 678.447265625 285.536132812 680.000976562 292 680.000976562 c 0
 314 680.000976562 332 662.000976562 332 640.000976562 c 0
 332 618.000976562 314 600.000976562 292 600.000976562 c 0
 285.536132812 600.000976562 279.41796875 601.5546875 274 604.306640625 c 1
 268.58203125 601.5546875 262.463867188 600.000976562 256 600.000976562 c 0
 234 600.000976562 216 618.000976562 216 640.000976562 c 0
72 640.000976562 m 0
 72 662.000976562 90 680.000976562 112 680.000976562 c 0
 118.463867188 680.000976562 124.58203125 678.447265625 130 675.6953125 c 1
 135.41796875 678.447265625 141.536132812 680.000976562 148 680.000976562 c 0
 170 680.000976562 188 662.000976562 188 640.000976562 c 0
 188 618.000976562 170 600.000976562 148 600.000976562 c 0
 141.536132812 600.000976562 135.41796875 601.5546875 130 604.306640625 c 1
 124.58203125 601.5546875 118.463867188 600.000976562 112 600.000976562 c 0
 90 600.000976562 72 618.000976562 72 640.000976562 c 0
EndSplineSet
EndChar

StartChar: numbersign
Encoding: 35 35 4
Width: 432
GlyphClass: 2
Flags: MW
HStem: 0 80 100 80 200 80 300 80 400 80 500 80 600 80
LayerCount: 2
Fore
SplineSet
216 40 m 0
 216 62 234 80.0009765625 256 80.0009765625 c 0
 262.463867188 80.0009765625 268.58203125 78.447265625 274 75.6953125 c 1
 279.41796875 78.447265625 285.536132812 80.0009765625 292 80.0009765625 c 0
 314 80.0009765625 332 62.0009765625 332 40.0009765625 c 0
 332 18.0009765625 314 0.0009765625 292 0.0009765625 c 0
 285.536132812 0.0009765625 279.41796875 1.5546875 274 4.306640625 c 1
 268.58203125 1.5537109375 262.463867188 0 256 0 c 0
 234 0 216 18 216 40 c 0
72 40.0009765625 m 0
 72 62.0009765625 90 80.0009765625 112 80.0009765625 c 0
 118.463867188 80.0009765625 124.58203125 78.447265625 130 75.6953125 c 1
 135.41796875 78.447265625 141.536132812 80.0009765625 148 80.0009765625 c 0
 170 80.0009765625 188 62.0009765625 188 40.0009765625 c 0
 188 18.0009765625 170 0.0009765625 148 0.0009765625 c 0
 141.536132812 0.0009765625 135.41796875 1.5546875 130 4.306640625 c 1
 124.58203125 1.5546875 118.463867188 0.0009765625 112 0.0009765625 c 0
 90 0.0009765625 72 18.0009765625 72 40.0009765625 c 0
216 140.000976562 m 0
 216 162.000976562 234 180.000976562 256 180.000976562 c 0
 262.463867188 180.000976562 268.58203125 178.447265625 274 175.6953125 c 1
 279.41796875 178.447265625 285.536132812 180.000976562 292 180.000976562 c 0
 314 180.000976562 332 162.000976562 332 140.000976562 c 0
 332 118.000976562 314 100.000976562 292 100.000976562 c 0
 285.536132812 100.000976562 279.41796875 101.5546875 274 104.306640625 c 1
 268.58203125 101.5546875 262.463867188 100.000976562 256 100.000976562 c 0
 234 100.000976562 216 118.000976562 216 140.000976562 c 0
72 140.000976562 m 0
 72 162.000976562 90 180.000976562 112 180.000976562 c 0
 118.463867188 180.000976562 124.58203125 178.447265625 130 175.6953125 c 1
 135.41796875 178.447265625 141.536132812 180.000976562 148 180.000976562 c 0
 170 180.000976562 188 162.000976562 188 140.000976562 c 0
 188 118.000976562 170 100.000976562 148 100.000976562 c 0
 141.536132812 100.000976562 135.41796875 101.5546875 130 104.306640625 c 1
 124.58203125 101.5546875 118.463867188 100.000976562 112 100.000976562 c 0
 90 100.000976562 72 118.000976562 72 140.000976562 c 0
0 240.000976562 m 0
 0 262.000976562 18 280.000976562 40 280.000976562 c 0
 46.4638671875 280.000976562 52.58203125 278.447265625 58 275.6953125 c 1
 63.41796875 278.447265625 69.5361328125 280.000976562 76 280.000976562 c 0
 82.4638671875 280.000976562 88.58203125 278.447265625 94 275.6953125 c 1
 99.41796875 278.447265625 105.536132812 280.000976562 112 280.000976562 c 0
 118.463867188 280.000976562 124.58203125 278.447265625 130 275.6953125 c 1
 135.41796875 278.447265625 141.536132812 280.000976562 148 280.000976562 c 0
 154.463867188 280.000976562 160.58203125 278.447265625 166 275.6953125 c 1
 171.41796875 278.447265625 177.536132812 280.000976562 184 280.000976562 c 0
 190.463867188 280.000976562 196.58203125 278.447265625 202 275.6953125 c 1
 207.41796875 278.447265625 213.536132812 280.000976562 220 280.000976562 c 0
 226.463867188 280.000976562 232.58203125 278.447265625 238 275.6953125 c 1
 243.41796875 278.447265625 249.536132812 280.000976562 256 280.000976562 c 0
 262.463867188 280.000976562 268.58203125 278.447265625 274 275.6953125 c 1
 279.41796875 278.447265625 285.536132812 280.000976562 292 280.000976562 c 0
 298.463867188 280.000976562 304.58203125 278.447265625 310 275.6953125 c 1
 315.41796875 278.447265625 321.536132812 280.000976562 328 280.000976562 c 0
 334.463867188 280.000976562 340.58203125 278.447265625 346 275.6953125 c 1
 351.41796875 278.447265625 357.536132812 280.000976562 364 280.000976562 c 0
 386 280.000976562 404 262.000976562 404 240.000976562 c 0
 404 218.000976562 386 200.000976562 364 200.000976562 c 0
 357.536132812 200.000976562 351.41796875 201.5546875 346 204.306640625 c 1
 340.58203125 201.5546875 334.463867188 200.000976562 328 200.000976562 c 0
 321.536132812 200.000976562 315.41796875 201.5546875 310 204.306640625 c 1
 304.58203125 201.5546875 298.463867188 200.000976562 292 200.000976562 c 0
 285.536132812 200.000976562 279.41796875 201.5546875 274 204.306640625 c 1
 268.58203125 201.5546875 262.463867188 200.000976562 256 200.000976562 c 0
 249.536132812 200.000976562 243.41796875 201.5546875 238 204.306640625 c 1
 232.58203125 201.5546875 226.463867188 200.000976562 220 200.000976562 c 0
 213.536132812 200.000976562 207.41796875 201.5546875 202 204.306640625 c 1
 196.58203125 201.5546875 190.463867188 200.000976562 184 200.000976562 c 0
 177.536132812 200.000976562 171.41796875 201.5546875 166 204.306640625 c 1
 160.58203125 201.5546875 154.463867188 200.000976562 148 200.000976562 c 0
 141.536132812 200.000976562 135.41796875 201.5546875 130 204.306640625 c 1
 124.58203125 201.5546875 118.463867188 200.000976562 112 200.000976562 c 0
 105.536132812 200.000976562 99.41796875 201.5546875 94 204.306640625 c 1
 88.58203125 201.5546875 82.4638671875 200.000976562 76 200.000976562 c 0
 69.5361328125 200.000976562 63.41796875 201.5546875 58 204.306640625 c 1
 52.58203125 201.5546875 46.4638671875 200.000976562 40 200.000976562 c 0
 18 200.000976562 0 218.000976562 0 240.000976562 c 0
216 340.000976562 m 0
 216 362.000976562 234 380.000976562 256 380.000976562 c 0
 262.463867188 380.000976562 268.58203125 378.447265625 274 375.6953125 c 1
 279.41796875 378.447265625 285.536132812 380.000976562 292 380.000976562 c 0
 314 380.000976562 332 362.000976562 332 340.000976562 c 0
 332 318.000976562 314 300.000976562 292 300.000976562 c 0
 285.536132812 300.000976562 279.41796875 301.5546875 274 304.306640625 c 1
 268.58203125 301.5546875 262.463867188 300.000976562 256 300.000976562 c 0
 234 300.000976562 216 318.000976562 216 340.000976562 c 0
72 340.000976562 m 0
 72 362.000976562 90 380.000976562 112 380.000976562 c 0
 118.463867188 380.000976562 124.58203125 378.447265625 130 375.6953125 c 1
 135.41796875 378.447265625 141.536132812 380.000976562 148 380.000976562 c 0
 170 380.000976562 188 362.000976562 188 340.000976562 c 0
 188 318.000976562 170 300.000976562 148 300.000976562 c 0
 141.536132812 300.000976562 135.41796875 301.5546875 130 304.306640625 c 1
 124.58203125 301.5546875 118.463867188 300.000976562 112 300.000976562 c 0
 90 300.000976562 72 318.000976562 72 340.000976562 c 0
0 440.000976562 m 0
 0 462.000976562 18 480.000976562 40 480.000976562 c 0
 46.4638671875 480.000976562 52.58203125 478.447265625 58 475.6953125 c 1
 63.41796875 478.447265625 69.5361328125 480.000976562 76 480.000976562 c 0
 82.4638671875 480.000976562 88.58203125 478.447265625 94 475.6953125 c 1
 99.41796875 478.447265625 105.536132812 480.000976562 112 480.000976562 c 0
 118.463867188 480.000976562 124.58203125 478.447265625 130 475.6953125 c 1
 135.41796875 478.447265625 141.536132812 480.000976562 148 480.000976562 c 0
 154.463867188 480.000976562 160.58203125 478.447265625 166 475.6953125 c 1
 171.41796875 478.447265625 177.536132812 480.000976562 184 480.000976562 c 0
 190.463867188 480.000976562 196.58203125 478.447265625 202 475.6953125 c 1
 207.41796875 478.447265625 213.536132812 480.000976562 220 480.000976562 c 0
 226.463867188 480.000976562 232.58203125 478.447265625 238 475.6953125 c 1
 243.41796875 478.447265625 249.536132812 480.000976562 256 480.000976562 c 0
 262.463867188 480.000976562 268.58203125 478.447265625 274 475.6953125 c 1
 279.41796875 478.447265625 285.536132812 480.000976562 292 480.000976562 c 0
 298.463867188 480.000976562 304.58203125 478.447265625 310 475.6953125 c 1
 315.41796875 478.447265625 321.536132812 480.000976562 328 480.000976562 c 0
 334.463867188 480.000976562 340.58203125 478.447265625 346 475.6953125 c 1
 351.41796875 478.447265625 357.536132812 480.000976562 364 480.000976562 c 0
 386 480.000976562 404 462.000976562 404 440.000976562 c 0
 404 418.000976562 386 400.000976562 364 400.000976562 c 0
 357.536132812 400.000976562 351.41796875 401.5546875 346 404.306640625 c 1
 340.58203125 401.5546875 334.463867188 400.000976562 328 400.000976562 c 0
 321.536132812 400.000976562 315.41796875 401.5546875 310 404.306640625 c 1
 304.58203125 401.5546875 298.463867188 400.000976562 292 400.000976562 c 0
 285.536132812 400.000976562 279.41796875 401.5546875 274 404.306640625 c 1
 268.58203125 401.5546875 262.463867188 400.000976562 256 400.000976562 c 0
 249.536132812 400.000976562 243.41796875 401.5546875 238 404.306640625 c 1
 232.58203125 401.5546875 226.463867188 400.000976562 220 400.000976562 c 0
 213.536132812 400.000976562 207.41796875 401.5546875 202 404.306640625 c 1
 196.58203125 401.5546875 190.463867188 400.000976562 184 400.000976562 c 0
 177.536132812 400.000976562 171.41796875 401.5546875 166 404.306640625 c 1
 160.58203125 401.5546875 154.463867188 400.000976562 148 400.000976562 c 0
 141.536132812 400.000976562 135.41796875 401.5546875 130 404.306640625 c 1
 124.58203125 401.5546875 118.463867188 400.000976562 112 400.000976562 c 0
 105.536132812 400.000976562 99.41796875 401.5546875 94 404.306640625 c 1
 88.58203125 401.5546875 82.4638671875 400.000976562 76 400.000976562 c 0
 69.5361328125 400.000976562 63.41796875 401.5546875 58 404.306640625 c 1
 52.58203125 401.5546875 46.4638671875 400.000976562 40 400.000976562 c 0
 18 400.000976562 0 418.000976562 0 440.000976562 c 0
216 540.000976562 m 0
 216 562.000976562 234 580.000976562 256 580.000976562 c 0
 262.463867188 580.000976562 268.58203125 578.447265625 274 575.6953125 c 1
 279.41796875 578.447265625 285.536132812 580.000976562 292 580.000976562 c 0
 314 580.000976562 332 562.000976562 332 540.000976562 c 0
 332 518.000976562 314 500.000976562 292 500.000976562 c 0
 285.536132812 500.000976562 279.41796875 501.5546875 274 504.306640625 c 1
 268.58203125 501.5546875 262.463867188 500.000976562 256 500.000976562 c 0
 234 500.000976562 216 518.000976562 216 540.000976562 c 0
72 540.000976562 m 0
 72 562.000976562 90 580.000976562 112 580.000976562 c 0
 118.463867188 580.000976562 124.58203125 578.447265625 130 575.6953125 c 1
 135.41796875 578.447265625 141.536132812 580.000976562 148 580.000976562 c 0
 170 580.000976562 188 562.000976562 188 540.000976562 c 0
 188 518.000976562 170 500.000976562 148 500.000976562 c 0
 141.536132812 500.000976562 135.41796875 501.5546875 130 504.306640625 c 1
 124.58203125 501.5546875 118.463867188 500.000976562 112 500.000976562 c 0
 90 500.000976562 72 518.000976562 72 540.000976562 c 0
216 640.000976562 m 0
 216 662.000976562 234 680.000976562 256 680.000976562 c 0
 262.463867188 680.000976562 268.58203125 678.447265625 274 675.6953125 c 1
 279.41796875 678.447265625 285.536132812 680.000976562 292 680.000976562 c 0
 314 680.000976562 332 662.000976562 332 640.000976562 c 0
 332 618.000976562 314 600.000976562 292 600.000976562 c 0
 285.536132812 600.000976562 279.41796875 601.5546875 274 604.306640625 c 1
 268.58203125 601.5546875 262.463867188 600.000976562 256 600.000976562 c 0
 234 600.000976562 216 618.000976562 216 640.000976562 c 0
72 640.000976562 m 0
 72 662.000976562 90 680.000976562 112 680.000976562 c 0
 118.463867188 680.000976562 124.58203125 678.447265625 130 675.6953125 c 1
 135.41796875 678.447265625 141.536132812 680.000976562 148 680.000976562 c 0
 170 680.000976562 188 662.000976562 188 640.000976562 c 0
 188 618.000976562 170 600.000976562 148 600.000976562 c 0
 141.536132812 600.000976562 135.41796875 601.5546875 130 604.306640625 c 1
 124.58203125 601.5546875 118.463867188 600.000976562 112 600.000976562 c 0
 90 600.000976562 72 618.000976562 72 640.000976562 c 0
EndSplineSet
EndChar

StartChar: dollar
Encoding: 36 36 5
Width: 432
GlyphClass: 2
Flags: MW
HStem: 0 80 100 80 200 80 300 80 400 80 500 80 600 80
CounterMasks: 1 01
LayerCount: 2
Fore
SplineSet
144 40 m 0
 144 62 162 80.0009765625 184 80.0009765625 c 0
 190.463867188 80.0009765625 196.58203125 78.447265625 202 75.6953125 c 1
 207.41796875 78.447265625 213.536132812 80.0009765625 220 80.0009765625 c 0
 242 80.0009765625 260 62.0009765625 260 40.0009765625 c 0
 260 18.0009765625 242 0.0009765625 220 0.0009765625 c 0
 213.536132812 0.0009765625 207.41796875 1.5546875 202 4.306640625 c 1
 196.58203125 1.5537109375 190.463867188 0 184 0 c 0
 162 0 144 18 144 40 c 0
0 140.000976562 m 0
 0 162.000976562 18 180.000976562 40 180.000976562 c 0
 46.4638671875 180.000976562 52.58203125 178.447265625 58 175.6953125 c 1
 63.41796875 178.447265625 69.5361328125 180.000976562 76 180.000976562 c 0
 82.4638671875 180.000976562 88.58203125 178.447265625 94 175.6953125 c 1
 99.41796875 178.447265625 105.536132812 180.000976562 112 180.000976562 c 0
 118.463867188 180.000976562 124.58203125 178.447265625 130 175.6953125 c 1
 135.41796875 178.447265625 141.536132812 180.000976562 148 180.000976562 c 0
 154.463867188 180.000976562 160.58203125 178.447265625 166 175.6953125 c 1
 171.41796875 178.447265625 177.536132812 180.000976562 184 180.000976562 c 0
 190.463867188 180.000976562 196.58203125 178.447265625 202 175.6953125 c 1
 207.41796875 178.447265625 213.536132812 180.000976562 220 180.000976562 c 0
 226.463867188 180.000976562 232.58203125 178.447265625 238 175.6953125 c 1
 243.41796875 178.447265625 249.536132812 180.000976562 256 180.000976562 c 0
 262.463867188 180.000976562 268.58203125 178.447265625 274 175.6953125 c 1
 279.41796875 178.447265625 285.536132812 180.000976562 292 180.000976562 c 0
 314 180.000976562 332 162.000976562 332 140.000976562 c 0
 332 118.000976562 314 100.000976562 292 100.000976562 c 0
 285.536132812 100.000976562 279.41796875 101.5546875 274 104.306640625 c 1
 268.58203125 101.5546875 262.463867188 100.000976562 256 100.000976562 c 0
 249.536132812 100.000976562 243.41796875 101.5546875 238 104.306640625 c 1
 232.58203125 101.5546875 226.463867188 100.000976562 220 100.000976562 c 0
 213.536132812 100.000976562 207.41796875 101.5546875 202 104.306640625 c 1
 196.58203125 101.5546875 190.463867188 100.000976562 184 100.000976562 c 0
 177.536132812 100.000976562 171.41796875 101.5546875 166 104.306640625 c 1
 160.58203125 101.5546875 154.463867188 100.000976562 148 100.000976562 c 0
 141.536132812 100.000976562 135.41796875 101.5546875 130 104.306640625 c 1
 124.58203125 101.5546875 118.463867188 100.000976562 112 100.000976562 c 0
 105.536132812 100.000976562 99.41796875 101.5546875 94 104.306640625 c 1
 88.58203125 101.5546875 82.4638671875 100.000976562 76 100.000976562 c 0
 69.5361328125 100.000976562 63.41796875 101.5546875 58 104.306640625 c 1
 52.58203125 101.5546875 46.4638671875 100.000976562 40 100.000976562 c 0
 18 100.000976562 0 118.000976562 0 140.000976562 c 0
288 240.000976562 m 0
 288 262.000976562 306 280.000976562 328 280.000976562 c 0
 334.463867188 280.000976562 340.58203125 278.447265625 346 275.6953125 c 1
 351.41796875 278.447265625 357.536132812 280.000976562 364 280.000976562 c 0
 386 280.000976562 404 262.000976562 404 240.000976562 c 0
 404 218.000976562 386 200.000976562 364 200.000976562 c 0
 357.536132812 200.000976562 351.41796875 201.5546875 346 204.306640625 c 1
 340.58203125 201.5546875 334.463867188 200.000976562 328 200.000976562 c 0
 306 200.000976562 288 218.000976562 288 240.000976562 c 0
144 240.000976562 m 0
 144 262.000976562 162 280.000976562 184 280.000976562 c 0
 190.463867188 280.000976562 196.58203125 278.447265625 202 275.6953125 c 1
 207.41796875 278.447265625 213.536132812 280.000976562 220 280.000976562 c 0
 242 280.000976562 260 262.000976562 260 240.000976562 c 0
 260 218.000976562 242 200.000976562 220 200.000976562 c 0
 213.536132812 200.000976562 207.41796875 201.5546875 202 204.306640625 c 1
 196.58203125 201.5546875 190.463867188 200.000976562 184 200.000976562 c 0
 162 200.000976562 144 218.000976562 144 240.000976562 c 0
72 340.000976562 m 0
 72 362.000976562 90 380.000976562 112 380.000976562 c 0
 118.463867188 380.000976562 124.58203125 378.447265625 130 375.6953125 c 1
 135.41796875 378.447265625 141.536132812 380.000976562 148 380.000976562 c 0
 154.463867188 380.000976562 160.58203125 378.447265625 166 375.6953125 c 1
 171.41796875 378.447265625 177.536132812 380.000976562 184 380.000976562 c 0
 190.463867188 380.000976562 196.58203125 378.447265625 202 375.6953125 c 1
 207.41796875 378.447265625 213.536132812 380.000976562 220 380.000976562 c 0
 226.463867188 380.000976562 232.58203125 378.447265625 238 375.6953125 c 1
 243.41796875 378.447265625 249.536132812 380.000976562 256 380.000976562 c 0
 262.463867188 380.000976562 268.58203125 378.447265625 274 375.6953125 c 1
 279.41796875 378.447265625 285.536132812 380.000976562 292 380.000976562 c 0
 314 380.000976562 332 362.000976562 332 340.000976562 c 0
 332 318.000976562 314 300.000976562 292 300.000976562 c 0
 285.536132812 300.000976562 279.41796875 301.5546875 274 304.306640625 c 1
 268.58203125 301.5546875 262.463867188 300.000976562 256 300.000976562 c 0
 249.536132812 300.000976562 243.41796875 301.5546875 238 304.306640625 c 1
 232.58203125 301.5546875 226.463867188 300.000976562 220 300.000976562 c 0
 213.536132812 300.000976562 207.41796875 301.5546875 202 304.306640625 c 1
 196.58203125 301.5546875 190.463867188 300.000976562 184 300.000976562 c 0
 177.536132812 300.000976562 171.41796875 301.5546875 166 304.306640625 c 1
 160.58203125 301.5546875 154.463867188 300.000976562 148 300.000976562 c 0
 141.536132812 300.000976562 135.41796875 301.5546875 130 304.306640625 c 1
 124.58203125 301.5546875 118.463867188 300.000976562 112 300.000976562 c 0
 90 300.000976562 72 318.000976562 72 340.000976562 c 0
144 440.000976562 m 0
 144 462.000976562 162 480.000976562 184 480.000976562 c 0
 190.463867188 480.000976562 196.58203125 478.447265625 202 475.6953125 c 1
 207.41796875 478.447265625 213.536132812 480.000976562 220 480.000976562 c 0
 242 480.000976562 260 462.000976562 260 440.000976562 c 0
 260 418.000976562 242 400.000976562 220 400.000976562 c 0
 213.536132812 400.000976562 207.41796875 401.5546875 202 404.306640625 c 1
 196.58203125 401.5546875 190.463867188 400.000976562 184 400.000976562 c 0
 162 400.000976562 144 418.000976562 144 440.000976562 c 0
0 440.000976562 m 0
 0 462.000976562 18 480.000976562 40 480.000976562 c 0
 46.4638671875 480.000976562 52.58203125 478.447265625 58 475.6953125 c 1
 63.41796875 478.447265625 69.5361328125 480.000976562 76 480.000976562 c 0
 98 480.000976562 116 462.000976562 116 440.000976562 c 0
 116 418.000976562 98 400.000976562 76 400.000976562 c 0
 69.5361328125 400.000976562 63.41796875 401.5546875 58 404.306640625 c 1
 52.58203125 401.5546875 46.4638671875 400.000976562 40 400.000976562 c 0
 18 400.000976562 0 418.000976562 0 440.000976562 c 0
72 540.000976562 m 0
 72 562.000976562 90 580.000976562 112 580.000976562 c 0
 118.463867188 580.000976562 124.58203125 578.447265625 130 575.6953125 c 1
 135.41796875 578.447265625 141.536132812 580.000976562 148 580.000976562 c 0
 154.463867188 580.000976562 160.58203125 578.447265625 166 575.6953125 c 1
 171.41796875 578.447265625 177.536132812 580.000976562 184 580.000976562 c 0
 190.463867188 580.000976562 196.58203125 578.447265625 202 575.6953125 c 1
 207.41796875 578.447265625 213.536132812 580.000976562 220 580.000976562 c 0
 226.463867188 580.000976562 232.58203125 578.447265625 238 575.6953125 c 1
 243.41796875 578.447265625 249.536132812 580.000976562 256 580.000976562 c 0
 262.463867188 580.000976562 268.58203125 578.447265625 274 575.6953125 c 1
 279.41796875 578.447265625 285.536132812 580.000976562 292 580.000976562 c 0
 298.463867188 580.000976562 304.58203125 578.447265625 310 575.6953125 c 1
 315.41796875 578.447265625 321.536132812 580.000976562 328 580.000976562 c 0
 334.463867188 580.000976562 340.58203125 578.447265625 346 575.6953125 c 1
 351.41796875 578.447265625 357.536132812 580.000976562 364 580.000976562 c 0
 386 580.000976562 404 562.000976562 404 540.000976562 c 0
 404 518.000976562 386 500.000976562 364 500.000976562 c 0
 357.536132812 500.000976562 351.41796875 501.5546875 346 504.306640625 c 1
 340.58203125 501.5546875 334.463867188 500.000976562 328 500.000976562 c 0
 321.536132812 500.000976562 315.41796875 501.5546875 310 504.306640625 c 1
 304.58203125 501.5546875 298.463867188 500.000976562 292 500.000976562 c 0
 285.536132812 500.000976562 279.41796875 501.5546875 274 504.306640625 c 1
 268.58203125 501.5546875 262.463867188 500.000976562 256 500.000976562 c 0
 249.536132812 500.000976562 243.41796875 501.5546875 238 504.306640625 c 1
 232.58203125 501.5546875 226.463867188 500.000976562 220 500.000976562 c 0
 213.536132812 500.000976562 207.41796875 501.5546875 202 504.306640625 c 1
 196.58203125 501.5546875 190.463867188 500.000976562 184 500.000976562 c 0
 177.536132812 500.000976562 171.41796875 501.5546875 166 504.306640625 c 1
 160.58203125 501.5546875 154.463867188 500.000976562 148 500.000976562 c 0
 141.536132812 500.000976562 135.41796875 501.5546875 130 504.306640625 c 1
 124.58203125 501.5546875 118.463867188 500.000976562 112 500.000976562 c 0
 90 500.000976562 72 518.000976562 72 540.000976562 c 0
144 640.000976562 m 0
 144 662.000976562 162 680.000976562 184 680.000976562 c 0
 190.463867188 680.000976562 196.58203125 678.447265625 202 675.6953125 c 1
 207.41796875 678.447265625 213.536132812 680.000976562 220 680.000976562 c 0
 242 680.000976562 260 662.000976562 260 640.000976562 c 0
 260 618.000976562 242 600.000976562 220 600.000976562 c 0
 213.536132812 600.000976562 207.41796875 601.5546875 202 604.306640625 c 1
 196.58203125 601.5546875 190.463867188 600.000976562 184 600.000976562 c 0
 162 600.000976562 144 618.000976562 144 640.000976562 c 0
EndSplineSet
EndChar

StartChar: percent
Encoding: 37 37 6
Width: 432
GlyphClass: 2
Flags: MW
HStem: 0 80 100 80 200 80 300 80 400 80 500 80 600 80
LayerCount: 2
Fore
SplineSet
216 40 m 0
 216 62 234 80.0009765625 256 80.0009765625 c 0
 262.463867188 80.0009765625 268.58203125 78.447265625 274 75.6953125 c 1
 279.41796875 78.447265625 285.536132812 80.0009765625 292 80.0009765625 c 0
 298.463867188 80.0009765625 304.58203125 78.447265625 310 75.6953125 c 1
 315.41796875 78.447265625 321.536132812 80.0009765625 328 80.0009765625 c 0
 334.463867188 80.0009765625 340.58203125 78.447265625 346 75.6953125 c 1
 351.41796875 78.447265625 357.536132812 80.0009765625 364 80.0009765625 c 0
 386 80.0009765625 404 62.0009765625 404 40.0009765625 c 0
 404 18.0009765625 386 0.0009765625 364 0.0009765625 c 0
 357.536132812 0.0009765625 351.41796875 1.5546875 346 4.306640625 c 1
 340.58203125 1.5546875 334.463867188 0.0009765625 328 0.0009765625 c 0
 321.536132812 0.0009765625 315.41796875 1.5546875 310 4.306640625 c 1
 304.58203125 1.5546875 298.463867188 0.0009765625 292 0.0009765625 c 0
 285.536132812 0.0009765625 279.41796875 1.5546875 274 4.306640625 c 1
 268.58203125 1.5537109375 262.463867188 0 256 0 c 0
 234 0 216 18 216 40 c 0
36 40.0009765625 m 0
 36 62.0009765625 54 80.0009765625 76 80.0009765625 c 0
 82.4638671875 80.0009765625 88.58203125 78.447265625 94 75.6953125 c 1
 99.41796875 78.447265625 105.536132812 80.0009765625 112 80.0009765625 c 0
 134 80.0009765625 152 62.0009765625 152 40.0009765625 c 0
 152 18.0009765625 134 0.0009765625 112 0.0009765625 c 0
 105.536132812 0.0009765625 99.41796875 1.5546875 94 4.306640625 c 1
 88.58203125 1.5546875 82.4638671875 0.0009765625 76 0.0009765625 c 0
 54 0.0009765625 36 18.0009765625 36 40.0009765625 c 0
216 140.000976562 m 0
 216 162.000976562 234 180.000976562 256 180.000976562 c 0
 262.463867188 180.000976562 268.58203125 178.447265625 274 175.6953125 c 1
 279.41796875 178.447265625 285.536132812 180.000976562 292 180.000976562 c 0
 298.463867188 180.000976562 304.58203125 178.447265625 310 175.6953125 c 1
 315.41796875 178.447265625 321.536132812 180.000976562 328 180.000976562 c 0
 334.463867188 180.000976562 340.58203125 178.447265625 346 175.6953125 c 1
 351.41796875 178.447265625 357.536132812 180.000976562 364 180.000976562 c 0
 386 180.000976562 404 162.000976562 404 140.000976562 c 0
 404 118.000976562 386 100.000976562 364 100.000976562 c 0
 357.536132812 100.000976562 351.41796875 101.5546875 346 104.306640625 c 1
 340.58203125 101.5546875 334.463867188 100.000976562 328 100.000976562 c 0
 321.536132812 100.000976562 315.41796875 101.5546875 310 104.306640625 c 1
 304.58203125 101.5546875 298.463867188 100.000976562 292 100.000976562 c 0
 285.536132812 100.000976562 279.41796875 101.5546875 274 104.306640625 c 1
 268.58203125 101.5546875 262.463867188 100.000976562 256 100.000976562 c 0
 234 100.000976562 216 118.000976562 216 140.000976562 c 0
72 140.000976562 m 0
 72 162.000976562 90 180.000976562 112 180.000976562 c 0
 118.463867188 180.000976562 124.58203125 178.447265625 130 175.6953125 c 1
 135.41796875 178.447265625 141.536132812 180.000976562 148 180.000976562 c 0
 170 180.000976562 188 162.000976562 188 140.000976562 c 0
 188 118.000976562 170 100.000976562 148 100.000976562 c 0
 141.536132812 100.000976562 135.41796875 101.5546875 130 104.306640625 c 1
 124.58203125 101.5546875 118.463867188 100.000976562 112 100.000976562 c 0
 90 100.000976562 72 118.000976562 72 140.000976562 c 0
108 240.000976562 m 0
 108 262.000976562 126 280.000976562 148 280.000976562 c 0
 154.463867188 280.000976562 160.58203125 278.447265625 166 275.6953125 c 1
 171.41796875 278.447265625 177.536132812 280.000976562 184 280.000976562 c 0
 206 280.000976562 224 262.000976562 224 240.000976562 c 0
 224 218.000976562 206 200.000976562 184 200.000976562 c 0
 177.536132812 200.000976562 171.41796875 201.5546875 166 204.306640625 c 1
 160.58203125 201.5546875 154.463867188 200.000976562 148 200.000976562 c 0
 126 200.000976562 108 218.000976562 108 240.000976562 c 0
144 340.000976562 m 0
 144 362.000976562 162 380.000976562 184 380.000976562 c 0
 190.463867188 380.000976562 196.58203125 378.447265625 202 375.6953125 c 1
 207.41796875 378.447265625 213.536132812 380.000976562 220 380.000976562 c 0
 242 380.000976562 260 362.000976562 260 340.000976562 c 0
 260 318.000976562 242 300.000976562 220 300.000976562 c 0
 213.536132812 300.000976562 207.41796875 301.5546875 202 304.306640625 c 1
 196.58203125 301.5546875 190.463867188 300.000976562 184 300.000976562 c 0
 162 300.000976562 144 318.000976562 144 340.000976562 c 0
180 440.000976562 m 0
 180 462.000976562 198 480.000976562 220 480.000976562 c 0
 226.463867188 480.000976562 232.58203125 478.447265625 238 475.6953125 c 1
 243.41796875 478.447265625 249.536132812 480.000976562 256 480.000976562 c 0
 278 480.000976562 296 462.000976562 296 440.000976562 c 0
 296 418.000976562 278 400.000976562 256 400.000976562 c 0
 249.536132812 400.000976562 243.41796875 401.5546875 238 404.306640625 c 1
 232.58203125 401.5546875 226.463867188 400.000976562 220 400.000976562 c 0
 198 400.000976562 180 418.000976562 180 440.000976562 c 0
216 540.000976562 m 0
 216 562.000976562 234 580.000976562 256 580.000976562 c 0
 262.463867188 580.000976562 268.58203125 578.447265625 274 575.6953125 c 1
 279.41796875 578.447265625 285.536132812 580.000976562 292 580.000976562 c 0
 314 580.000976562 332 562.000976562 332 540.000976562 c 0
 332 518.000976562 314 500.000976562 292 500.000976562 c 0
 285.536132812 500.000976562 279.41796875 501.5546875 274 504.306640625 c 1
 268.58203125 501.5546875 262.463867188 500.000976562 256 500.000976562 c 0
 234 500.000976562 216 518.000976562 216 540.000976562 c 0
0 540.000976562 m 0
 0 562.000976562 18 580.000976562 40 580.000976562 c 0
 46.4638671875 580.000976562 52.58203125 578.447265625 58 575.6953125 c 1
 63.41796875 578.447265625 69.5361328125 580.000976562 76 580.000976562 c 0
 82.4638671875 580.000976562 88.58203125 578.447265625 94 575.6953125 c 1
 99.41796875 578.447265625 105.536132812 580.000976562 112 580.000976562 c 0
 118.463867188 580.000976562 124.58203125 578.447265625 130 575.6953125 c 1
 135.41796875 578.447265625 141.536132812 580.000976562 148 580.000976562 c 0
 170 580.000976562 188 562.000976562 188 540.000976562 c 0
 188 518.000976562 170 500.000976562 148 500.000976562 c 0
 141.536132812 500.000976562 135.41796875 501.5546875 130 504.306640625 c 1
 124.58203125 501.5546875 118.463867188 500.000976562 112 500.000976562 c 0
 105.536132812 500.000976562 99.41796875 501.5546875 94 504.306640625 c 1
 88.58203125 501.5546875 82.4638671875 500.000976562 76 500.000976562 c 0
 69.5361328125 500.000976562 63.41796875 501.5546875 58 504.306640625 c 1
 52.58203125 501.5546875 46.4638671875 500.000976562 40 500.000976562 c 0
 18 500.000976562 0 518.000976562 0 540.000976562 c 0
252 640.000976562 m 0
 252 662.000976562 270 680.000976562 292 680.000976562 c 0
 298.463867188 680.000976562 304.58203125 678.447265625 310 675.6953125 c 1
 315.41796875 678.447265625 321.536132812 680.000976562 328 680.000976562 c 0
 350 680.000976562 368 662.000976562 368 640.000976562 c 0
 368 618.000976562 350 600.000976562 328 600.000976562 c 0
 321.536132812 600.000976562 315.41796875 601.5546875 310 604.306640625 c 1
 304.58203125 601.5546875 298.463867188 600.000976562 292 600.000976562 c 0
 270 600.000976562 252 618.000976562 252 640.000976562 c 0
0 640.000976562 m 0
 0 662.000976562 18 680.000976562 40 680.000976562 c 0
 46.4638671875 680.000976562 52.58203125 678.447265625 58 675.6953125 c 1
 63.41796875 678.447265625 69.5361328125 680.000976562 76 680.000976562 c 0
 82.4638671875 680.000976562 88.58203125 678.447265625 94 675.6953125 c 1
 99.41796875 678.447265625 105.536132812 680.000976562 112 680.000976562 c 0
 118.463867188 680.000976562 124.58203125 678.447265625 130 675.6953125 c 1
 135.41796875 678.447265625 141.536132812 680.000976562 148 680.000976562 c 0
 170 680.000976562 188 662.000976562 188 640.000976562 c 0
 188 618.000976562 170 600.000976562 148 600.000976562 c 0
 141.536132812 600.000976562 135.41796875 601.5546875 130 604.306640625 c 1
 124.58203125 601.5546875 118.463867188 600.000976562 112 600.000976562 c 0
 105.536132812 600.000976562 99.41796875 601.5546875 94 604.306640625 c 1
 88.58203125 601.5546875 82.4638671875 600.000976562 76 600.000976562 c 0
 69.5361328125 600.000976562 63.41796875 601.5546875 58 604.306640625 c 1
 52.58203125 601.5546875 46.4638671875 600.000976562 40 600.000976562 c 0
 18 600.000976562 0 618.000976562 0 640.000976562 c 0
EndSplineSet
EndChar

StartChar: ampersand
Encoding: 38 38 7
Width: 432
GlyphClass: 2
Flags: MW
HStem: 0 80 100 80 200 80 300 80 400 80 500 80 600 80
LayerCount: 2
Fore
SplineSet
288 40 m 0
 288 62 306 80.0009765625 328 80.0009765625 c 0
 334.463867188 80.0009765625 340.58203125 78.447265625 346 75.6953125 c 1
 351.41796875 78.447265625 357.536132812 80.0009765625 364 80.0009765625 c 0
 386 80.0009765625 404 62.0009765625 404 40.0009765625 c 0
 404 18.0009765625 386 0.0009765625 364 0.0009765625 c 0
 357.536132812 0.0009765625 351.41796875 1.5546875 346 4.306640625 c 1
 340.58203125 1.5537109375 334.463867188 0 328 0 c 0
 306 0 288 18 288 40 c 0
72 40.0009765625 m 0
 72 62.0009765625 90 80.0009765625 112 80.0009765625 c 0
 118.463867188 80.0009765625 124.58203125 78.447265625 130 75.6953125 c 1
 135.41796875 78.447265625 141.536132812 80.0009765625 148 80.0009765625 c 0
 154.463867188 80.0009765625 160.58203125 78.447265625 166 75.6953125 c 1
 171.41796875 78.447265625 177.536132812 80.0009765625 184 80.0009765625 c 0
 190.463867188 80.0009765625 196.58203125 78.447265625 202 75.6953125 c 1
 207.41796875 78.447265625 213.536132812 80.0009765625 220 80.0009765625 c 0
 242 80.0009765625 260 62.0009765625 260 40.0009765625 c 0
 260 18.0009765625 242 0.0009765625 220 0.0009765625 c 0
 213.536132812 0.0009765625 207.41796875 1.5546875 202 4.306640625 c 1
 196.58203125 1.5546875 190.463867188 0.0009765625 184 0.0009765625 c 0
 177.536132812 0.0009765625 171.41796875 1.5546875 166 4.306640625 c 1
 160.58203125 1.5546875 154.463867188 0.0009765625 148 0.0009765625 c 0
 141.536132812 0.0009765625 135.41796875 1.5546875 130 4.306640625 c 1
 124.58203125 1.5546875 118.463867188 0.0009765625 112 0.0009765625 c 0
 90 0.0009765625 72 18.0009765625 72 40.0009765625 c 0
216 140.000976562 m 0
 216 162.000976562 234 180.000976562 256 180.000976562 c 0
 262.463867188 180.000976562 268.58203125 178.447265625 274 175.6953125 c 1
 279.41796875 178.447265625 285.536132812 180.000976562 292 180.000976562 c 0
 314 180.000976562 332 162.000976562 332 140.000976562 c 0
 332 118.000976562 314 100.000976562 292 100.000976562 c 0
 285.536132812 100.000976562 279.41796875 101.5546875 274 104.306640625 c 1
 268.58203125 101.5546875 262.463867188 100.000976562 256 100.000976562 c 0
 234 100.000976562 216 118.000976562 216 140.000976562 c 0
0 140.000976562 m 0
 0 162.000976562 18 180.000976562 40 180.000976562 c 0
 46.4638671875 180.000976562 52.58203125 178.447265625 58 175.6953125 c 1
 63.41796875 178.447265625 69.5361328125 180.000976562 76 180.000976562 c 0
 98 180.000976562 116 162.000976562 116 140.000976562 c 0
 116 118.000976562 98 100.000976562 76 100.000976562 c 0
 69.5361328125 100.000976562 63.41796875 101.5546875 58 104.306640625 c 1
 52.58203125 101.5546875 46.4638671875 100.000976562 40 100.000976562 c 0
 18 100.000976562 0 118.000976562 0 140.000976562 c 0
144 240.000976562 m 0
 144 262.000976562 162 280.000976562 184 280.000976562 c 0
 190.463867188 280.000976562 196.58203125 278.447265625 202 275.6953125 c 1
 207.41796875 278.447265625 213.536132812 280.000976562 220 280.000976562 c 0
 235.780273438 280.000976562 249.501953125 270.740234375 256 257.384765625 c 1
 262.498046875 270.740234375 276.219726562 280.000976562 292 280.000976562 c 0
 298.463867188 280.000976562 304.58203125 278.447265625 310 275.6953125 c 1
 315.41796875 278.447265625 321.536132812 280.000976562 328 280.000976562 c 0
 350 280.000976562 368 262.000976562 368 240.000976562 c 0
 368 218.000976562 350 200.000976562 328 200.000976562 c 0
 321.536132812 200.000976562 315.41796875 201.5546875 310 204.306640625 c 1
 304.58203125 201.5546875 298.463867188 200.000976562 292 200.000976562 c 0
 276.219726562 200.000976562 262.498046875 209.26171875 256 222.6171875 c 1
 249.501953125 209.26171875 235.780273438 200.000976562 220 200.000976562 c 0
 213.536132812 200.000976562 207.41796875 201.5546875 202 204.306640625 c 1
 196.58203125 201.5546875 190.463867188 200.000976562 184 200.000976562 c 0
 162 200.000976562 144 218.000976562 144 240.000976562 c 0
0 240.000976562 m 0
 0 262.000976562 18 280.000976562 40 280.000976562 c 0
 46.4638671875 280.000976562 52.58203125 278.447265625 58 275.6953125 c 1
 63.41796875 278.447265625 69.5361328125 280.000976562 76 280.000976562 c 0
 98 280.000976562 116 262.000976562 116 240.000976562 c 0
 116 218.000976562 98 200.000976562 76 200.000976562 c 0
 69.5361328125 200.000976562 63.41796875 201.5546875 58 204.306640625 c 1
 52.58203125 201.5546875 46.4638671875 200.000976562 40 200.000976562 c 0
 18 200.000976562 0 218.000976562 0 240.000976562 c 0
288 340.000976562 m 0
 288 362.000976562 306 380.000976562 328 380.000976562 c 0
 334.463867188 380.000976562 340.58203125 378.447265625 346 375.6953125 c 1
 351.41796875 378.447265625 357.536132812 380.000976562 364 380.000976562 c 0
 386 380.000976562 404 362.000976562 404 340.000976562 c 0
 404 318.000976562 386 300.000976562 364 300.000976562 c 0
 357.536132812 300.000976562 351.41796875 301.5546875 346 304.306640625 c 1
 340.58203125 301.5546875 334.463867188 300.000976562 328 300.000976562 c 0
 306 300.000976562 288 318.000976562 288 340.000976562 c 0
72 340.000976562 m 0
 72 362.000976562 90 380.000976562 112 380.000976562 c 0
 118.463867188 380.000976562 124.58203125 378.447265625 130 375.6953125 c 1
 135.41796875 378.447265625 141.536132812 380.000976562 148 380.000976562 c 0
 170 380.000976562 188 362.000976562 188 340.000976562 c 0
 188 318.000976562 170 300.000976562 148 300.000976562 c 0
 141.536132812 300.000976562 135.41796875 301.5546875 130 304.306640625 c 1
 124.58203125 301.5546875 118.463867188 300.000976562 112 300.000976562 c 0
 90 300.000976562 72 318.000976562 72 340.000976562 c 0
36 440.000976562 m 0
 36 462.000976562 54 480.000976562 76 480.000976562 c 0
 82.4638671875 480.000976562 88.58203125 478.447265625 94 475.6953125 c 1
 99.41796875 478.447265625 105.536132812 480.000976562 112 480.000976562 c 0
 118.463867188 480.000976562 124.58203125 478.447265625 130 475.6953125 c 1
 135.41796875 478.447265625 141.536132812 480.000976562 148 480.000976562 c 0
 154.463867188 480.000976562 160.58203125 478.447265625 166 475.6953125 c 1
 171.41796875 478.447265625 177.536132812 480.000976562 184 480.000976562 c 0
 206 480.000976562 224 462.000976562 224 440.000976562 c 0
 224 418.000976562 206 400.000976562 184 400.000976562 c 0
 177.536132812 400.000976562 171.41796875 401.5546875 166 404.306640625 c 1
 160.58203125 401.5546875 154.463867188 400.000976562 148 400.000976562 c 0
 141.536132812 400.000976562 135.41796875 401.5546875 130 404.306640625 c 1
 124.58203125 401.5546875 118.463867188 400.000976562 112 400.000976562 c 0
 105.536132812 400.000976562 99.41796875 401.5546875 94 404.306640625 c 1
 88.58203125 401.5546875 82.4638671875 400.000976562 76 400.000976562 c 0
 54 400.000976562 36 418.000976562 36 440.000976562 c 0
144 540.000976562 m 0
 144 562.000976562 162 580.000976562 184 580.000976562 c 0
 190.463867188 580.000976562 196.58203125 578.447265625 202 575.6953125 c 1
 207.41796875 578.447265625 213.536132812 580.000976562 220 580.000976562 c 0
 242 580.000976562 260 562.000976562 260 540.000976562 c 0
 260 518.000976562 242 500.000976562 220 500.000976562 c 0
 213.536132812 500.000976562 207.41796875 501.5546875 202 504.306640625 c 1
 196.58203125 501.5546875 190.463867188 500.000976562 184 500.000976562 c 0
 162 500.000976562 144 518.000976562 144 540.000976562 c 0
0 540.000976562 m 0
 0 562.000976562 18 580.000976562 40 580.000976562 c 0
 46.4638671875 580.000976562 52.58203125 578.447265625 58 575.6953125 c 1
 63.41796875 578.447265625 69.5361328125 580.000976562 76 580.000976562 c 0
 98 580.000976562 116 562.000976562 116 540.000976562 c 0
 116 518.000976562 98 500.000976562 76 500.000976562 c 0
 69.5361328125 500.000976562 63.41796875 501.5546875 58 504.306640625 c 1
 52.58203125 501.5546875 46.4638671875 500.000976562 40 500.000976562 c 0
 18 500.000976562 0 518.000976562 0 540.000976562 c 0
36 640.000976562 m 0
 36 662.000976562 54 680.000976562 76 680.000976562 c 0
 82.4638671875 680.000976562 88.58203125 678.447265625 94 675.6953125 c 1
 99.41796875 678.447265625 105.536132812 680.000976562 112 680.000976562 c 0
 118.463867188 680.000976562 124.58203125 678.447265625 130 675.6953125 c 1
 135.41796875 678.447265625 141.536132812 680.000976562 148 680.000976562 c 0
 154.463867188 680.000976562 160.58203125 678.447265625 166 675.6953125 c 1
 171.41796875 678.447265625 177.536132812 680.000976562 184 680.000976562 c 0
 206 680.000976562 224 662.000976562 224 640.000976562 c 0
 224 618.000976562 206 600.000976562 184 600.000976562 c 0
 177.536132812 600.000976562 171.41796875 601.5546875 166 604.306640625 c 1
 160.58203125 601.5546875 154.463867188 600.000976562 148 600.000976562 c 0
 141.536132812 600.000976562 135.41796875 601.5546875 130 604.306640625 c 1
 124.58203125 601.5546875 118.463867188 600.000976562 112 600.000976562 c 0
 105.536132812 600.000976562 99.41796875 601.5546875 94 604.306640625 c 1
 88.58203125 601.5546875 82.4638671875 600.000976562 76 600.000976562 c 0
 54 600.000976562 36 618.000976562 36 640.000976562 c 0
EndSplineSet
EndChar

StartChar: quotesingle
Encoding: 39 39 8
Width: 432
GlyphClass: 2
Flags: MW
HStem: 500 80 600 80
LayerCount: 2
Fore
SplineSet
144 540 m 0
 144 562 162 580.000976562 184 580.000976562 c 0
 190.463867188 580.000976562 196.58203125 578.447265625 202 575.6953125 c 1
 207.41796875 578.447265625 213.536132812 580.000976562 220 580.000976562 c 0
 242 580.000976562 260 562.000976562 260 540.000976562 c 0
 260 518.000976562 242 500.000976562 220 500.000976562 c 0
 213.536132812 500.000976562 207.41796875 501.5546875 202 504.306640625 c 1
 196.58203125 501.553710938 190.463867188 500 184 500 c 0
 162 500 144 518 144 540 c 0
180 640.000976562 m 0
 180 662.000976562 198 680.000976562 220 680.000976562 c 0
 226.463867188 680.000976562 232.58203125 678.447265625 238 675.6953125 c 1
 243.41796875 678.447265625 249.536132812 680.000976562 256 680.000976562 c 0
 278 680.000976562 296 662.000976562 296 640.000976562 c 0
 296 618.000976562 278 600.000976562 256 600.000976562 c 0
 249.536132812 600.000976562 243.41796875 601.5546875 238 604.306640625 c 1
 232.58203125 601.5546875 226.463867188 600.000976562 220 600.000976562 c 0
 198 600.000976562 180 618.000976562 180 640.000976562 c 0
EndSplineSet
EndChar

StartChar: parenleft
Encoding: 40 40 9
Width: 432
GlyphClass: 2
Flags: MW
HStem: 0 80 100 80 200 80 300 80 400 80 500 80 600 80
LayerCount: 2
Fore
SplineSet
216 40 m 0
 216 62 234 80.0009765625 256 80.0009765625 c 0
 262.463867188 80.0009765625 268.58203125 78.447265625 274 75.6953125 c 1
 279.41796875 78.447265625 285.536132812 80.0009765625 292 80.0009765625 c 0
 314 80.0009765625 332 62.0009765625 332 40.0009765625 c 0
 332 18.0009765625 314 0.0009765625 292 0.0009765625 c 0
 285.536132812 0.0009765625 279.41796875 1.5546875 274 4.306640625 c 1
 268.58203125 1.5537109375 262.463867188 0 256 0 c 0
 234 0 216 18 216 40 c 0
180 140.000976562 m 0
 180 162.000976562 198 180.000976562 220 180.000976562 c 0
 226.463867188 180.000976562 232.58203125 178.447265625 238 175.6953125 c 1
 243.41796875 178.447265625 249.536132812 180.000976562 256 180.000976562 c 0
 278 180.000976562 296 162.000976562 296 140.000976562 c 0
 296 118.000976562 278 100.000976562 256 100.000976562 c 0
 249.536132812 100.000976562 243.41796875 101.5546875 238 104.306640625 c 1
 232.58203125 101.5546875 226.463867188 100.000976562 220 100.000976562 c 0
 198 100.000976562 180 118.000976562 180 140.000976562 c 0
144 240.000976562 m 0
 144 262.000976562 162 280.000976562 184 280.000976562 c 0
 190.463867188 280.000976562 196.58203125 278.447265625 202 275.6953125 c 1
 207.41796875 278.447265625 213.536132812 280.000976562 220 280.000976562 c 0
 242 280.000976562 260 262.000976562 260 240.000976562 c 0
 260 218.000976562 242 200.000976562 220 200.000976562 c 0
 213.536132812 200.000976562 207.41796875 201.5546875 202 204.306640625 c 1
 196.58203125 201.5546875 190.463867188 200.000976562 184 200.000976562 c 0
 162 200.000976562 144 218.000976562 144 240.000976562 c 0
144 340.000976562 m 0
 144 362.000976562 162 380.000976562 184 380.000976562 c 0
 190.463867188 380.000976562 196.58203125 378.447265625 202 375.6953125 c 1
 207.41796875 378.447265625 213.536132812 380.000976562 220 380.000976562 c 0
 242 380.000976562 260 362.000976562 260 340.000976562 c 0
 260 318.000976562 242 300.000976562 220 300.000976562 c 0
 213.536132812 300.000976562 207.41796875 301.5546875 202 304.306640625 c 1
 196.58203125 301.5546875 190.463867188 300.000976562 184 300.000976562 c 0
 162 300.000976562 144 318.000976562 144 340.000976562 c 0
144 440.000976562 m 0
 144 462.000976562 162 480.000976562 184 480.000976562 c 0
 190.463867188 480.000976562 196.58203125 478.447265625 202 475.6953125 c 1
 207.41796875 478.447265625 213.536132812 480.000976562 220 480.000976562 c 0
 242 480.000976562 260 462.000976562 260 440.000976562 c 0
 260 418.000976562 242 400.000976562 220 400.000976562 c 0
 213.536132812 400.000976562 207.41796875 401.5546875 202 404.306640625 c 1
 196.58203125 401.5546875 190.463867188 400.000976562 184 400.000976562 c 0
 162 400.000976562 144 418.000976562 144 440.000976562 c 0
180 540.000976562 m 0
 180 562.000976562 198 580.000976562 220 580.000976562 c 0
 226.463867188 580.000976562 232.58203125 578.447265625 238 575.6953125 c 1
 243.41796875 578.447265625 249.536132812 580.000976562 256 580.000976562 c 0
 278 580.000976562 296 562.000976562 296 540.000976562 c 0
 296 518.000976562 278 500.000976562 256 500.000976562 c 0
 249.536132812 500.000976562 243.41796875 501.5546875 238 504.306640625 c 1
 232.58203125 501.5546875 226.463867188 500.000976562 220 500.000976562 c 0
 198 500.000976562 180 518.000976562 180 540.000976562 c 0
216 640.000976562 m 0
 216 662.000976562 234 680.000976562 256 680.000976562 c 0
 262.463867188 680.000976562 268.58203125 678.447265625 274 675.6953125 c 1
 279.41796875 678.447265625 285.536132812 680.000976562 292 680.000976562 c 0
 314 680.000976562 332 662.000976562 332 640.000976562 c 0
 332 618.000976562 314 600.000976562 292 600.000976562 c 0
 285.536132812 600.000976562 279.41796875 601.5546875 274 604.306640625 c 1
 268.58203125 601.5546875 262.463867188 600.000976562 256 600.000976562 c 0
 234 600.000976562 216 618.000976562 216 640.000976562 c 0
EndSplineSet
EndChar

StartChar: parenright
Encoding: 41 41 10
Width: 432
GlyphClass: 2
Flags: MW
HStem: 0 80 100 80 200 80 300 80 400 80 500 80 600 80
LayerCount: 2
Fore
SplineSet
72 40 m 0
 72 62 90 80.0009765625 112 80.0009765625 c 0
 118.463867188 80.0009765625 124.58203125 78.447265625 130 75.6953125 c 1
 135.41796875 78.447265625 141.536132812 80.0009765625 148 80.0009765625 c 0
 170 80.0009765625 188 62.0009765625 188 40.0009765625 c 0
 188 18.0009765625 170 0.0009765625 148 0.0009765625 c 0
 141.536132812 0.0009765625 135.41796875 1.5546875 130 4.306640625 c 1
 124.58203125 1.5537109375 118.463867188 0 112 0 c 0
 90 0 72 18 72 40 c 0
108 140.000976562 m 0
 108 162.000976562 126 180.000976562 148 180.000976562 c 0
 154.463867188 180.000976562 160.58203125 178.447265625 166 175.6953125 c 1
 171.41796875 178.447265625 177.536132812 180.000976562 184 180.000976562 c 0
 206 180.000976562 224 162.000976562 224 140.000976562 c 0
 224 118.000976562 206 100.000976562 184 100.000976562 c 0
 177.536132812 100.000976562 171.41796875 101.5546875 166 104.306640625 c 1
 160.58203125 101.5546875 154.463867188 100.000976562 148 100.000976562 c 0
 126 100.000976562 108 118.000976562 108 140.000976562 c 0
144 240.000976562 m 0
 144 262.000976562 162 280.000976562 184 280.000976562 c 0
 190.463867188 280.000976562 196.58203125 278.447265625 202 275.6953125 c 1
 207.41796875 278.447265625 213.536132812 280.000976562 220 280.000976562 c 0
 242 280.000976562 260 262.000976562 260 240.000976562 c 0
 260 218.000976562 242 200.000976562 220 200.000976562 c 0
 213.536132812 200.000976562 207.41796875 201.5546875 202 204.306640625 c 1
 196.58203125 201.5546875 190.463867188 200.000976562 184 200.000976562 c 0
 162 200.000976562 144 218.000976562 144 240.000976562 c 0
144 340.000976562 m 0
 144 362.000976562 162 380.000976562 184 380.000976562 c 0
 190.463867188 380.000976562 196.58203125 378.447265625 202 375.6953125 c 1
 207.41796875 378.447265625 213.536132812 380.000976562 220 380.000976562 c 0
 242 380.000976562 260 362.000976562 260 340.000976562 c 0
 260 318.000976562 242 300.000976562 220 300.000976562 c 0
 213.536132812 300.000976562 207.41796875 301.5546875 202 304.306640625 c 1
 196.58203125 301.5546875 190.463867188 300.000976562 184 300.000976562 c 0
 162 300.000976562 144 318.000976562 144 340.000976562 c 0
144 440.000976562 m 0
 144 462.000976562 162 480.000976562 184 480.000976562 c 0
 190.463867188 480.000976562 196.58203125 478.447265625 202 475.6953125 c 1
 207.41796875 478.447265625 213.536132812 480.000976562 220 480.000976562 c 0
 242 480.000976562 260 462.000976562 260 440.000976562 c 0
 260 418.000976562 242 400.000976562 220 400.000976562 c 0
 213.536132812 400.000976562 207.41796875 401.5546875 202 404.306640625 c 1
 196.58203125 401.5546875 190.463867188 400.000976562 184 400.000976562 c 0
 162 400.000976562 144 418.000976562 144 440.000976562 c 0
108 540.000976562 m 0
 108 562.000976562 126 580.000976562 148 580.000976562 c 0
 154.463867188 580.000976562 160.58203125 578.447265625 166 575.6953125 c 1
 171.41796875 578.447265625 177.536132812 580.000976562 184 580.000976562 c 0
 206 580.000976562 224 562.000976562 224 540.000976562 c 0
 224 518.000976562 206 500.000976562 184 500.000976562 c 0
 177.536132812 500.000976562 171.41796875 501.5546875 166 504.306640625 c 1
 160.58203125 501.5546875 154.463867188 500.000976562 148 500.000976562 c 0
 126 500.000976562 108 518.000976562 108 540.000976562 c 0
72 640.000976562 m 0
 72 662.000976562 90 680.000976562 112 680.000976562 c 0
 118.463867188 680.000976562 124.58203125 678.447265625 130 675.6953125 c 1
 135.41796875 678.447265625 141.536132812 680.000976562 148 680.000976562 c 0
 170 680.000976562 188 662.000976562 188 640.000976562 c 0
 188 618.000976562 170 600.000976562 148 600.000976562 c 0
 141.536132812 600.000976562 135.41796875 601.5546875 130 604.306640625 c 1
 124.58203125 601.5546875 118.463867188 600.000976562 112 600.000976562 c 0
 90 600.000976562 72 618.000976562 72 640.000976562 c 0
EndSplineSet
EndChar

StartChar: asterisk
Encoding: 42 42 11
Width: 432
GlyphClass: 2
Flags: MW
HStem: 100 80 200 80 300 80 400 80 500 80
LayerCount: 2
Fore
SplineSet
216 140 m 0
 216 162 234 180.000976562 256 180.000976562 c 0
 262.463867188 180.000976562 268.58203125 178.447265625 274 175.6953125 c 1
 279.41796875 178.447265625 285.536132812 180.000976562 292 180.000976562 c 0
 314 180.000976562 332 162.000976562 332 140.000976562 c 0
 332 118.000976562 314 100.000976562 292 100.000976562 c 0
 285.536132812 100.000976562 279.41796875 101.5546875 274 104.306640625 c 1
 268.58203125 101.553710938 262.463867188 100 256 100 c 0
 234 100 216 118 216 140 c 0
72 140.000976562 m 0
 72 162.000976562 90 180.000976562 112 180.000976562 c 0
 118.463867188 180.000976562 124.58203125 178.447265625 130 175.6953125 c 1
 135.41796875 178.447265625 141.536132812 180.000976562 148 180.000976562 c 0
 170 180.000976562 188 162.000976562 188 140.000976562 c 0
 188 118.000976562 170 100.000976562 148 100.000976562 c 0
 141.536132812 100.000976562 135.41796875 101.5546875 130 104.306640625 c 1
 124.58203125 101.5546875 118.463867188 100.000976562 112 100.000976562 c 0
 90 100.000976562 72 118.000976562 72 140.000976562 c 0
108 240.000976562 m 0
 108 262.000976562 126 280.000976562 148 280.000976562 c 0
 154.463867188 280.000976562 160.58203125 278.447265625 166 275.6953125 c 1
 171.41796875 278.447265625 177.536132812 280.000976562 184 280.000976562 c 0
 190.463867188 280.000976562 196.58203125 278.447265625 202 275.6953125 c 1
 207.41796875 278.447265625 213.536132812 280.000976562 220 280.000976562 c 0
 226.463867188 280.000976562 232.58203125 278.447265625 238 275.6953125 c 1
 243.41796875 278.447265625 249.536132812 280.000976562 256 280.000976562 c 0
 278 280.000976562 296 262.000976562 296 240.000976562 c 0
 296 218.000976562 278 200.000976562 256 200.000976562 c 0
 249.536132812 200.000976562 243.41796875 201.5546875 238 204.306640625 c 1
 232.58203125 201.5546875 226.463867188 200.000976562 220 200.000976562 c 0
 213.536132812 200.000976562 207.41796875 201.5546875 202 204.306640625 c 1
 196.58203125 201.5546875 190.463867188 200.000976562 184 200.000976562 c 0
 177.536132812 200.000976562 171.41796875 201.5546875 166 204.306640625 c 1
 160.58203125 201.5546875 154.463867188 200.000976562 148 200.000976562 c 0
 126 200.000976562 108 218.000976562 108 240.000976562 c 0
0 340.000976562 m 0
 0 362.000976562 18 380.000976562 40 380.000976562 c 0
 46.4638671875 380.000976562 52.58203125 378.447265625 58 375.6953125 c 1
 63.41796875 378.447265625 69.5361328125 380.000976562 76 380.000976562 c 0
 82.4638671875 380.000976562 88.58203125 378.447265625 94 375.6953125 c 1
 99.41796875 378.447265625 105.536132812 380.000976562 112 380.000976562 c 0
 118.463867188 380.000976562 124.58203125 378.447265625 130 375.6953125 c 1
 135.41796875 378.447265625 141.536132812 380.000976562 148 380.000976562 c 0
 154.463867188 380.000976562 160.58203125 378.447265625 166 375.6953125 c 1
 171.41796875 378.447265625 177.536132812 380.000976562 184 380.000976562 c 0
 190.463867188 380.000976562 196.58203125 378.447265625 202 375.6953125 c 1
 207.41796875 378.447265625 213.536132812 380.000976562 220 380.000976562 c 0
 226.463867188 380.000976562 232.58203125 378.447265625 238 375.6953125 c 1
 243.41796875 378.447265625 249.536132812 380.000976562 256 380.000976562 c 0
 262.463867188 380.000976562 268.58203125 378.447265625 274 375.6953125 c 1
 279.41796875 378.447265625 285.536132812 380.000976562 292 380.000976562 c 0
 298.463867188 380.000976562 304.58203125 378.447265625 310 375.6953125 c 1
 315.41796875 378.447265625 321.536132812 380.000976562 328 380.000976562 c 0
 334.463867188 380.000976562 340.58203125 378.447265625 346 375.6953125 c 1
 351.41796875 378.447265625 357.536132812 380.000976562 364 380.000976562 c 0
 386 380.000976562 404 362.000976562 404 340.000976562 c 0
 404 318.000976562 386 300.000976562 364 300.000976562 c 0
 357.536132812 300.000976562 351.41796875 301.5546875 346 304.306640625 c 1
 340.58203125 301.5546875 334.463867188 300.000976562 328 300.000976562 c 0
 321.536132812 300.000976562 315.41796875 301.5546875 310 304.306640625 c 1
 304.58203125 301.5546875 298.463867188 300.000976562 292 300.000976562 c 0
 285.536132812 300.000976562 279.41796875 301.5546875 274 304.306640625 c 1
 268.58203125 301.5546875 262.463867188 300.000976562 256 300.000976562 c 0
 249.536132812 300.000976562 243.41796875 301.5546875 238 304.306640625 c 1
 232.58203125 301.5546875 226.463867188 300.000976562 220 300.000976562 c 0
 213.536132812 300.000976562 207.41796875 301.5546875 202 304.306640625 c 1
 196.58203125 301.5546875 190.463867188 300.000976562 184 300.000976562 c 0
 177.536132812 300.000976562 171.41796875 301.5546875 166 304.306640625 c 1
 160.58203125 301.5546875 154.463867188 300.000976562 148 300.000976562 c 0
 141.536132812 300.000976562 135.41796875 301.5546875 130 304.306640625 c 1
 124.58203125 301.5546875 118.463867188 300.000976562 112 300.000976562 c 0
 105.536132812 300.000976562 99.41796875 301.5546875 94 304.306640625 c 1
 88.58203125 301.5546875 82.4638671875 300.000976562 76 300.000976562 c 0
 69.5361328125 300.000976562 63.41796875 301.5546875 58 304.306640625 c 1
 52.58203125 301.5546875 46.4638671875 300.000976562 40 300.000976562 c 0
 18 300.000976562 0 318.000976562 0 340.000976562 c 0
108 440.000976562 m 0
 108 462.000976562 126 480.000976562 148 480.000976562 c 0
 154.463867188 480.000976562 160.58203125 478.447265625 166 475.6953125 c 1
 171.41796875 478.447265625 177.536132812 480.000976562 184 480.000976562 c 0
 190.463867188 480.000976562 196.58203125 478.447265625 202 475.6953125 c 1
 207.41796875 478.447265625 213.536132812 480.000976562 220 480.000976562 c 0
 226.463867188 480.000976562 232.58203125 478.447265625 238 475.6953125 c 1
 243.41796875 478.447265625 249.536132812 480.000976562 256 480.000976562 c 0
 278 480.000976562 296 462.000976562 296 440.000976562 c 0
 296 418.000976562 278 400.000976562 256 400.000976562 c 0
 249.536132812 400.000976562 243.41796875 401.5546875 238 404.306640625 c 1
 232.58203125 401.5546875 226.463867188 400.000976562 220 400.000976562 c 0
 213.536132812 400.000976562 207.41796875 401.5546875 202 404.306640625 c 1
 196.58203125 401.5546875 190.463867188 400.000976562 184 400.000976562 c 0
 177.536132812 400.000976562 171.41796875 401.5546875 166 404.306640625 c 1
 160.58203125 401.5546875 154.463867188 400.000976562 148 400.000976562 c 0
 126 400.000976562 108 418.000976562 108 440.000976562 c 0
216 540.000976562 m 0
 216 562.000976562 234 580.000976562 256 580.000976562 c 0
 262.463867188 580.000976562 268.58203125 578.447265625 274 575.6953125 c 1
 279.41796875 578.447265625 285.536132812 580.000976562 292 580.000976562 c 0
 314 580.000976562 332 562.000976562 332 540.000976562 c 0
 332 518.000976562 314 500.000976562 292 500.000976562 c 0
 285.536132812 500.000976562 279.41796875 501.5546875 274 504.306640625 c 1
 268.58203125 501.5546875 262.463867188 500.000976562 256 500.000976562 c 0
 234 500.000976562 216 518.000976562 216 540.000976562 c 0
72 540.000976562 m 0
 72 562.000976562 90 580.000976562 112 580.000976562 c 0
 118.463867188 580.000976562 124.58203125 578.447265625 130 575.6953125 c 1
 135.41796875 578.447265625 141.536132812 580.000976562 148 580.000976562 c 0
 170 580.000976562 188 562.000976562 188 540.000976562 c 0
 188 518.000976562 170 500.000976562 148 500.000976562 c 0
 141.536132812 500.000976562 135.41796875 501.5546875 130 504.306640625 c 1
 124.58203125 501.5546875 118.463867188 500.000976562 112 500.000976562 c 0
 90 500.000976562 72 518.000976562 72 540.000976562 c 0
EndSplineSet
EndChar

StartChar: plus
Encoding: 43 43 12
Width: 432
GlyphClass: 2
Flags: MW
HStem: 100 80 200 80 300 80 400 80 500 80
LayerCount: 2
Fore
SplineSet
144 140 m 0
 144 162 162 180.000976562 184 180.000976562 c 0
 190.463867188 180.000976562 196.58203125 178.447265625 202 175.6953125 c 1
 207.41796875 178.447265625 213.536132812 180.000976562 220 180.000976562 c 0
 242 180.000976562 260 162.000976562 260 140.000976562 c 0
 260 118.000976562 242 100.000976562 220 100.000976562 c 0
 213.536132812 100.000976562 207.41796875 101.5546875 202 104.306640625 c 1
 196.58203125 101.553710938 190.463867188 100 184 100 c 0
 162 100 144 118 144 140 c 0
144 240.000976562 m 0
 144 262.000976562 162 280.000976562 184 280.000976562 c 0
 190.463867188 280.000976562 196.58203125 278.447265625 202 275.6953125 c 1
 207.41796875 278.447265625 213.536132812 280.000976562 220 280.000976562 c 0
 242 280.000976562 260 262.000976562 260 240.000976562 c 0
 260 218.000976562 242 200.000976562 220 200.000976562 c 0
 213.536132812 200.000976562 207.41796875 201.5546875 202 204.306640625 c 1
 196.58203125 201.5546875 190.463867188 200.000976562 184 200.000976562 c 0
 162 200.000976562 144 218.000976562 144 240.000976562 c 0
0 340.000976562 m 0
 0 362.000976562 18 380.000976562 40 380.000976562 c 0
 46.4638671875 380.000976562 52.58203125 378.447265625 58 375.6953125 c 1
 63.41796875 378.447265625 69.5361328125 380.000976562 76 380.000976562 c 0
 82.4638671875 380.000976562 88.58203125 378.447265625 94 375.6953125 c 1
 99.41796875 378.447265625 105.536132812 380.000976562 112 380.000976562 c 0
 118.463867188 380.000976562 124.58203125 378.447265625 130 375.6953125 c 1
 135.41796875 378.447265625 141.536132812 380.000976562 148 380.000976562 c 0
 154.463867188 380.000976562 160.58203125 378.447265625 166 375.6953125 c 1
 171.41796875 378.447265625 177.536132812 380.000976562 184 380.000976562 c 0
 190.463867188 380.000976562 196.58203125 378.447265625 202 375.6953125 c 1
 207.41796875 378.447265625 213.536132812 380.000976562 220 380.000976562 c 0
 226.463867188 380.000976562 232.58203125 378.447265625 238 375.6953125 c 1
 243.41796875 378.447265625 249.536132812 380.000976562 256 380.000976562 c 0
 262.463867188 380.000976562 268.58203125 378.447265625 274 375.6953125 c 1
 279.41796875 378.447265625 285.536132812 380.000976562 292 380.000976562 c 0
 298.463867188 380.000976562 304.58203125 378.447265625 310 375.6953125 c 1
 315.41796875 378.447265625 321.536132812 380.000976562 328 380.000976562 c 0
 334.463867188 380.000976562 340.58203125 378.447265625 346 375.6953125 c 1
 351.41796875 378.447265625 357.536132812 380.000976562 364 380.000976562 c 0
 386 380.000976562 404 362.000976562 404 340.000976562 c 0
 404 318.000976562 386 300.000976562 364 300.000976562 c 0
 357.536132812 300.000976562 351.41796875 301.5546875 346 304.306640625 c 1
 340.58203125 301.5546875 334.463867188 300.000976562 328 300.000976562 c 0
 321.536132812 300.000976562 315.41796875 301.5546875 310 304.306640625 c 1
 304.58203125 301.5546875 298.463867188 300.000976562 292 300.000976562 c 0
 285.536132812 300.000976562 279.41796875 301.5546875 274 304.306640625 c 1
 268.58203125 301.5546875 262.463867188 300.000976562 256 300.000976562 c 0
 249.536132812 300.000976562 243.41796875 301.5546875 238 304.306640625 c 1
 232.58203125 301.5546875 226.463867188 300.000976562 220 300.000976562 c 0
 213.536132812 300.000976562 207.41796875 301.5546875 202 304.306640625 c 1
 196.58203125 301.5546875 190.463867188 300.000976562 184 300.000976562 c 0
 177.536132812 300.000976562 171.41796875 301.5546875 166 304.306640625 c 1
 160.58203125 301.5546875 154.463867188 300.000976562 148 300.000976562 c 0
 141.536132812 300.000976562 135.41796875 301.5546875 130 304.306640625 c 1
 124.58203125 301.5546875 118.463867188 300.000976562 112 300.000976562 c 0
 105.536132812 300.000976562 99.41796875 301.5546875 94 304.306640625 c 1
 88.58203125 301.5546875 82.4638671875 300.000976562 76 300.000976562 c 0
 69.5361328125 300.000976562 63.41796875 301.5546875 58 304.306640625 c 1
 52.58203125 301.5546875 46.4638671875 300.000976562 40 300.000976562 c 0
 18 300.000976562 0 318.000976562 0 340.000976562 c 0
144 440.000976562 m 0
 144 462.000976562 162 480.000976562 184 480.000976562 c 0
 190.463867188 480.000976562 196.58203125 478.447265625 202 475.6953125 c 1
 207.41796875 478.447265625 213.536132812 480.000976562 220 480.000976562 c 0
 242 480.000976562 260 462.000976562 260 440.000976562 c 0
 260 418.000976562 242 400.000976562 220 400.000976562 c 0
 213.536132812 400.000976562 207.41796875 401.5546875 202 404.306640625 c 1
 196.58203125 401.5546875 190.463867188 400.000976562 184 400.000976562 c 0
 162 400.000976562 144 418.000976562 144 440.000976562 c 0
144 540.000976562 m 0
 144 562.000976562 162 580.000976562 184 580.000976562 c 0
 190.463867188 580.000976562 196.58203125 578.447265625 202 575.6953125 c 1
 207.41796875 578.447265625 213.536132812 580.000976562 220 580.000976562 c 0
 242 580.000976562 260 562.000976562 260 540.000976562 c 0
 260 518.000976562 242 500.000976562 220 500.000976562 c 0
 213.536132812 500.000976562 207.41796875 501.5546875 202 504.306640625 c 1
 196.58203125 501.5546875 190.463867188 500.000976562 184 500.000976562 c 0
 162 500.000976562 144 518.000976562 144 540.000976562 c 0
EndSplineSet
EndChar

StartChar: comma
Encoding: 44 44 13
Width: 432
GlyphClass: 2
Flags: MW
HStem: -200 80 -100 80 0 80 100 80
LayerCount: 2
Fore
SplineSet
144 -160 m 0
 144 -138 162 -119.999023438 184 -119.999023438 c 0
 190.463867188 -119.999023438 196.58203125 -121.552734375 202 -124.3046875 c 1
 207.41796875 -121.552734375 213.536132812 -119.999023438 220 -119.999023438 c 0
 242 -119.999023438 260 -137.999023438 260 -159.999023438 c 0
 260 -181.999023438 242 -199.999023438 220 -199.999023438 c 0
 213.536132812 -199.999023438 207.41796875 -198.4453125 202 -195.693359375 c 1
 196.58203125 -198.446289062 190.463867188 -200 184 -200 c 0
 162 -200 144 -182 144 -160 c 0
180 -59.9990234375 m 0
 180 -37.9990234375 198 -19.9990234375 220 -19.9990234375 c 0
 226.463867188 -19.9990234375 232.58203125 -21.552734375 238 -24.3046875 c 1
 243.41796875 -21.552734375 249.536132812 -19.9990234375 256 -19.9990234375 c 0
 278 -19.9990234375 296 -37.9990234375 296 -59.9990234375 c 0
 296 -81.9990234375 278 -99.9990234375 256 -99.9990234375 c 0
 249.536132812 -99.9990234375 243.41796875 -98.4453125 238 -95.693359375 c 1
 232.58203125 -98.4453125 226.463867188 -99.9990234375 220 -99.9990234375 c 0
 198 -99.9990234375 180 -81.9990234375 180 -59.9990234375 c 0
108 40.0009765625 m 0
 108 62.0009765625 126 80.0009765625 148 80.0009765625 c 0
 154.463867188 80.0009765625 160.58203125 78.447265625 166 75.6953125 c 1
 171.41796875 78.447265625 177.536132812 80.0009765625 184 80.0009765625 c 0
 190.463867188 80.0009765625 196.58203125 78.447265625 202 75.6953125 c 1
 207.41796875 78.447265625 213.536132812 80.0009765625 220 80.0009765625 c 0
 226.463867188 80.0009765625 232.58203125 78.447265625 238 75.6953125 c 1
 243.41796875 78.447265625 249.536132812 80.0009765625 256 80.0009765625 c 0
 278 80.0009765625 296 62.0009765625 296 40.0009765625 c 0
 296 18.0009765625 278 0.0009765625 256 0.0009765625 c 0
 249.536132812 0.0009765625 243.41796875 1.5546875 238 4.306640625 c 1
 232.58203125 1.5546875 226.463867188 0.0009765625 220 0.0009765625 c 0
 213.536132812 0.0009765625 207.41796875 1.5546875 202 4.306640625 c 1
 196.58203125 1.5546875 190.463867188 0.0009765625 184 0.0009765625 c 0
 177.536132812 0.0009765625 171.41796875 1.5546875 166 4.306640625 c 1
 160.58203125 1.5546875 154.463867188 0.0009765625 148 0.0009765625 c 0
 126 0.0009765625 108 18.0009765625 108 40.0009765625 c 0
108 140.000976562 m 0
 108 162.000976562 126 180.000976562 148 180.000976562 c 0
 154.463867188 180.000976562 160.58203125 178.447265625 166 175.6953125 c 1
 171.41796875 178.447265625 177.536132812 180.000976562 184 180.000976562 c 0
 190.463867188 180.000976562 196.58203125 178.447265625 202 175.6953125 c 1
 207.41796875 178.447265625 213.536132812 180.000976562 220 180.000976562 c 0
 226.463867188 180.000976562 232.58203125 178.447265625 238 175.6953125 c 1
 243.41796875 178.447265625 249.536132812 180.000976562 256 180.000976562 c 0
 278 180.000976562 296 162.000976562 296 140.000976562 c 0
 296 118.000976562 278 100.000976562 256 100.000976562 c 0
 249.536132812 100.000976562 243.41796875 101.5546875 238 104.306640625 c 1
 232.58203125 101.5546875 226.463867188 100.000976562 220 100.000976562 c 0
 213.536132812 100.000976562 207.41796875 101.5546875 202 104.306640625 c 1
 196.58203125 101.5546875 190.463867188 100.000976562 184 100.000976562 c 0
 177.536132812 100.000976562 171.41796875 101.5546875 166 104.306640625 c 1
 160.58203125 101.5546875 154.463867188 100.000976562 148 100.000976562 c 0
 126 100.000976562 108 118.000976562 108 140.000976562 c 0
EndSplineSet
EndChar

StartChar: hyphen
Encoding: 45 45 14
Width: 432
GlyphClass: 2
Flags: MW
HStem: 300 80
LayerCount: 2
Fore
SplineSet
0 340 m 0
 0 362 18 380.000976562 40 380.000976562 c 0
 46.4638671875 380.000976562 52.58203125 378.447265625 58 375.6953125 c 1
 63.41796875 378.447265625 69.5361328125 380.000976562 76 380.000976562 c 0
 82.4638671875 380.000976562 88.58203125 378.447265625 94 375.6953125 c 1
 99.41796875 378.447265625 105.536132812 380.000976562 112 380.000976562 c 0
 118.463867188 380.000976562 124.58203125 378.447265625 130 375.6953125 c 1
 135.41796875 378.447265625 141.536132812 380.000976562 148 380.000976562 c 0
 154.463867188 380.000976562 160.58203125 378.447265625 166 375.6953125 c 1
 171.41796875 378.447265625 177.536132812 380.000976562 184 380.000976562 c 0
 190.463867188 380.000976562 196.58203125 378.447265625 202 375.6953125 c 1
 207.41796875 378.447265625 213.536132812 380.000976562 220 380.000976562 c 0
 226.463867188 380.000976562 232.58203125 378.447265625 238 375.6953125 c 1
 243.41796875 378.447265625 249.536132812 380.000976562 256 380.000976562 c 0
 262.463867188 380.000976562 268.58203125 378.447265625 274 375.6953125 c 1
 279.41796875 378.447265625 285.536132812 380.000976562 292 380.000976562 c 0
 298.463867188 380.000976562 304.58203125 378.447265625 310 375.6953125 c 1
 315.41796875 378.447265625 321.536132812 380.000976562 328 380.000976562 c 0
 334.463867188 380.000976562 340.58203125 378.447265625 346 375.6953125 c 1
 351.41796875 378.447265625 357.536132812 380.000976562 364 380.000976562 c 0
 386 380.000976562 404 362.000976562 404 340.000976562 c 0
 404 318.000976562 386 300.000976562 364 300.000976562 c 0
 357.536132812 300.000976562 351.41796875 301.5546875 346 304.306640625 c 1
 340.58203125 301.5546875 334.463867188 300.000976562 328 300.000976562 c 0
 321.536132812 300.000976562 315.41796875 301.5546875 310 304.306640625 c 1
 304.58203125 301.5546875 298.463867188 300.000976562 292 300.000976562 c 0
 285.536132812 300.000976562 279.41796875 301.5546875 274 304.306640625 c 1
 268.58203125 301.5546875 262.463867188 300.000976562 256 300.000976562 c 0
 249.536132812 300.000976562 243.41796875 301.5546875 238 304.306640625 c 1
 232.58203125 301.5546875 226.463867188 300.000976562 220 300.000976562 c 0
 213.536132812 300.000976562 207.41796875 301.5546875 202 304.306640625 c 1
 196.58203125 301.5546875 190.463867188 300.000976562 184 300.000976562 c 0
 177.536132812 300.000976562 171.41796875 301.5546875 166 304.306640625 c 1
 160.58203125 301.5546875 154.463867188 300.000976562 148 300.000976562 c 0
 141.536132812 300.000976562 135.41796875 301.5546875 130 304.306640625 c 1
 124.58203125 301.5546875 118.463867188 300.000976562 112 300.000976562 c 0
 105.536132812 300.000976562 99.41796875 301.5546875 94 304.306640625 c 1
 88.58203125 301.5546875 82.4638671875 300.000976562 76 300.000976562 c 0
 69.5361328125 300.000976562 63.41796875 301.5546875 58 304.306640625 c 1
 52.58203125 301.553710938 46.4638671875 300 40 300 c 0
 18 300 0 318 0 340 c 0
EndSplineSet
EndChar

StartChar: period
Encoding: 46 46 15
Width: 432
GlyphClass: 2
Flags: MW
HStem: 0 80 100 80
LayerCount: 2
Fore
SplineSet
72 40 m 0
 72 62 90 80.0009765625 112 80.0009765625 c 0
 118.463867188 80.0009765625 124.58203125 78.447265625 130 75.6953125 c 1
 135.41796875 78.447265625 141.536132812 80.0009765625 148 80.0009765625 c 0
 154.463867188 80.0009765625 160.58203125 78.447265625 166 75.6953125 c 1
 171.41796875 78.447265625 177.536132812 80.0009765625 184 80.0009765625 c 0
 190.463867188 80.0009765625 196.58203125 78.447265625 202 75.6953125 c 1
 207.41796875 78.447265625 213.536132812 80.0009765625 220 80.0009765625 c 0
 242 80.0009765625 260 62.0009765625 260 40.0009765625 c 0
 260 18.0009765625 242 0.0009765625 220 0.0009765625 c 0
 213.536132812 0.0009765625 207.41796875 1.5546875 202 4.306640625 c 1
 196.58203125 1.5546875 190.463867188 0.0009765625 184 0.0009765625 c 0
 177.536132812 0.0009765625 171.41796875 1.5546875 166 4.306640625 c 1
 160.58203125 1.5546875 154.463867188 0.0009765625 148 0.0009765625 c 0
 141.536132812 0.0009765625 135.41796875 1.5546875 130 4.306640625 c 1
 124.58203125 1.5537109375 118.463867188 0 112 0 c 0
 90 0 72 18 72 40 c 0
72 140.000976562 m 0
 72 162.000976562 90 180.000976562 112 180.000976562 c 0
 118.463867188 180.000976562 124.58203125 178.447265625 130 175.6953125 c 1
 135.41796875 178.447265625 141.536132812 180.000976562 148 180.000976562 c 0
 154.463867188 180.000976562 160.58203125 178.447265625 166 175.6953125 c 1
 171.41796875 178.447265625 177.536132812 180.000976562 184 180.000976562 c 0
 190.463867188 180.000976562 196.58203125 178.447265625 202 175.6953125 c 1
 207.41796875 178.447265625 213.536132812 180.000976562 220 180.000976562 c 0
 242 180.000976562 260 162.000976562 260 140.000976562 c 0
 260 118.000976562 242 100.000976562 220 100.000976562 c 0
 213.536132812 100.000976562 207.41796875 101.5546875 202 104.306640625 c 1
 196.58203125 101.5546875 190.463867188 100.000976562 184 100.000976562 c 0
 177.536132812 100.000976562 171.41796875 101.5546875 166 104.306640625 c 1
 160.58203125 101.5546875 154.463867188 100.000976562 148 100.000976562 c 0
 141.536132812 100.000976562 135.41796875 101.5546875 130 104.306640625 c 1
 124.58203125 101.5546875 118.463867188 100.000976562 112 100.000976562 c 0
 90 100.000976562 72 118.000976562 72 140.000976562 c 0
EndSplineSet
EndChar

StartChar: slash
Encoding: 47 47 16
Width: 432
GlyphClass: 2
Flags: MW
HStem: 0 80 100 80 200 80 300 80 400 80 500 80 600 80
LayerCount: 2
Fore
SplineSet
36 40 m 0
 36 62 54 80.0009765625 76 80.0009765625 c 0
 82.4638671875 80.0009765625 88.58203125 78.447265625 94 75.6953125 c 1
 99.41796875 78.447265625 105.536132812 80.0009765625 112 80.0009765625 c 0
 134 80.0009765625 152 62.0009765625 152 40.0009765625 c 0
 152 18.0009765625 134 0.0009765625 112 0.0009765625 c 0
 105.536132812 0.0009765625 99.41796875 1.5546875 94 4.306640625 c 1
 88.58203125 1.5537109375 82.4638671875 0 76 0 c 0
 54 0 36 18 36 40 c 0
72 140.000976562 m 0
 72 162.000976562 90 180.000976562 112 180.000976562 c 0
 118.463867188 180.000976562 124.58203125 178.447265625 130 175.6953125 c 1
 135.41796875 178.447265625 141.536132812 180.000976562 148 180.000976562 c 0
 170 180.000976562 188 162.000976562 188 140.000976562 c 0
 188 118.000976562 170 100.000976562 148 100.000976562 c 0
 141.536132812 100.000976562 135.41796875 101.5546875 130 104.306640625 c 1
 124.58203125 101.5546875 118.463867188 100.000976562 112 100.000976562 c 0
 90 100.000976562 72 118.000976562 72 140.000976562 c 0
108 240.000976562 m 0
 108 262.000976562 126 280.000976562 148 280.000976562 c 0
 154.463867188 280.000976562 160.58203125 278.447265625 166 275.6953125 c 1
 171.41796875 278.447265625 177.536132812 280.000976562 184 280.000976562 c 0
 206 280.000976562 224 262.000976562 224 240.000976562 c 0
 224 218.000976562 206 200.000976562 184 200.000976562 c 0
 177.536132812 200.000976562 171.41796875 201.5546875 166 204.306640625 c 1
 160.58203125 201.5546875 154.463867188 200.000976562 148 200.000976562 c 0
 126 200.000976562 108 218.000976562 108 240.000976562 c 0
144 340.000976562 m 0
 144 362.000976562 162 380.000976562 184 380.000976562 c 0
 190.463867188 380.000976562 196.58203125 378.447265625 202 375.6953125 c 1
 207.41796875 378.447265625 213.536132812 380.000976562 220 380.000976562 c 0
 242 380.000976562 260 362.000976562 260 340.000976562 c 0
 260 318.000976562 242 300.000976562 220 300.000976562 c 0
 213.536132812 300.000976562 207.41796875 301.5546875 202 304.306640625 c 1
 196.58203125 301.5546875 190.463867188 300.000976562 184 300.000976562 c 0
 162 300.000976562 144 318.000976562 144 340.000976562 c 0
180 440.000976562 m 0
 180 462.000976562 198 480.000976562 220 480.000976562 c 0
 226.463867188 480.000976562 232.58203125 478.447265625 238 475.6953125 c 1
 243.41796875 478.447265625 249.536132812 480.000976562 256 480.000976562 c 0
 278 480.000976562 296 462.000976562 296 440.000976562 c 0
 296 418.000976562 278 400.000976562 256 400.000976562 c 0
 249.536132812 400.000976562 243.41796875 401.5546875 238 404.306640625 c 1
 232.58203125 401.5546875 226.463867188 400.000976562 220 400.000976562 c 0
 198 400.000976562 180 418.000976562 180 440.000976562 c 0
216 540.000976562 m 0
 216 562.000976562 234 580.000976562 256 580.000976562 c 0
 262.463867188 580.000976562 268.58203125 578.447265625 274 575.6953125 c 1
 279.41796875 578.447265625 285.536132812 580.000976562 292 580.000976562 c 0
 314 580.000976562 332 562.000976562 332 540.000976562 c 0
 332 518.000976562 314 500.000976562 292 500.000976562 c 0
 285.536132812 500.000976562 279.41796875 501.5546875 274 504.306640625 c 1
 268.58203125 501.5546875 262.463867188 500.000976562 256 500.000976562 c 0
 234 500.000976562 216 518.000976562 216 540.000976562 c 0
252 640.000976562 m 0
 252 662.000976562 270 680.000976562 292 680.000976562 c 0
 298.463867188 680.000976562 304.58203125 678.447265625 310 675.6953125 c 1
 315.41796875 678.447265625 321.536132812 680.000976562 328 680.000976562 c 0
 350 680.000976562 368 662.000976562 368 640.000976562 c 0
 368 618.000976562 350 600.000976562 328 600.000976562 c 0
 321.536132812 600.000976562 315.41796875 601.5546875 310 604.306640625 c 1
 304.58203125 601.5546875 298.463867188 600.000976562 292 600.000976562 c 0
 270 600.000976562 252 618.000976562 252 640.000976562 c 0
EndSplineSet
EndChar

StartChar: zero
Encoding: 48 48 17
Width: 432
GlyphClass: 2
Flags: MW
HStem: 0 80 100 80 200 80 300 80 400 80 500 80 600 80
LayerCount: 2
Fore
SplineSet
108 40 m 0
 108 62 126 80.0009765625 148 80.0009765625 c 0
 154.463867188 80.0009765625 160.58203125 78.447265625 166 75.6953125 c 1
 171.41796875 78.447265625 177.536132812 80.0009765625 184 80.0009765625 c 0
 190.463867188 80.0009765625 196.58203125 78.447265625 202 75.6953125 c 1
 207.41796875 78.447265625 213.536132812 80.0009765625 220 80.0009765625 c 0
 226.463867188 80.0009765625 232.58203125 78.447265625 238 75.6953125 c 1
 243.41796875 78.447265625 249.536132812 80.0009765625 256 80.0009765625 c 0
 278 80.0009765625 296 62.0009765625 296 40.0009765625 c 0
 296 18.0009765625 278 0.0009765625 256 0.0009765625 c 0
 249.536132812 0.0009765625 243.41796875 1.5546875 238 4.306640625 c 1
 232.58203125 1.5546875 226.463867188 0.0009765625 220 0.0009765625 c 0
 213.536132812 0.0009765625 207.41796875 1.5546875 202 4.306640625 c 1
 196.58203125 1.5546875 190.463867188 0.0009765625 184 0.0009765625 c 0
 177.536132812 0.0009765625 171.41796875 1.5546875 166 4.306640625 c 1
 160.58203125 1.5537109375 154.463867188 0 148 0 c 0
 126 0 108 18 108 40 c 0
252 140.000976562 m 0
 252 162.000976562 270 180.000976562 292 180.000976562 c 0
 298.463867188 180.000976562 304.58203125 178.447265625 310 175.6953125 c 1
 315.41796875 178.447265625 321.536132812 180.000976562 328 180.000976562 c 0
 350 180.000976562 368 162.000976562 368 140.000976562 c 0
 368 118.000976562 350 100.000976562 328 100.000976562 c 0
 321.536132812 100.000976562 315.41796875 101.5546875 310 104.306640625 c 1
 304.58203125 101.5546875 298.463867188 100.000976562 292 100.000976562 c 0
 270 100.000976562 252 118.000976562 252 140.000976562 c 0
36 140.000976562 m 0
 36 162.000976562 54 180.000976562 76 180.000976562 c 0
 82.4638671875 180.000976562 88.58203125 178.447265625 94 175.6953125 c 1
 99.41796875 178.447265625 105.536132812 180.000976562 112 180.000976562 c 0
 134 180.000976562 152 162.000976562 152 140.000976562 c 0
 152 118.000976562 134 100.000976562 112 100.000976562 c 0
 105.536132812 100.000976562 99.41796875 101.5546875 94 104.306640625 c 1
 88.58203125 101.5546875 82.4638671875 100.000976562 76 100.000976562 c 0
 54 100.000976562 36 118.000976562 36 140.000976562 c 0
288 240.000976562 m 0
 288 262.000976562 306 280.000976562 328 280.000976562 c 0
 334.463867188 280.000976562 340.58203125 278.447265625 346 275.6953125 c 1
 351.41796875 278.447265625 357.536132812 280.000976562 364 280.000976562 c 0
 386 280.000976562 404 262.000976562 404 240.000976562 c 0
 404 218.000976562 386 200.000976562 364 200.000976562 c 0
 357.536132812 200.000976562 351.41796875 201.5546875 346 204.306640625 c 1
 340.58203125 201.5546875 334.463867188 200.000976562 328 200.000976562 c 0
 306 200.000976562 288 218.000976562 288 240.000976562 c 0
0 240.000976562 m 0
 0 262.000976562 18 280.000976562 40 280.000976562 c 0
 46.4638671875 280.000976562 52.58203125 278.447265625 58 275.6953125 c 1
 63.41796875 278.447265625 69.5361328125 280.000976562 76 280.000976562 c 0
 98 280.000976562 116 262.000976562 116 240.000976562 c 0
 116 218.000976562 98 200.000976562 76 200.000976562 c 0
 69.5361328125 200.000976562 63.41796875 201.5546875 58 204.306640625 c 1
 52.58203125 201.5546875 46.4638671875 200.000976562 40 200.000976562 c 0
 18 200.000976562 0 218.000976562 0 240.000976562 c 0
288 340.000976562 m 0
 288 362.000976562 306 380.000976562 328 380.000976562 c 0
 334.463867188 380.000976562 340.58203125 378.447265625 346 375.6953125 c 1
 351.41796875 378.447265625 357.536132812 380.000976562 364 380.000976562 c 0
 386 380.000976562 404 362.000976562 404 340.000976562 c 0
 404 318.000976562 386 300.000976562 364 300.000976562 c 0
 357.536132812 300.000976562 351.41796875 301.5546875 346 304.306640625 c 1
 340.58203125 301.5546875 334.463867188 300.000976562 328 300.000976562 c 0
 306 300.000976562 288 318.000976562 288 340.000976562 c 0
0 340.000976562 m 0
 0 362.000976562 18 380.000976562 40 380.000976562 c 0
 46.4638671875 380.000976562 52.58203125 378.447265625 58 375.6953125 c 1
 63.41796875 378.447265625 69.5361328125 380.000976562 76 380.000976562 c 0
 98 380.000976562 116 362.000976562 116 340.000976562 c 0
 116 318.000976562 98 300.000976562 76 300.000976562 c 0
 69.5361328125 300.000976562 63.41796875 301.5546875 58 304.306640625 c 1
 52.58203125 301.5546875 46.4638671875 300.000976562 40 300.000976562 c 0
 18 300.000976562 0 318.000976562 0 340.000976562 c 0
288 440.000976562 m 0
 288 462.000976562 306 480.000976562 328 480.000976562 c 0
 334.463867188 480.000976562 340.58203125 478.447265625 346 475.6953125 c 1
 351.41796875 478.447265625 357.536132812 480.000976562 364 480.000976562 c 0
 386 480.000976562 404 462.000976562 404 440.000976562 c 0
 404 418.000976562 386 400.000976562 364 400.000976562 c 0
 357.536132812 400.000976562 351.41796875 401.5546875 346 404.306640625 c 1
 340.58203125 401.5546875 334.463867188 400.000976562 328 400.000976562 c 0
 306 400.000976562 288 418.000976562 288 440.000976562 c 0
0 440.000976562 m 0
 0 462.000976562 18 480.000976562 40 480.000976562 c 0
 46.4638671875 480.000976562 52.58203125 478.447265625 58 475.6953125 c 1
 63.41796875 478.447265625 69.5361328125 480.000976562 76 480.000976562 c 0
 98 480.000976562 116 462.000976562 116 440.000976562 c 0
 116 418.000976562 98 400.000976562 76 400.000976562 c 0
 69.5361328125 400.000976562 63.41796875 401.5546875 58 404.306640625 c 1
 52.58203125 401.5546875 46.4638671875 400.000976562 40 400.000976562 c 0
 18 400.000976562 0 418.000976562 0 440.000976562 c 0
252 540.000976562 m 0
 252 562.000976562 270 580.000976562 292 580.000976562 c 0
 298.463867188 580.000976562 304.58203125 578.447265625 310 575.6953125 c 1
 315.41796875 578.447265625 321.536132812 580.000976562 328 580.000976562 c 0
 350 580.000976562 368 562.000976562 368 540.000976562 c 0
 368 518.000976562 350 500.000976562 328 500.000976562 c 0
 321.536132812 500.000976562 315.41796875 501.5546875 310 504.306640625 c 1
 304.58203125 501.5546875 298.463867188 500.000976562 292 500.000976562 c 0
 270 500.000976562 252 518.000976562 252 540.000976562 c 0
36 540.000976562 m 0
 36 562.000976562 54 580.000976562 76 580.000976562 c 0
 82.4638671875 580.000976562 88.58203125 578.447265625 94 575.6953125 c 1
 99.41796875 578.447265625 105.536132812 580.000976562 112 580.000976562 c 0
 134 580.000976562 152 562.000976562 152 540.000976562 c 0
 152 518.000976562 134 500.000976562 112 500.000976562 c 0
 105.536132812 500.000976562 99.41796875 501.5546875 94 504.306640625 c 1
 88.58203125 501.5546875 82.4638671875 500.000976562 76 500.000976562 c 0
 54 500.000976562 36 518.000976562 36 540.000976562 c 0
108 640.000976562 m 0
 108 662.000976562 126 680.000976562 148 680.000976562 c 0
 154.463867188 680.000976562 160.58203125 678.447265625 166 675.6953125 c 1
 171.41796875 678.447265625 177.536132812 680.000976562 184 680.000976562 c 0
 190.463867188 680.000976562 196.58203125 678.447265625 202 675.6953125 c 1
 207.41796875 678.447265625 213.536132812 680.000976562 220 680.000976562 c 0
 226.463867188 680.000976562 232.58203125 678.447265625 238 675.6953125 c 1
 243.41796875 678.447265625 249.536132812 680.000976562 256 680.000976562 c 0
 278 680.000976562 296 662.000976562 296 640.000976562 c 0
 296 618.000976562 278 600.000976562 256 600.000976562 c 0
 249.536132812 600.000976562 243.41796875 601.5546875 238 604.306640625 c 1
 232.58203125 601.5546875 226.463867188 600.000976562 220 600.000976562 c 0
 213.536132812 600.000976562 207.41796875 601.5546875 202 604.306640625 c 1
 196.58203125 601.5546875 190.463867188 600.000976562 184 600.000976562 c 0
 177.536132812 600.000976562 171.41796875 601.5546875 166 604.306640625 c 1
 160.58203125 601.5546875 154.463867188 600.000976562 148 600.000976562 c 0
 126 600.000976562 108 618.000976562 108 640.000976562 c 0
EndSplineSet
EndChar

StartChar: one
Encoding: 49 49 18
Width: 432
GlyphClass: 2
Flags: MW
HStem: 0 80 100 80 200 80 300 80 400 80 500 80 600 80
LayerCount: 2
Fore
SplineSet
72 40 m 0
 72 62 90 80.0009765625 112 80.0009765625 c 0
 118.463867188 80.0009765625 124.58203125 78.447265625 130 75.6953125 c 1
 135.41796875 78.447265625 141.536132812 80.0009765625 148 80.0009765625 c 0
 154.463867188 80.0009765625 160.58203125 78.447265625 166 75.6953125 c 1
 171.41796875 78.447265625 177.536132812 80.0009765625 184 80.0009765625 c 0
 190.463867188 80.0009765625 196.58203125 78.447265625 202 75.6953125 c 1
 207.41796875 78.447265625 213.536132812 80.0009765625 220 80.0009765625 c 0
 226.463867188 80.0009765625 232.58203125 78.447265625 238 75.6953125 c 1
 243.41796875 78.447265625 249.536132812 80.0009765625 256 80.0009765625 c 0
 262.463867188 80.0009765625 268.58203125 78.447265625 274 75.6953125 c 1
 279.41796875 78.447265625 285.536132812 80.0009765625 292 80.0009765625 c 0
 314 80.0009765625 332 62.0009765625 332 40.0009765625 c 0
 332 18.0009765625 314 0.0009765625 292 0.0009765625 c 0
 285.536132812 0.0009765625 279.41796875 1.5546875 274 4.306640625 c 1
 268.58203125 1.5546875 262.463867188 0.0009765625 256 0.0009765625 c 0
 249.536132812 0.0009765625 243.41796875 1.5546875 238 4.306640625 c 1
 232.58203125 1.5546875 226.463867188 0.0009765625 220 0.0009765625 c 0
 213.536132812 0.0009765625 207.41796875 1.5546875 202 4.306640625 c 1
 196.58203125 1.5546875 190.463867188 0.0009765625 184 0.0009765625 c 0
 177.536132812 0.0009765625 171.41796875 1.5546875 166 4.306640625 c 1
 160.58203125 1.5546875 154.463867188 0.0009765625 148 0.0009765625 c 0
 141.536132812 0.0009765625 135.41796875 1.5546875 130 4.306640625 c 1
 124.58203125 1.5537109375 118.463867188 0 112 0 c 0
 90 0 72 18 72 40 c 0
144 140.000976562 m 0
 144 162.000976562 162 180.000976562 184 180.000976562 c 0
 190.463867188 180.000976562 196.58203125 178.447265625 202 175.6953125 c 1
 207.41796875 178.447265625 213.536132812 180.000976562 220 180.000976562 c 0
 242 180.000976562 260 162.000976562 260 140.000976562 c 0
 260 118.000976562 242 100.000976562 220 100.000976562 c 0
 213.536132812 100.000976562 207.41796875 101.5546875 202 104.306640625 c 1
 196.58203125 101.5546875 190.463867188 100.000976562 184 100.000976562 c 0
 162 100.000976562 144 118.000976562 144 140.000976562 c 0
144 240.000976562 m 0
 144 262.000976562 162 280.000976562 184 280.000976562 c 0
 190.463867188 280.000976562 196.58203125 278.447265625 202 275.6953125 c 1
 207.41796875 278.447265625 213.536132812 280.000976562 220 280.000976562 c 0
 242 280.000976562 260 262.000976562 260 240.000976562 c 0
 260 218.000976562 242 200.000976562 220 200.000976562 c 0
 213.536132812 200.000976562 207.41796875 201.5546875 202 204.306640625 c 1
 196.58203125 201.5546875 190.463867188 200.000976562 184 200.000976562 c 0
 162 200.000976562 144 218.000976562 144 240.000976562 c 0
144 340.000976562 m 0
 144 362.000976562 162 380.000976562 184 380.000976562 c 0
 190.463867188 380.000976562 196.58203125 378.447265625 202 375.6953125 c 1
 207.41796875 378.447265625 213.536132812 380.000976562 220 380.000976562 c 0
 242 380.000976562 260 362.000976562 260 340.000976562 c 0
 260 318.000976562 242 300.000976562 220 300.000976562 c 0
 213.536132812 300.000976562 207.41796875 301.5546875 202 304.306640625 c 1
 196.58203125 301.5546875 190.463867188 300.000976562 184 300.000976562 c 0
 162 300.000976562 144 318.000976562 144 340.000976562 c 0
144 440.000976562 m 0
 144 462.000976562 162 480.000976562 184 480.000976562 c 0
 190.463867188 480.000976562 196.58203125 478.447265625 202 475.6953125 c 1
 207.41796875 478.447265625 213.536132812 480.000976562 220 480.000976562 c 0
 242 480.000976562 260 462.000976562 260 440.000976562 c 0
 260 418.000976562 242 400.000976562 220 400.000976562 c 0
 213.536132812 400.000976562 207.41796875 401.5546875 202 404.306640625 c 1
 196.58203125 401.5546875 190.463867188 400.000976562 184 400.000976562 c 0
 162 400.000976562 144 418.000976562 144 440.000976562 c 0
72 540.000976562 m 0
 72 562.000976562 90 580.000976562 112 580.000976562 c 0
 118.463867188 580.000976562 124.58203125 578.447265625 130 575.6953125 c 1
 135.41796875 578.447265625 141.536132812 580.000976562 148 580.000976562 c 0
 154.463867188 580.000976562 160.58203125 578.447265625 166 575.6953125 c 1
 171.41796875 578.447265625 177.536132812 580.000976562 184 580.000976562 c 0
 190.463867188 580.000976562 196.58203125 578.447265625 202 575.6953125 c 1
 207.41796875 578.447265625 213.536132812 580.000976562 220 580.000976562 c 0
 242 580.000976562 260 562.000976562 260 540.000976562 c 0
 260 518.000976562 242 500.000976562 220 500.000976562 c 0
 213.536132812 500.000976562 207.41796875 501.5546875 202 504.306640625 c 1
 196.58203125 501.5546875 190.463867188 500.000976562 184 500.000976562 c 0
 177.536132812 500.000976562 171.41796875 501.5546875 166 504.306640625 c 1
 160.58203125 501.5546875 154.463867188 500.000976562 148 500.000976562 c 0
 141.536132812 500.000976562 135.41796875 501.5546875 130 504.306640625 c 1
 124.58203125 501.5546875 118.463867188 500.000976562 112 500.000976562 c 0
 90 500.000976562 72 518.000976562 72 540.000976562 c 0
144 640.000976562 m 0
 144 662.000976562 162 680.000976562 184 680.000976562 c 0
 190.463867188 680.000976562 196.58203125 678.447265625 202 675.6953125 c 1
 207.41796875 678.447265625 213.536132812 680.000976562 220 680.000976562 c 0
 242 680.000976562 260 662.000976562 260 640.000976562 c 0
 260 618.000976562 242 600.000976562 220 600.000976562 c 0
 213.536132812 600.000976562 207.41796875 601.5546875 202 604.306640625 c 1
 196.58203125 601.5546875 190.463867188 600.000976562 184 600.000976562 c 0
 162 600.000976562 144 618.000976562 144 640.000976562 c 0
EndSplineSet
EndChar

StartChar: two
Encoding: 50 50 19
Width: 432
GlyphClass: 2
Flags: MW
HStem: 0 80 100 80 200 80 300 80 400 80 500 80 600 80
LayerCount: 2
Fore
SplineSet
0 40 m 0
 0 62 18 80.0009765625 40 80.0009765625 c 0
 46.4638671875 80.0009765625 52.58203125 78.447265625 58 75.6953125 c 1
 63.41796875 78.447265625 69.5361328125 80.0009765625 76 80.0009765625 c 0
 82.4638671875 80.0009765625 88.58203125 78.447265625 94 75.6953125 c 1
 99.41796875 78.447265625 105.536132812 80.0009765625 112 80.0009765625 c 0
 118.463867188 80.0009765625 124.58203125 78.447265625 130 75.6953125 c 1
 135.41796875 78.447265625 141.536132812 80.0009765625 148 80.0009765625 c 0
 154.463867188 80.0009765625 160.58203125 78.447265625 166 75.6953125 c 1
 171.41796875 78.447265625 177.536132812 80.0009765625 184 80.0009765625 c 0
 190.463867188 80.0009765625 196.58203125 78.447265625 202 75.6953125 c 1
 207.41796875 78.447265625 213.536132812 80.0009765625 220 80.0009765625 c 0
 226.463867188 80.0009765625 232.58203125 78.447265625 238 75.6953125 c 1
 243.41796875 78.447265625 249.536132812 80.0009765625 256 80.0009765625 c 0
 262.463867188 80.0009765625 268.58203125 78.447265625 274 75.6953125 c 1
 279.41796875 78.447265625 285.536132812 80.0009765625 292 80.0009765625 c 0
 298.463867188 80.0009765625 304.58203125 78.447265625 310 75.6953125 c 1
 315.41796875 78.447265625 321.536132812 80.0009765625 328 80.0009765625 c 0
 334.463867188 80.0009765625 340.58203125 78.447265625 346 75.6953125 c 1
 351.41796875 78.447265625 357.536132812 80.0009765625 364 80.0009765625 c 0
 386 80.0009765625 404 62.0009765625 404 40.0009765625 c 0
 404 18.0009765625 386 0.0009765625 364 0.0009765625 c 0
 357.536132812 0.0009765625 351.41796875 1.5546875 346 4.306640625 c 1
 340.58203125 1.5546875 334.463867188 0.0009765625 328 0.0009765625 c 0
 321.536132812 0.0009765625 315.41796875 1.5546875 310 4.306640625 c 1
 304.58203125 1.5546875 298.463867188 0.0009765625 292 0.0009765625 c 0
 285.536132812 0.0009765625 279.41796875 1.5546875 274 4.306640625 c 1
 268.58203125 1.5546875 262.463867188 0.0009765625 256 0.0009765625 c 0
 249.536132812 0.0009765625 243.41796875 1.5546875 238 4.306640625 c 1
 232.58203125 1.5546875 226.463867188 0.0009765625 220 0.0009765625 c 0
 213.536132812 0.0009765625 207.41796875 1.5546875 202 4.306640625 c 1
 196.58203125 1.5546875 190.463867188 0.0009765625 184 0.0009765625 c 0
 177.536132812 0.0009765625 171.41796875 1.5546875 166 4.306640625 c 1
 160.58203125 1.5546875 154.463867188 0.0009765625 148 0.0009765625 c 0
 141.536132812 0.0009765625 135.41796875 1.5546875 130 4.306640625 c 1
 124.58203125 1.5546875 118.463867188 0.0009765625 112 0.0009765625 c 0
 105.536132812 0.0009765625 99.41796875 1.5546875 94 4.306640625 c 1
 88.58203125 1.5546875 82.4638671875 0.0009765625 76 0.0009765625 c 0
 69.5361328125 0.0009765625 63.41796875 1.5546875 58 4.306640625 c 1
 52.58203125 1.5537109375 46.4638671875 0 40 0 c 0
 18 0 0 18 0 40 c 0
72 140.000976562 m 0
 72 162.000976562 90 180.000976562 112 180.000976562 c 0
 118.463867188 180.000976562 124.58203125 178.447265625 130 175.6953125 c 1
 135.41796875 178.447265625 141.536132812 180.000976562 148 180.000976562 c 0
 170 180.000976562 188 162.000976562 188 140.000976562 c 0
 188 118.000976562 170 100.000976562 148 100.000976562 c 0
 141.536132812 100.000976562 135.41796875 101.5546875 130 104.306640625 c 1
 124.58203125 101.5546875 118.463867188 100.000976562 112 100.000976562 c 0
 90 100.000976562 72 118.000976562 72 140.000976562 c 0
144 240.000976562 m 0
 144 262.000976562 162 280.000976562 184 280.000976562 c 0
 190.463867188 280.000976562 196.58203125 278.447265625 202 275.6953125 c 1
 207.41796875 278.447265625 213.536132812 280.000976562 220 280.000976562 c 0
 242 280.000976562 260 262.000976562 260 240.000976562 c 0
 260 218.000976562 242 200.000976562 220 200.000976562 c 0
 213.536132812 200.000976562 207.41796875 201.5546875 202 204.306640625 c 1
 196.58203125 201.5546875 190.463867188 200.000976562 184 200.000976562 c 0
 162 200.000976562 144 218.000976562 144 240.000976562 c 0
216 340.000976562 m 0
 216 362.000976562 234 380.000976562 256 380.000976562 c 0
 262.463867188 380.000976562 268.58203125 378.447265625 274 375.6953125 c 1
 279.41796875 378.447265625 285.536132812 380.000976562 292 380.000976562 c 0
 314 380.000976562 332 362.000976562 332 340.000976562 c 0
 332 318.000976562 314 300.000976562 292 300.000976562 c 0
 285.536132812 300.000976562 279.41796875 301.5546875 274 304.306640625 c 1
 268.58203125 301.5546875 262.463867188 300.000976562 256 300.000976562 c 0
 234 300.000976562 216 318.000976562 216 340.000976562 c 0
288 440.000976562 m 0
 288 462.000976562 306 480.000976562 328 480.000976562 c 0
 334.463867188 480.000976562 340.58203125 478.447265625 346 475.6953125 c 1
 351.41796875 478.447265625 357.536132812 480.000976562 364 480.000976562 c 0
 386 480.000976562 404 462.000976562 404 440.000976562 c 0
 404 418.000976562 386 400.000976562 364 400.000976562 c 0
 357.536132812 400.000976562 351.41796875 401.5546875 346 404.306640625 c 1
 340.58203125 401.5546875 334.463867188 400.000976562 328 400.000976562 c 0
 306 400.000976562 288 418.000976562 288 440.000976562 c 0
288 540.000976562 m 0
 288 562.000976562 306 580.000976562 328 580.000976562 c 0
 334.463867188 580.000976562 340.58203125 578.447265625 346 575.6953125 c 1
 351.41796875 578.447265625 357.536132812 580.000976562 364 580.000976562 c 0
 386 580.000976562 404 562.000976562 404 540.000976562 c 0
 404 518.000976562 386 500.000976562 364 500.000976562 c 0
 357.536132812 500.000976562 351.41796875 501.5546875 346 504.306640625 c 1
 340.58203125 501.5546875 334.463867188 500.000976562 328 500.000976562 c 0
 306 500.000976562 288 518.000976562 288 540.000976562 c 0
0 540.000976562 m 0
 0 562.000976562 18 580.000976562 40 580.000976562 c 0
 46.4638671875 580.000976562 52.58203125 578.447265625 58 575.6953125 c 1
 63.41796875 578.447265625 69.5361328125 580.000976562 76 580.000976562 c 0
 98 580.000976562 116 562.000976562 116 540.000976562 c 0
 116 518.000976562 98 500.000976562 76 500.000976562 c 0
 69.5361328125 500.000976562 63.41796875 501.5546875 58 504.306640625 c 1
 52.58203125 501.5546875 46.4638671875 500.000976562 40 500.000976562 c 0
 18 500.000976562 0 518.000976562 0 540.000976562 c 0
36 640.000976562 m 0
 36 662.000976562 54 680.000976562 76 680.000976562 c 0
 82.4638671875 680.000976562 88.58203125 678.447265625 94 675.6953125 c 1
 99.41796875 678.447265625 105.536132812 680.000976562 112 680.000976562 c 0
 118.463867188 680.000976562 124.58203125 678.447265625 130 675.6953125 c 1
 135.41796875 678.447265625 141.536132812 680.000976562 148 680.000976562 c 0
 154.463867188 680.000976562 160.58203125 678.447265625 166 675.6953125 c 1
 171.41796875 678.447265625 177.536132812 680.000976562 184 680.000976562 c 0
 190.463867188 680.000976562 196.58203125 678.447265625 202 675.6953125 c 1
 207.41796875 678.447265625 213.536132812 680.000976562 220 680.000976562 c 0
 226.463867188 680.000976562 232.58203125 678.447265625 238 675.6953125 c 1
 243.41796875 678.447265625 249.536132812 680.000976562 256 680.000976562 c 0
 262.463867188 680.000976562 268.58203125 678.447265625 274 675.6953125 c 1
 279.41796875 678.447265625 285.536132812 680.000976562 292 680.000976562 c 0
 298.463867188 680.000976562 304.58203125 678.447265625 310 675.6953125 c 1
 315.41796875 678.447265625 321.536132812 680.000976562 328 680.000976562 c 0
 350 680.000976562 368 662.000976562 368 640.000976562 c 0
 368 618.000976562 350 600.000976562 328 600.000976562 c 0
 321.536132812 600.000976562 315.41796875 601.5546875 310 604.306640625 c 1
 304.58203125 601.5546875 298.463867188 600.000976562 292 600.000976562 c 0
 285.536132812 600.000976562 279.41796875 601.5546875 274 604.306640625 c 1
 268.58203125 601.5546875 262.463867188 600.000976562 256 600.000976562 c 0
 249.536132812 600.000976562 243.41796875 601.5546875 238 604.306640625 c 1
 232.58203125 601.5546875 226.463867188 600.000976562 220 600.000976562 c 0
 213.536132812 600.000976562 207.41796875 601.5546875 202 604.306640625 c 1
 196.58203125 601.5546875 190.463867188 600.000976562 184 600.000976562 c 0
 177.536132812 600.000976562 171.41796875 601.5546875 166 604.306640625 c 1
 160.58203125 601.5546875 154.463867188 600.000976562 148 600.000976562 c 0
 141.536132812 600.000976562 135.41796875 601.5546875 130 604.306640625 c 1
 124.58203125 601.5546875 118.463867188 600.000976562 112 600.000976562 c 0
 105.536132812 600.000976562 99.41796875 601.5546875 94 604.306640625 c 1
 88.58203125 601.5546875 82.4638671875 600.000976562 76 600.000976562 c 0
 54 600.000976562 36 618.000976562 36 640.000976562 c 0
EndSplineSet
EndChar

StartChar: three
Encoding: 51 51 20
Width: 432
GlyphClass: 2
Flags: MW
HStem: 0 80 100 80 200 80 300 80 400 80 500 80 600 80
LayerCount: 2
Fore
SplineSet
72 40 m 0
 72 62 90 80.0009765625 112 80.0009765625 c 0
 118.463867188 80.0009765625 124.58203125 78.447265625 130 75.6953125 c 1
 135.41796875 78.447265625 141.536132812 80.0009765625 148 80.0009765625 c 0
 154.463867188 80.0009765625 160.58203125 78.447265625 166 75.6953125 c 1
 171.41796875 78.447265625 177.536132812 80.0009765625 184 80.0009765625 c 0
 190.463867188 80.0009765625 196.58203125 78.447265625 202 75.6953125 c 1
 207.41796875 78.447265625 213.536132812 80.0009765625 220 80.0009765625 c 0
 226.463867188 80.0009765625 232.58203125 78.447265625 238 75.6953125 c 1
 243.41796875 78.447265625 249.536132812 80.0009765625 256 80.0009765625 c 0
 262.463867188 80.0009765625 268.58203125 78.447265625 274 75.6953125 c 1
 279.41796875 78.447265625 285.536132812 80.0009765625 292 80.0009765625 c 0
 314 80.0009765625 332 62.0009765625 332 40.0009765625 c 0
 332 18.0009765625 314 0.0009765625 292 0.0009765625 c 0
 285.536132812 0.0009765625 279.41796875 1.5546875 274 4.306640625 c 1
 268.58203125 1.5546875 262.463867188 0.0009765625 256 0.0009765625 c 0
 249.536132812 0.0009765625 243.41796875 1.5546875 238 4.306640625 c 1
 232.58203125 1.5546875 226.463867188 0.0009765625 220 0.0009765625 c 0
 213.536132812 0.0009765625 207.41796875 1.5546875 202 4.306640625 c 1
 196.58203125 1.5546875 190.463867188 0.0009765625 184 0.0009765625 c 0
 177.536132812 0.0009765625 171.41796875 1.5546875 166 4.306640625 c 1
 160.58203125 1.5546875 154.463867188 0.0009765625 148 0.0009765625 c 0
 141.536132812 0.0009765625 135.41796875 1.5546875 130 4.306640625 c 1
 124.58203125 1.5537109375 118.463867188 0 112 0 c 0
 90 0 72 18 72 40 c 0
288 140.000976562 m 0
 288 162.000976562 306 180.000976562 328 180.000976562 c 0
 334.463867188 180.000976562 340.58203125 178.447265625 346 175.6953125 c 1
 351.41796875 178.447265625 357.536132812 180.000976562 364 180.000976562 c 0
 386 180.000976562 404 162.000976562 404 140.000976562 c 0
 404 118.000976562 386 100.000976562 364 100.000976562 c 0
 357.536132812 100.000976562 351.41796875 101.5546875 346 104.306640625 c 1
 340.58203125 101.5546875 334.463867188 100.000976562 328 100.000976562 c 0
 306 100.000976562 288 118.000976562 288 140.000976562 c 0
0 140.000976562 m 0
 0 162.000976562 18 180.000976562 40 180.000976562 c 0
 46.4638671875 180.000976562 52.58203125 178.447265625 58 175.6953125 c 1
 63.41796875 178.447265625 69.5361328125 180.000976562 76 180.000976562 c 0
 98 180.000976562 116 162.000976562 116 140.000976562 c 0
 116 118.000976562 98 100.000976562 76 100.000976562 c 0
 69.5361328125 100.000976562 63.41796875 101.5546875 58 104.306640625 c 1
 52.58203125 101.5546875 46.4638671875 100.000976562 40 100.000976562 c 0
 18 100.000976562 0 118.000976562 0 140.000976562 c 0
288 240.000976562 m 0
 288 262.000976562 306 280.000976562 328 280.000976562 c 0
 334.463867188 280.000976562 340.58203125 278.447265625 346 275.6953125 c 1
 351.41796875 278.447265625 357.536132812 280.000976562 364 280.000976562 c 0
 386 280.000976562 404 262.000976562 404 240.000976562 c 0
 404 218.000976562 386 200.000976562 364 200.000976562 c 0
 357.536132812 200.000976562 351.41796875 201.5546875 346 204.306640625 c 1
 340.58203125 201.5546875 334.463867188 200.000976562 328 200.000976562 c 0
 306 200.000976562 288 218.000976562 288 240.000976562 c 0
216 340.000976562 m 0
 216 362.000976562 234 380.000976562 256 380.000976562 c 0
 262.463867188 380.000976562 268.58203125 378.447265625 274 375.6953125 c 1
 279.41796875 378.447265625 285.536132812 380.000976562 292 380.000976562 c 0
 314 380.000976562 332 362.000976562 332 340.000976562 c 0
 332 318.000976562 314 300.000976562 292 300.000976562 c 0
 285.536132812 300.000976562 279.41796875 301.5546875 274 304.306640625 c 1
 268.58203125 301.5546875 262.463867188 300.000976562 256 300.000976562 c 0
 234 300.000976562 216 318.000976562 216 340.000976562 c 0
144 440.000976562 m 0
 144 462.000976562 162 480.000976562 184 480.000976562 c 0
 190.463867188 480.000976562 196.58203125 478.447265625 202 475.6953125 c 1
 207.41796875 478.447265625 213.536132812 480.000976562 220 480.000976562 c 0
 242 480.000976562 260 462.000976562 260 440.000976562 c 0
 260 418.000976562 242 400.000976562 220 400.000976562 c 0
 213.536132812 400.000976562 207.41796875 401.5546875 202 404.306640625 c 1
 196.58203125 401.5546875 190.463867188 400.000976562 184 400.000976562 c 0
 162 400.000976562 144 418.000976562 144 440.000976562 c 0
216 540.000976562 m 0
 216 562.000976562 234 580.000976562 256 580.000976562 c 0
 262.463867188 580.000976562 268.58203125 578.447265625 274 575.6953125 c 1
 279.41796875 578.447265625 285.536132812 580.000976562 292 580.000976562 c 0
 314 580.000976562 332 562.000976562 332 540.000976562 c 0
 332 518.000976562 314 500.000976562 292 500.000976562 c 0
 285.536132812 500.000976562 279.41796875 501.5546875 274 504.306640625 c 1
 268.58203125 501.5546875 262.463867188 500.000976562 256 500.000976562 c 0
 234 500.000976562 216 518.000976562 216 540.000976562 c 0
0 640.000976562 m 0
 0 662.000976562 18 680.000976562 40 680.000976562 c 0
 46.4638671875 680.000976562 52.58203125 678.447265625 58 675.6953125 c 1
 63.41796875 678.447265625 69.5361328125 680.000976562 76 680.000976562 c 0
 82.4638671875 680.000976562 88.58203125 678.447265625 94 675.6953125 c 1
 99.41796875 678.447265625 105.536132812 680.000976562 112 680.000976562 c 0
 118.463867188 680.000976562 124.58203125 678.447265625 130 675.6953125 c 1
 135.41796875 678.447265625 141.536132812 680.000976562 148 680.000976562 c 0
 154.463867188 680.000976562 160.58203125 678.447265625 166 675.6953125 c 1
 171.41796875 678.447265625 177.536132812 680.000976562 184 680.000976562 c 0
 190.463867188 680.000976562 196.58203125 678.447265625 202 675.6953125 c 1
 207.41796875 678.447265625 213.536132812 680.000976562 220 680.000976562 c 0
 226.463867188 680.000976562 232.58203125 678.447265625 238 675.6953125 c 1
 243.41796875 678.447265625 249.536132812 680.000976562 256 680.000976562 c 0
 262.463867188 680.000976562 268.58203125 678.447265625 274 675.6953125 c 1
 279.41796875 678.447265625 285.536132812 680.000976562 292 680.000976562 c 0
 298.463867188 680.000976562 304.58203125 678.447265625 310 675.6953125 c 1
 315.41796875 678.447265625 321.536132812 680.000976562 328 680.000976562 c 0
 334.463867188 680.000976562 340.58203125 678.447265625 346 675.6953125 c 1
 351.41796875 678.447265625 357.536132812 680.000976562 364 680.000976562 c 0
 386 680.000976562 404 662.000976562 404 640.000976562 c 0
 404 618.000976562 386 600.000976562 364 600.000976562 c 0
 357.536132812 600.000976562 351.41796875 601.5546875 346 604.306640625 c 1
 340.58203125 601.5546875 334.463867188 600.000976562 328 600.000976562 c 0
 321.536132812 600.000976562 315.41796875 601.5546875 310 604.306640625 c 1
 304.58203125 601.5546875 298.463867188 600.000976562 292 600.000976562 c 0
 285.536132812 600.000976562 279.41796875 601.5546875 274 604.306640625 c 1
 268.58203125 601.5546875 262.463867188 600.000976562 256 600.000976562 c 0
 249.536132812 600.000976562 243.41796875 601.5546875 238 604.306640625 c 1
 232.58203125 601.5546875 226.463867188 600.000976562 220 600.000976562 c 0
 213.536132812 600.000976562 207.41796875 601.5546875 202 604.306640625 c 1
 196.58203125 601.5546875 190.463867188 600.000976562 184 600.000976562 c 0
 177.536132812 600.000976562 171.41796875 601.5546875 166 604.306640625 c 1
 160.58203125 601.5546875 154.463867188 600.000976562 148 600.000976562 c 0
 141.536132812 600.000976562 135.41796875 601.5546875 130 604.306640625 c 1
 124.58203125 601.5546875 118.463867188 600.000976562 112 600.000976562 c 0
 105.536132812 600.000976562 99.41796875 601.5546875 94 604.306640625 c 1
 88.58203125 601.5546875 82.4638671875 600.000976562 76 600.000976562 c 0
 69.5361328125 600.000976562 63.41796875 601.5546875 58 604.306640625 c 1
 52.58203125 601.5546875 46.4638671875 600.000976562 40 600.000976562 c 0
 18 600.000976562 0 618.000976562 0 640.000976562 c 0
EndSplineSet
EndChar

StartChar: four
Encoding: 52 52 21
Width: 432
GlyphClass: 2
Flags: MW
HStem: 0 80 100 80 200 80 300 80 400 80 500 80 600 80
LayerCount: 2
Fore
SplineSet
216 40 m 0
 216 62 234 80.0009765625 256 80.0009765625 c 0
 262.463867188 80.0009765625 268.58203125 78.447265625 274 75.6953125 c 1
 279.41796875 78.447265625 285.536132812 80.0009765625 292 80.0009765625 c 0
 314 80.0009765625 332 62.0009765625 332 40.0009765625 c 0
 332 18.0009765625 314 0.0009765625 292 0.0009765625 c 0
 285.536132812 0.0009765625 279.41796875 1.5546875 274 4.306640625 c 1
 268.58203125 1.5537109375 262.463867188 0 256 0 c 0
 234 0 216 18 216 40 c 0
216 140.000976562 m 0
 216 162.000976562 234 180.000976562 256 180.000976562 c 0
 262.463867188 180.000976562 268.58203125 178.447265625 274 175.6953125 c 1
 279.41796875 178.447265625 285.536132812 180.000976562 292 180.000976562 c 0
 314 180.000976562 332 162.000976562 332 140.000976562 c 0
 332 118.000976562 314 100.000976562 292 100.000976562 c 0
 285.536132812 100.000976562 279.41796875 101.5546875 274 104.306640625 c 1
 268.58203125 101.5546875 262.463867188 100.000976562 256 100.000976562 c 0
 234 100.000976562 216 118.000976562 216 140.000976562 c 0
0 240.000976562 m 0
 0 262.000976562 18 280.000976562 40 280.000976562 c 0
 46.4638671875 280.000976562 52.58203125 278.447265625 58 275.6953125 c 1
 63.41796875 278.447265625 69.5361328125 280.000976562 76 280.000976562 c 0
 82.4638671875 280.000976562 88.58203125 278.447265625 94 275.6953125 c 1
 99.41796875 278.447265625 105.536132812 280.000976562 112 280.000976562 c 0
 118.463867188 280.000976562 124.58203125 278.447265625 130 275.6953125 c 1
 135.41796875 278.447265625 141.536132812 280.000976562 148 280.000976562 c 0
 154.463867188 280.000976562 160.58203125 278.447265625 166 275.6953125 c 1
 171.41796875 278.447265625 177.536132812 280.000976562 184 280.000976562 c 0
 190.463867188 280.000976562 196.58203125 278.447265625 202 275.6953125 c 1
 207.41796875 278.447265625 213.536132812 280.000976562 220 280.000976562 c 0
 226.463867188 280.000976562 232.58203125 278.447265625 238 275.6953125 c 1
 243.41796875 278.447265625 249.536132812 280.000976562 256 280.000976562 c 0
 262.463867188 280.000976562 268.58203125 278.447265625 274 275.6953125 c 1
 279.41796875 278.447265625 285.536132812 280.000976562 292 280.000976562 c 0
 298.463867188 280.000976562 304.58203125 278.447265625 310 275.6953125 c 1
 315.41796875 278.447265625 321.536132812 280.000976562 328 280.000976562 c 0
 334.463867188 280.000976562 340.58203125 278.447265625 346 275.6953125 c 1
 351.41796875 278.447265625 357.536132812 280.000976562 364 280.000976562 c 0
 386 280.000976562 404 262.000976562 404 240.000976562 c 0
 404 218.000976562 386 200.000976562 364 200.000976562 c 0
 357.536132812 200.000976562 351.41796875 201.5546875 346 204.306640625 c 1
 340.58203125 201.5546875 334.463867188 200.000976562 328 200.000976562 c 0
 321.536132812 200.000976562 315.41796875 201.5546875 310 204.306640625 c 1
 304.58203125 201.5546875 298.463867188 200.000976562 292 200.000976562 c 0
 285.536132812 200.000976562 279.41796875 201.5546875 274 204.306640625 c 1
 268.58203125 201.5546875 262.463867188 200.000976562 256 200.000976562 c 0
 249.536132812 200.000976562 243.41796875 201.5546875 238 204.306640625 c 1
 232.58203125 201.5546875 226.463867188 200.000976562 220 200.000976562 c 0
 213.536132812 200.000976562 207.41796875 201.5546875 202 204.306640625 c 1
 196.58203125 201.5546875 190.463867188 200.000976562 184 200.000976562 c 0
 177.536132812 200.000976562 171.41796875 201.5546875 166 204.306640625 c 1
 160.58203125 201.5546875 154.463867188 200.000976562 148 200.000976562 c 0
 141.536132812 200.000976562 135.41796875 201.5546875 130 204.306640625 c 1
 124.58203125 201.5546875 118.463867188 200.000976562 112 200.000976562 c 0
 105.536132812 200.000976562 99.41796875 201.5546875 94 204.306640625 c 1
 88.58203125 201.5546875 82.4638671875 200.000976562 76 200.000976562 c 0
 69.5361328125 200.000976562 63.41796875 201.5546875 58 204.306640625 c 1
 52.58203125 201.5546875 46.4638671875 200.000976562 40 200.000976562 c 0
 18 200.000976562 0 218.000976562 0 240.000976562 c 0
216 340.000976562 m 0
 216 362.000976562 234 380.000976562 256 380.000976562 c 0
 262.463867188 380.000976562 268.58203125 378.447265625 274 375.6953125 c 1
 279.41796875 378.447265625 285.536132812 380.000976562 292 380.000976562 c 0
 314 380.000976562 332 362.000976562 332 340.000976562 c 0
 332 318.000976562 314 300.000976562 292 300.000976562 c 0
 285.536132812 300.000976562 279.41796875 301.5546875 274 304.306640625 c 1
 268.58203125 301.5546875 262.463867188 300.000976562 256 300.000976562 c 0
 234 300.000976562 216 318.000976562 216 340.000976562 c 0
36 340.000976562 m 0
 36 362.000976562 54 380.000976562 76 380.000976562 c 0
 82.4638671875 380.000976562 88.58203125 378.447265625 94 375.6953125 c 1
 99.41796875 378.447265625 105.536132812 380.000976562 112 380.000976562 c 0
 134 380.000976562 152 362.000976562 152 340.000976562 c 0
 152 318.000976562 134 300.000976562 112 300.000976562 c 0
 105.536132812 300.000976562 99.41796875 301.5546875 94 304.306640625 c 1
 88.58203125 301.5546875 82.4638671875 300.000976562 76 300.000976562 c 0
 54 300.000976562 36 318.000976562 36 340.000976562 c 0
216 440.000976562 m 0
 216 462.000976562 234 480.000976562 256 480.000976562 c 0
 262.463867188 480.000976562 268.58203125 478.447265625 274 475.6953125 c 1
 279.41796875 478.447265625 285.536132812 480.000976562 292 480.000976562 c 0
 314 480.000976562 332 462.000976562 332 440.000976562 c 0
 332 418.000976562 314 400.000976562 292 400.000976562 c 0
 285.536132812 400.000976562 279.41796875 401.5546875 274 404.306640625 c 1
 268.58203125 401.5546875 262.463867188 400.000976562 256 400.000976562 c 0
 234 400.000976562 216 418.000976562 216 440.000976562 c 0
72 440.000976562 m 0
 72 462.000976562 90 480.000976562 112 480.000976562 c 0
 118.463867188 480.000976562 124.58203125 478.447265625 130 475.6953125 c 1
 135.41796875 478.447265625 141.536132812 480.000976562 148 480.000976562 c 0
 170 480.000976562 188 462.000976562 188 440.000976562 c 0
 188 418.000976562 170 400.000976562 148 400.000976562 c 0
 141.536132812 400.000976562 135.41796875 401.5546875 130 404.306640625 c 1
 124.58203125 401.5546875 118.463867188 400.000976562 112 400.000976562 c 0
 90 400.000976562 72 418.000976562 72 440.000976562 c 0
108 540.000976562 m 0
 108 562.000976562 126 580.000976562 148 580.000976562 c 0
 154.463867188 580.000976562 160.58203125 578.447265625 166 575.6953125 c 1
 171.41796875 578.447265625 177.536132812 580.000976562 184 580.000976562 c 0
 199.780273438 580.000976562 213.501953125 570.740234375 220 557.384765625 c 1
 226.498046875 570.740234375 240.219726562 580.000976562 256 580.000976562 c 0
 262.463867188 580.000976562 268.58203125 578.447265625 274 575.6953125 c 1
 279.41796875 578.447265625 285.536132812 580.000976562 292 580.000976562 c 0
 314 580.000976562 332 562.000976562 332 540.000976562 c 0
 332 518.000976562 314 500.000976562 292 500.000976562 c 0
 285.536132812 500.000976562 279.41796875 501.5546875 274 504.306640625 c 1
 268.58203125 501.5546875 262.463867188 500.000976562 256 500.000976562 c 0
 240.219726562 500.000976562 226.498046875 509.26171875 220 522.6171875 c 1
 213.501953125 509.26171875 199.780273438 500.000976562 184 500.000976562 c 0
 177.536132812 500.000976562 171.41796875 501.5546875 166 504.306640625 c 1
 160.58203125 501.5546875 154.463867188 500.000976562 148 500.000976562 c 0
 126 500.000976562 108 518.000976562 108 540.000976562 c 0
144 640.000976562 m 0
 144 662.000976562 162 680.000976562 184 680.000976562 c 0
 190.463867188 680.000976562 196.58203125 678.447265625 202 675.6953125 c 1
 207.41796875 678.447265625 213.536132812 680.000976562 220 680.000976562 c 0
 226.463867188 680.000976562 232.58203125 678.447265625 238 675.6953125 c 1
 243.41796875 678.447265625 249.536132812 680.000976562 256 680.000976562 c 0
 262.463867188 680.000976562 268.58203125 678.447265625 274 675.6953125 c 1
 279.41796875 678.447265625 285.536132812 680.000976562 292 680.000976562 c 0
 314 680.000976562 332 662.000976562 332 640.000976562 c 0
 332 618.000976562 314 600.000976562 292 600.000976562 c 0
 285.536132812 600.000976562 279.41796875 601.5546875 274 604.306640625 c 1
 268.58203125 601.5546875 262.463867188 600.000976562 256 600.000976562 c 0
 249.536132812 600.000976562 243.41796875 601.5546875 238 604.306640625 c 1
 232.58203125 601.5546875 226.463867188 600.000976562 220 600.000976562 c 0
 213.536132812 600.000976562 207.41796875 601.5546875 202 604.306640625 c 1
 196.58203125 601.5546875 190.463867188 600.000976562 184 600.000976562 c 0
 162 600.000976562 144 618.000976562 144 640.000976562 c 0
EndSplineSet
EndChar

StartChar: five
Encoding: 53 53 22
Width: 432
GlyphClass: 2
Flags: MW
HStem: 0 80 100 80 200 80 300 80 400 80 500 80 600 80
LayerCount: 2
Fore
SplineSet
36 40 m 0
 36 62 54 80.0009765625 76 80.0009765625 c 0
 82.4638671875 80.0009765625 88.58203125 78.447265625 94 75.6953125 c 1
 99.41796875 78.447265625 105.536132812 80.0009765625 112 80.0009765625 c 0
 118.463867188 80.0009765625 124.58203125 78.447265625 130 75.6953125 c 1
 135.41796875 78.447265625 141.536132812 80.0009765625 148 80.0009765625 c 0
 154.463867188 80.0009765625 160.58203125 78.447265625 166 75.6953125 c 1
 171.41796875 78.447265625 177.536132812 80.0009765625 184 80.0009765625 c 0
 190.463867188 80.0009765625 196.58203125 78.447265625 202 75.6953125 c 1
 207.41796875 78.447265625 213.536132812 80.0009765625 220 80.0009765625 c 0
 226.463867188 80.0009765625 232.58203125 78.447265625 238 75.6953125 c 1
 243.41796875 78.447265625 249.536132812 80.0009765625 256 80.0009765625 c 0
 262.463867188 80.0009765625 268.58203125 78.447265625 274 75.6953125 c 1
 279.41796875 78.447265625 285.536132812 80.0009765625 292 80.0009765625 c 0
 298.463867188 80.0009765625 304.58203125 78.447265625 310 75.6953125 c 1
 315.41796875 78.447265625 321.536132812 80.0009765625 328 80.0009765625 c 0
 350 80.0009765625 368 62.0009765625 368 40.0009765625 c 0
 368 18.0009765625 350 0.0009765625 328 0.0009765625 c 0
 321.536132812 0.0009765625 315.41796875 1.5546875 310 4.306640625 c 1
 304.58203125 1.5546875 298.463867188 0.0009765625 292 0.0009765625 c 0
 285.536132812 0.0009765625 279.41796875 1.5546875 274 4.306640625 c 1
 268.58203125 1.5546875 262.463867188 0.0009765625 256 0.0009765625 c 0
 249.536132812 0.0009765625 243.41796875 1.5546875 238 4.306640625 c 1
 232.58203125 1.5546875 226.463867188 0.0009765625 220 0.0009765625 c 0
 213.536132812 0.0009765625 207.41796875 1.5546875 202 4.306640625 c 1
 196.58203125 1.5546875 190.463867188 0.0009765625 184 0.0009765625 c 0
 177.536132812 0.0009765625 171.41796875 1.5546875 166 4.306640625 c 1
 160.58203125 1.5546875 154.463867188 0.0009765625 148 0.0009765625 c 0
 141.536132812 0.0009765625 135.41796875 1.5546875 130 4.306640625 c 1
 124.58203125 1.5546875 118.463867188 0.0009765625 112 0.0009765625 c 0
 105.536132812 0.0009765625 99.41796875 1.5546875 94 4.306640625 c 1
 88.58203125 1.5537109375 82.4638671875 0 76 0 c 0
 54 0 36 18 36 40 c 0
288 140.000976562 m 0
 288 162.000976562 306 180.000976562 328 180.000976562 c 0
 334.463867188 180.000976562 340.58203125 178.447265625 346 175.6953125 c 1
 351.41796875 178.447265625 357.536132812 180.000976562 364 180.000976562 c 0
 386 180.000976562 404 162.000976562 404 140.000976562 c 0
 404 118.000976562 386 100.000976562 364 100.000976562 c 0
 357.536132812 100.000976562 351.41796875 101.5546875 346 104.306640625 c 1
 340.58203125 101.5546875 334.463867188 100.000976562 328 100.000976562 c 0
 306 100.000976562 288 118.000976562 288 140.000976562 c 0
0 140.000976562 m 0
 0 162.000976562 18 180.000976562 40 180.000976562 c 0
 46.4638671875 180.000976562 52.58203125 178.447265625 58 175.6953125 c 1
 63.41796875 178.447265625 69.5361328125 180.000976562 76 180.000976562 c 0
 98 180.000976562 116 162.000976562 116 140.000976562 c 0
 116 118.000976562 98 100.000976562 76 100.000976562 c 0
 69.5361328125 100.000976562 63.41796875 101.5546875 58 104.306640625 c 1
 52.58203125 101.5546875 46.4638671875 100.000976562 40 100.000976562 c 0
 18 100.000976562 0 118.000976562 0 140.000976562 c 0
288 240.000976562 m 0
 288 262.000976562 306 280.000976562 328 280.000976562 c 0
 334.463867188 280.000976562 340.58203125 278.447265625 346 275.6953125 c 1
 351.41796875 278.447265625 357.536132812 280.000976562 364 280.000976562 c 0
 386 280.000976562 404 262.000976562 404 240.000976562 c 0
 404 218.000976562 386 200.000976562 364 200.000976562 c 0
 357.536132812 200.000976562 351.41796875 201.5546875 346 204.306640625 c 1
 340.58203125 201.5546875 334.463867188 200.000976562 328 200.000976562 c 0
 306 200.000976562 288 218.000976562 288 240.000976562 c 0
288 340.000976562 m 0
 288 362.000976562 306 380.000976562 328 380.000976562 c 0
 334.463867188 380.000976562 340.58203125 378.447265625 346 375.6953125 c 1
 351.41796875 378.447265625 357.536132812 380.000976562 364 380.000976562 c 0
 386 380.000976562 404 362.000976562 404 340.000976562 c 0
 404 318.000976562 386 300.000976562 364 300.000976562 c 0
 357.536132812 300.000976562 351.41796875 301.5546875 346 304.306640625 c 1
 340.58203125 301.5546875 334.463867188 300.000976562 328 300.000976562 c 0
 306 300.000976562 288 318.000976562 288 340.000976562 c 0
0 440.000976562 m 0
 0 462.000976562 18 480.000976562 40 480.000976562 c 0
 46.4638671875 480.000976562 52.58203125 478.447265625 58 475.6953125 c 1
 63.41796875 478.447265625 69.5361328125 480.000976562 76 480.000976562 c 0
 82.4638671875 480.000976562 88.58203125 478.447265625 94 475.6953125 c 1
 99.41796875 478.447265625 105.536132812 480.000976562 112 480.000976562 c 0
 118.463867188 480.000976562 124.58203125 478.447265625 130 475.6953125 c 1
 135.41796875 478.447265625 141.536132812 480.000976562 148 480.000976562 c 0
 154.463867188 480.000976562 160.58203125 478.447265625 166 475.6953125 c 1
 171.41796875 478.447265625 177.536132812 480.000976562 184 480.000976562 c 0
 190.463867188 480.000976562 196.58203125 478.447265625 202 475.6953125 c 1
 207.41796875 478.447265625 213.536132812 480.000976562 220 480.000976562 c 0
 226.463867188 480.000976562 232.58203125 478.447265625 238 475.6953125 c 1
 243.41796875 478.447265625 249.536132812 480.000976562 256 480.000976562 c 0
 262.463867188 480.000976562 268.58203125 478.447265625 274 475.6953125 c 1
 279.41796875 478.447265625 285.536132812 480.000976562 292 480.000976562 c 0
 314 480.000976562 332 462.000976562 332 440.000976562 c 0
 332 418.000976562 314 400.000976562 292 400.000976562 c 0
 285.536132812 400.000976562 279.41796875 401.5546875 274 404.306640625 c 1
 268.58203125 401.5546875 262.463867188 400.000976562 256 400.000976562 c 0
 249.536132812 400.000976562 243.41796875 401.5546875 238 404.306640625 c 1
 232.58203125 401.5546875 226.463867188 400.000976562 220 400.000976562 c 0
 213.536132812 400.000976562 207.41796875 401.5546875 202 404.306640625 c 1
 196.58203125 401.5546875 190.463867188 400.000976562 184 400.000976562 c 0
 177.536132812 400.000976562 171.41796875 401.5546875 166 404.306640625 c 1
 160.58203125 401.5546875 154.463867188 400.000976562 148 400.000976562 c 0
 141.536132812 400.000976562 135.41796875 401.5546875 130 404.306640625 c 1
 124.58203125 401.5546875 118.463867188 400.000976562 112 400.000976562 c 0
 105.536132812 400.000976562 99.41796875 401.5546875 94 404.306640625 c 1
 88.58203125 401.5546875 82.4638671875 400.000976562 76 400.000976562 c 0
 69.5361328125 400.000976562 63.41796875 401.5546875 58 404.306640625 c 1
 52.58203125 401.5546875 46.4638671875 400.000976562 40 400.000976562 c 0
 18 400.000976562 0 418.000976562 0 440.000976562 c 0
0 540.000976562 m 0
 0 562.000976562 18 580.000976562 40 580.000976562 c 0
 46.4638671875 580.000976562 52.58203125 578.447265625 58 575.6953125 c 1
 63.41796875 578.447265625 69.5361328125 580.000976562 76 580.000976562 c 0
 98 580.000976562 116 562.000976562 116 540.000976562 c 0
 116 518.000976562 98 500.000976562 76 500.000976562 c 0
 69.5361328125 500.000976562 63.41796875 501.5546875 58 504.306640625 c 1
 52.58203125 501.5546875 46.4638671875 500.000976562 40 500.000976562 c 0
 18 500.000976562 0 518.000976562 0 540.000976562 c 0
0 640.000976562 m 0
 0 662.000976562 18 680.000976562 40 680.000976562 c 0
 46.4638671875 680.000976562 52.58203125 678.447265625 58 675.6953125 c 1
 63.41796875 678.447265625 69.5361328125 680.000976562 76 680.000976562 c 0
 82.4638671875 680.000976562 88.58203125 678.447265625 94 675.6953125 c 1
 99.41796875 678.447265625 105.536132812 680.000976562 112 680.000976562 c 0
 118.463867188 680.000976562 124.58203125 678.447265625 130 675.6953125 c 1
 135.41796875 678.447265625 141.536132812 680.000976562 148 680.000976562 c 0
 154.463867188 680.000976562 160.58203125 678.447265625 166 675.6953125 c 1
 171.41796875 678.447265625 177.536132812 680.000976562 184 680.000976562 c 0
 190.463867188 680.000976562 196.58203125 678.447265625 202 675.6953125 c 1
 207.41796875 678.447265625 213.536132812 680.000976562 220 680.000976562 c 0
 226.463867188 680.000976562 232.58203125 678.447265625 238 675.6953125 c 1
 243.41796875 678.447265625 249.536132812 680.000976562 256 680.000976562 c 0
 262.463867188 680.000976562 268.58203125 678.447265625 274 675.6953125 c 1
 279.41796875 678.447265625 285.536132812 680.000976562 292 680.000976562 c 0
 298.463867188 680.000976562 304.58203125 678.447265625 310 675.6953125 c 1
 315.41796875 678.447265625 321.536132812 680.000976562 328 680.000976562 c 0
 334.463867188 680.000976562 340.58203125 678.447265625 346 675.6953125 c 1
 351.41796875 678.447265625 357.536132812 680.000976562 364 680.000976562 c 0
 386 680.000976562 404 662.000976562 404 640.000976562 c 0
 404 618.000976562 386 600.000976562 364 600.000976562 c 0
 357.536132812 600.000976562 351.41796875 601.5546875 346 604.306640625 c 1
 340.58203125 601.5546875 334.463867188 600.000976562 328 600.000976562 c 0
 321.536132812 600.000976562 315.41796875 601.5546875 310 604.306640625 c 1
 304.58203125 601.5546875 298.463867188 600.000976562 292 600.000976562 c 0
 285.536132812 600.000976562 279.41796875 601.5546875 274 604.306640625 c 1
 268.58203125 601.5546875 262.463867188 600.000976562 256 600.000976562 c 0
 249.536132812 600.000976562 243.41796875 601.5546875 238 604.306640625 c 1
 232.58203125 601.5546875 226.463867188 600.000976562 220 600.000976562 c 0
 213.536132812 600.000976562 207.41796875 601.5546875 202 604.306640625 c 1
 196.58203125 601.5546875 190.463867188 600.000976562 184 600.000976562 c 0
 177.536132812 600.000976562 171.41796875 601.5546875 166 604.306640625 c 1
 160.58203125 601.5546875 154.463867188 600.000976562 148 600.000976562 c 0
 141.536132812 600.000976562 135.41796875 601.5546875 130 604.306640625 c 1
 124.58203125 601.5546875 118.463867188 600.000976562 112 600.000976562 c 0
 105.536132812 600.000976562 99.41796875 601.5546875 94 604.306640625 c 1
 88.58203125 601.5546875 82.4638671875 600.000976562 76 600.000976562 c 0
 69.5361328125 600.000976562 63.41796875 601.5546875 58 604.306640625 c 1
 52.58203125 601.5546875 46.4638671875 600.000976562 40 600.000976562 c 0
 18 600.000976562 0 618.000976562 0 640.000976562 c 0
EndSplineSet
EndChar

StartChar: six
Encoding: 54 54 23
Width: 432
GlyphClass: 2
Flags: MW
HStem: 0 80 100 80 200 80 300 80 400 80 500 80 600 80
LayerCount: 2
Fore
SplineSet
36 40 m 0
 36 62 54 80.0009765625 76 80.0009765625 c 0
 82.4638671875 80.0009765625 88.58203125 78.447265625 94 75.6953125 c 1
 99.41796875 78.447265625 105.536132812 80.0009765625 112 80.0009765625 c 0
 118.463867188 80.0009765625 124.58203125 78.447265625 130 75.6953125 c 1
 135.41796875 78.447265625 141.536132812 80.0009765625 148 80.0009765625 c 0
 154.463867188 80.0009765625 160.58203125 78.447265625 166 75.6953125 c 1
 171.41796875 78.447265625 177.536132812 80.0009765625 184 80.0009765625 c 0
 190.463867188 80.0009765625 196.58203125 78.447265625 202 75.6953125 c 1
 207.41796875 78.447265625 213.536132812 80.0009765625 220 80.0009765625 c 0
 226.463867188 80.0009765625 232.58203125 78.447265625 238 75.6953125 c 1
 243.41796875 78.447265625 249.536132812 80.0009765625 256 80.0009765625 c 0
 262.463867188 80.0009765625 268.58203125 78.447265625 274 75.6953125 c 1
 279.41796875 78.447265625 285.536132812 80.0009765625 292 80.0009765625 c 0
 298.463867188 80.0009765625 304.58203125 78.447265625 310 75.6953125 c 1
 315.41796875 78.447265625 321.536132812 80.0009765625 328 80.0009765625 c 0
 350 80.0009765625 368 62.0009765625 368 40.0009765625 c 0
 368 18.0009765625 350 0.0009765625 328 0.0009765625 c 0
 321.536132812 0.0009765625 315.41796875 1.5546875 310 4.306640625 c 1
 304.58203125 1.5546875 298.463867188 0.0009765625 292 0.0009765625 c 0
 285.536132812 0.0009765625 279.41796875 1.5546875 274 4.306640625 c 1
 268.58203125 1.5546875 262.463867188 0.0009765625 256 0.0009765625 c 0
 249.536132812 0.0009765625 243.41796875 1.5546875 238 4.306640625 c 1
 232.58203125 1.5546875 226.463867188 0.0009765625 220 0.0009765625 c 0
 213.536132812 0.0009765625 207.41796875 1.5546875 202 4.306640625 c 1
 196.58203125 1.5546875 190.463867188 0.0009765625 184 0.0009765625 c 0
 177.536132812 0.0009765625 171.41796875 1.5546875 166 4.306640625 c 1
 160.58203125 1.5546875 154.463867188 0.0009765625 148 0.0009765625 c 0
 141.536132812 0.0009765625 135.41796875 1.5546875 130 4.306640625 c 1
 124.58203125 1.5546875 118.463867188 0.0009765625 112 0.0009765625 c 0
 105.536132812 0.0009765625 99.41796875 1.5546875 94 4.306640625 c 1
 88.58203125 1.5537109375 82.4638671875 0 76 0 c 0
 54 0 36 18 36 40 c 0
288 140.000976562 m 0
 288 162.000976562 306 180.000976562 328 180.000976562 c 0
 334.463867188 180.000976562 340.58203125 178.447265625 346 175.6953125 c 1
 351.41796875 178.447265625 357.536132812 180.000976562 364 180.000976562 c 0
 386 180.000976562 404 162.000976562 404 140.000976562 c 0
 404 118.000976562 386 100.000976562 364 100.000976562 c 0
 357.536132812 100.000976562 351.41796875 101.5546875 346 104.306640625 c 1
 340.58203125 101.5546875 334.463867188 100.000976562 328 100.000976562 c 0
 306 100.000976562 288 118.000976562 288 140.000976562 c 0
0 140.000976562 m 0
 0 162.000976562 18 180.000976562 40 180.000976562 c 0
 46.4638671875 180.000976562 52.58203125 178.447265625 58 175.6953125 c 1
 63.41796875 178.447265625 69.5361328125 180.000976562 76 180.000976562 c 0
 98 180.000976562 116 162.000976562 116 140.000976562 c 0
 116 118.000976562 98 100.000976562 76 100.000976562 c 0
 69.5361328125 100.000976562 63.41796875 101.5546875 58 104.306640625 c 1
 52.58203125 101.5546875 46.4638671875 100.000976562 40 100.000976562 c 0
 18 100.000976562 0 118.000976562 0 140.000976562 c 0
288 240.000976562 m 0
 288 262.000976562 306 280.000976562 328 280.000976562 c 0
 334.463867188 280.000976562 340.58203125 278.447265625 346 275.6953125 c 1
 351.41796875 278.447265625 357.536132812 280.000976562 364 280.000976562 c 0
 386 280.000976562 404 262.000976562 404 240.000976562 c 0
 404 218.000976562 386 200.000976562 364 200.000976562 c 0
 357.536132812 200.000976562 351.41796875 201.5546875 346 204.306640625 c 1
 340.58203125 201.5546875 334.463867188 200.000976562 328 200.000976562 c 0
 306 200.000976562 288 218.000976562 288 240.000976562 c 0
0 240.000976562 m 0
 0 262.000976562 18 280.000976562 40 280.000976562 c 0
 46.4638671875 280.000976562 52.58203125 278.447265625 58 275.6953125 c 1
 63.41796875 278.447265625 69.5361328125 280.000976562 76 280.000976562 c 0
 98 280.000976562 116 262.000976562 116 240.000976562 c 0
 116 218.000976562 98 200.000976562 76 200.000976562 c 0
 69.5361328125 200.000976562 63.41796875 201.5546875 58 204.306640625 c 1
 52.58203125 201.5546875 46.4638671875 200.000976562 40 200.000976562 c 0
 18 200.000976562 0 218.000976562 0 240.000976562 c 0
36 340.000976562 m 0
 36 362.000976562 54 380.000976562 76 380.000976562 c 0
 82.4638671875 380.000976562 88.58203125 378.447265625 94 375.6953125 c 1
 99.41796875 378.447265625 105.536132812 380.000976562 112 380.000976562 c 0
 118.463867188 380.000976562 124.58203125 378.447265625 130 375.6953125 c 1
 135.41796875 378.447265625 141.536132812 380.000976562 148 380.000976562 c 0
 154.463867188 380.000976562 160.58203125 378.447265625 166 375.6953125 c 1
 171.41796875 378.447265625 177.536132812 380.000976562 184 380.000976562 c 0
 190.463867188 380.000976562 196.58203125 378.447265625 202 375.6953125 c 1
 207.41796875 378.447265625 213.536132812 380.000976562 220 380.000976562 c 0
 226.463867188 380.000976562 232.58203125 378.447265625 238 375.6953125 c 1
 243.41796875 378.447265625 249.536132812 380.000976562 256 380.000976562 c 0
 262.463867188 380.000976562 268.58203125 378.447265625 274 375.6953125 c 1
 279.41796875 378.447265625 285.536132812 380.000976562 292 380.000976562 c 0
 298.463867188 380.000976562 304.58203125 378.447265625 310 375.6953125 c 1
 315.41796875 378.447265625 321.536132812 380.000976562 328 380.000976562 c 0
 350 380.000976562 368 362.000976562 368 340.000976562 c 0
 368 318.000976562 350 300.000976562 328 300.000976562 c 0
 321.536132812 300.000976562 315.41796875 301.5546875 310 304.306640625 c 1
 304.58203125 301.5546875 298.463867188 300.000976562 292 300.000976562 c 0
 285.536132812 300.000976562 279.41796875 301.5546875 274 304.306640625 c 1
 268.58203125 301.5546875 262.463867188 300.000976562 256 300.000976562 c 0
 249.536132812 300.000976562 243.41796875 301.5546875 238 304.306640625 c 1
 232.58203125 301.5546875 226.463867188 300.000976562 220 300.000976562 c 0
 213.536132812 300.000976562 207.41796875 301.5546875 202 304.306640625 c 1
 196.58203125 301.5546875 190.463867188 300.000976562 184 300.000976562 c 0
 177.536132812 300.000976562 171.41796875 301.5546875 166 304.306640625 c 1
 160.58203125 301.5546875 154.463867188 300.000976562 148 300.000976562 c 0
 141.536132812 300.000976562 135.41796875 301.5546875 130 304.306640625 c 1
 124.58203125 301.5546875 118.463867188 300.000976562 112 300.000976562 c 0
 105.536132812 300.000976562 99.41796875 301.5546875 94 304.306640625 c 1
 88.58203125 301.5546875 82.4638671875 300.000976562 76 300.000976562 c 0
 54 300.000976562 36 318.000976562 36 340.000976562 c 0
72 440.000976562 m 0
 72 462.000976562 90 480.000976562 112 480.000976562 c 0
 118.463867188 480.000976562 124.58203125 478.447265625 130 475.6953125 c 1
 135.41796875 478.447265625 141.536132812 480.000976562 148 480.000976562 c 0
 170 480.000976562 188 462.000976562 188 440.000976562 c 0
 188 418.000976562 170 400.000976562 148 400.000976562 c 0
 141.536132812 400.000976562 135.41796875 401.5546875 130 404.306640625 c 1
 124.58203125 401.5546875 118.463867188 400.000976562 112 400.000976562 c 0
 90 400.000976562 72 418.000976562 72 440.000976562 c 0
108 540.000976562 m 0
 108 562.000976562 126 580.000976562 148 580.000976562 c 0
 154.463867188 580.000976562 160.58203125 578.447265625 166 575.6953125 c 1
 171.41796875 578.447265625 177.536132812 580.000976562 184 580.000976562 c 0
 206 580.000976562 224 562.000976562 224 540.000976562 c 0
 224 518.000976562 206 500.000976562 184 500.000976562 c 0
 177.536132812 500.000976562 171.41796875 501.5546875 166 504.306640625 c 1
 160.58203125 501.5546875 154.463867188 500.000976562 148 500.000976562 c 0
 126 500.000976562 108 518.000976562 108 540.000976562 c 0
144 640.000976562 m 0
 144 662.000976562 162 680.000976562 184 680.000976562 c 0
 190.463867188 680.000976562 196.58203125 678.447265625 202 675.6953125 c 1
 207.41796875 678.447265625 213.536132812 680.000976562 220 680.000976562 c 0
 242 680.000976562 260 662.000976562 260 640.000976562 c 0
 260 618.000976562 242 600.000976562 220 600.000976562 c 0
 213.536132812 600.000976562 207.41796875 601.5546875 202 604.306640625 c 1
 196.58203125 601.5546875 190.463867188 600.000976562 184 600.000976562 c 0
 162 600.000976562 144 618.000976562 144 640.000976562 c 0
EndSplineSet
EndChar

StartChar: seven
Encoding: 55 55 24
Width: 432
GlyphClass: 2
Flags: MW
HStem: 0 80 100 80 200 80 300 80 400 80 500 80 600 80
LayerCount: 2
Fore
SplineSet
72 40 m 0
 72 62 90 80.0009765625 112 80.0009765625 c 0
 118.463867188 80.0009765625 124.58203125 78.447265625 130 75.6953125 c 1
 135.41796875 78.447265625 141.536132812 80.0009765625 148 80.0009765625 c 0
 170 80.0009765625 188 62.0009765625 188 40.0009765625 c 0
 188 18.0009765625 170 0.0009765625 148 0.0009765625 c 0
 141.536132812 0.0009765625 135.41796875 1.5546875 130 4.306640625 c 1
 124.58203125 1.5537109375 118.463867188 0 112 0 c 0
 90 0 72 18 72 40 c 0
108 140.000976562 m 0
 108 162.000976562 126 180.000976562 148 180.000976562 c 0
 154.463867188 180.000976562 160.58203125 178.447265625 166 175.6953125 c 1
 171.41796875 178.447265625 177.536132812 180.000976562 184 180.000976562 c 0
 206 180.000976562 224 162.000976562 224 140.000976562 c 0
 224 118.000976562 206 100.000976562 184 100.000976562 c 0
 177.536132812 100.000976562 171.41796875 101.5546875 166 104.306640625 c 1
 160.58203125 101.5546875 154.463867188 100.000976562 148 100.000976562 c 0
 126 100.000976562 108 118.000976562 108 140.000976562 c 0
144 240.000976562 m 0
 144 262.000976562 162 280.000976562 184 280.000976562 c 0
 190.463867188 280.000976562 196.58203125 278.447265625 202 275.6953125 c 1
 207.41796875 278.447265625 213.536132812 280.000976562 220 280.000976562 c 0
 242 280.000976562 260 262.000976562 260 240.000976562 c 0
 260 218.000976562 242 200.000976562 220 200.000976562 c 0
 213.536132812 200.000976562 207.41796875 201.5546875 202 204.306640625 c 1
 196.58203125 201.5546875 190.463867188 200.000976562 184 200.000976562 c 0
 162 200.000976562 144 218.000976562 144 240.000976562 c 0
180 340.000976562 m 0
 180 362.000976562 198 380.000976562 220 380.000976562 c 0
 226.463867188 380.000976562 232.58203125 378.447265625 238 375.6953125 c 1
 243.41796875 378.447265625 249.536132812 380.000976562 256 380.000976562 c 0
 278 380.000976562 296 362.000976562 296 340.000976562 c 0
 296 318.000976562 278 300.000976562 256 300.000976562 c 0
 249.536132812 300.000976562 243.41796875 301.5546875 238 304.306640625 c 1
 232.58203125 301.5546875 226.463867188 300.000976562 220 300.000976562 c 0
 198 300.000976562 180 318.000976562 180 340.000976562 c 0
216 440.000976562 m 0
 216 462.000976562 234 480.000976562 256 480.000976562 c 0
 262.463867188 480.000976562 268.58203125 478.447265625 274 475.6953125 c 1
 279.41796875 478.447265625 285.536132812 480.000976562 292 480.000976562 c 0
 314 480.000976562 332 462.000976562 332 440.000976562 c 0
 332 418.000976562 314 400.000976562 292 400.000976562 c 0
 285.536132812 400.000976562 279.41796875 401.5546875 274 404.306640625 c 1
 268.58203125 401.5546875 262.463867188 400.000976562 256 400.000976562 c 0
 234 400.000976562 216 418.000976562 216 440.000976562 c 0
252 540.000976562 m 0
 252 562.000976562 270 580.000976562 292 580.000976562 c 0
 298.463867188 580.000976562 304.58203125 578.447265625 310 575.6953125 c 1
 315.41796875 578.447265625 321.536132812 580.000976562 328 580.000976562 c 0
 350 580.000976562 368 562.000976562 368 540.000976562 c 0
 368 518.000976562 350 500.000976562 328 500.000976562 c 0
 321.536132812 500.000976562 315.41796875 501.5546875 310 504.306640625 c 1
 304.58203125 501.5546875 298.463867188 500.000976562 292 500.000976562 c 0
 270 500.000976562 252 518.000976562 252 540.000976562 c 0
0 640.000976562 m 0
 0 662.000976562 18 680.000976562 40 680.000976562 c 0
 46.4638671875 680.000976562 52.58203125 678.447265625 58 675.6953125 c 1
 63.41796875 678.447265625 69.5361328125 680.000976562 76 680.000976562 c 0
 82.4638671875 680.000976562 88.58203125 678.447265625 94 675.6953125 c 1
 99.41796875 678.447265625 105.536132812 680.000976562 112 680.000976562 c 0
 118.463867188 680.000976562 124.58203125 678.447265625 130 675.6953125 c 1
 135.41796875 678.447265625 141.536132812 680.000976562 148 680.000976562 c 0
 154.463867188 680.000976562 160.58203125 678.447265625 166 675.6953125 c 1
 171.41796875 678.447265625 177.536132812 680.000976562 184 680.000976562 c 0
 190.463867188 680.000976562 196.58203125 678.447265625 202 675.6953125 c 1
 207.41796875 678.447265625 213.536132812 680.000976562 220 680.000976562 c 0
 226.463867188 680.000976562 232.58203125 678.447265625 238 675.6953125 c 1
 243.41796875 678.447265625 249.536132812 680.000976562 256 680.000976562 c 0
 262.463867188 680.000976562 268.58203125 678.447265625 274 675.6953125 c 1
 279.41796875 678.447265625 285.536132812 680.000976562 292 680.000976562 c 0
 298.463867188 680.000976562 304.58203125 678.447265625 310 675.6953125 c 1
 315.41796875 678.447265625 321.536132812 680.000976562 328 680.000976562 c 0
 334.463867188 680.000976562 340.58203125 678.447265625 346 675.6953125 c 1
 351.41796875 678.447265625 357.536132812 680.000976562 364 680.000976562 c 0
 386 680.000976562 404 662.000976562 404 640.000976562 c 0
 404 618.000976562 386 600.000976562 364 600.000976562 c 0
 357.536132812 600.000976562 351.41796875 601.5546875 346 604.306640625 c 1
 340.58203125 601.5546875 334.463867188 600.000976562 328 600.000976562 c 0
 321.536132812 600.000976562 315.41796875 601.5546875 310 604.306640625 c 1
 304.58203125 601.5546875 298.463867188 600.000976562 292 600.000976562 c 0
 285.536132812 600.000976562 279.41796875 601.5546875 274 604.306640625 c 1
 268.58203125 601.5546875 262.463867188 600.000976562 256 600.000976562 c 0
 249.536132812 600.000976562 243.41796875 601.5546875 238 604.306640625 c 1
 232.58203125 601.5546875 226.463867188 600.000976562 220 600.000976562 c 0
 213.536132812 600.000976562 207.41796875 601.5546875 202 604.306640625 c 1
 196.58203125 601.5546875 190.463867188 600.000976562 184 600.000976562 c 0
 177.536132812 600.000976562 171.41796875 601.5546875 166 604.306640625 c 1
 160.58203125 601.5546875 154.463867188 600.000976562 148 600.000976562 c 0
 141.536132812 600.000976562 135.41796875 601.5546875 130 604.306640625 c 1
 124.58203125 601.5546875 118.463867188 600.000976562 112 600.000976562 c 0
 105.536132812 600.000976562 99.41796875 601.5546875 94 604.306640625 c 1
 88.58203125 601.5546875 82.4638671875 600.000976562 76 600.000976562 c 0
 69.5361328125 600.000976562 63.41796875 601.5546875 58 604.306640625 c 1
 52.58203125 601.5546875 46.4638671875 600.000976562 40 600.000976562 c 0
 18 600.000976562 0 618.000976562 0 640.000976562 c 0
EndSplineSet
EndChar

StartChar: eight
Encoding: 56 56 25
Width: 432
GlyphClass: 2
Flags: MW
HStem: 0 80 100 80 200 80 300 80 400 80 500 80 600 80
LayerCount: 2
Fore
SplineSet
36 40 m 0
 36 62 54 80.0009765625 76 80.0009765625 c 0
 82.4638671875 80.0009765625 88.58203125 78.447265625 94 75.6953125 c 1
 99.41796875 78.447265625 105.536132812 80.0009765625 112 80.0009765625 c 0
 118.463867188 80.0009765625 124.58203125 78.447265625 130 75.6953125 c 1
 135.41796875 78.447265625 141.536132812 80.0009765625 148 80.0009765625 c 0
 154.463867188 80.0009765625 160.58203125 78.447265625 166 75.6953125 c 1
 171.41796875 78.447265625 177.536132812 80.0009765625 184 80.0009765625 c 0
 190.463867188 80.0009765625 196.58203125 78.447265625 202 75.6953125 c 1
 207.41796875 78.447265625 213.536132812 80.0009765625 220 80.0009765625 c 0
 226.463867188 80.0009765625 232.58203125 78.447265625 238 75.6953125 c 1
 243.41796875 78.447265625 249.536132812 80.0009765625 256 80.0009765625 c 0
 262.463867188 80.0009765625 268.58203125 78.447265625 274 75.6953125 c 1
 279.41796875 78.447265625 285.536132812 80.0009765625 292 80.0009765625 c 0
 298.463867188 80.0009765625 304.58203125 78.447265625 310 75.6953125 c 1
 315.41796875 78.447265625 321.536132812 80.0009765625 328 80.0009765625 c 0
 350 80.0009765625 368 62.0009765625 368 40.0009765625 c 0
 368 18.0009765625 350 0.0009765625 328 0.0009765625 c 0
 321.536132812 0.0009765625 315.41796875 1.5546875 310 4.306640625 c 1
 304.58203125 1.5546875 298.463867188 0.0009765625 292 0.0009765625 c 0
 285.536132812 0.0009765625 279.41796875 1.5546875 274 4.306640625 c 1
 268.58203125 1.5546875 262.463867188 0.0009765625 256 0.0009765625 c 0
 249.536132812 0.0009765625 243.41796875 1.5546875 238 4.306640625 c 1
 232.58203125 1.5546875 226.463867188 0.0009765625 220 0.0009765625 c 0
 213.536132812 0.0009765625 207.41796875 1.5546875 202 4.306640625 c 1
 196.58203125 1.5546875 190.463867188 0.0009765625 184 0.0009765625 c 0
 177.536132812 0.0009765625 171.41796875 1.5546875 166 4.306640625 c 1
 160.58203125 1.5546875 154.463867188 0.0009765625 148 0.0009765625 c 0
 141.536132812 0.0009765625 135.41796875 1.5546875 130 4.306640625 c 1
 124.58203125 1.5546875 118.463867188 0.0009765625 112 0.0009765625 c 0
 105.536132812 0.0009765625 99.41796875 1.5546875 94 4.306640625 c 1
 88.58203125 1.5537109375 82.4638671875 0 76 0 c 0
 54 0 36 18 36 40 c 0
288 140.000976562 m 0
 288 162.000976562 306 180.000976562 328 180.000976562 c 0
 334.463867188 180.000976562 340.58203125 178.447265625 346 175.6953125 c 1
 351.41796875 178.447265625 357.536132812 180.000976562 364 180.000976562 c 0
 386 180.000976562 404 162.000976562 404 140.000976562 c 0
 404 118.000976562 386 100.000976562 364 100.000976562 c 0
 357.536132812 100.000976562 351.41796875 101.5546875 346 104.306640625 c 1
 340.58203125 101.5546875 334.463867188 100.000976562 328 100.000976562 c 0
 306 100.000976562 288 118.000976562 288 140.000976562 c 0
0 140.000976562 m 0
 0 162.000976562 18 180.000976562 40 180.000976562 c 0
 46.4638671875 180.000976562 52.58203125 178.447265625 58 175.6953125 c 1
 63.41796875 178.447265625 69.5361328125 180.000976562 76 180.000976562 c 0
 98 180.000976562 116 162.000976562 116 140.000976562 c 0
 116 118.000976562 98 100.000976562 76 100.000976562 c 0
 69.5361328125 100.000976562 63.41796875 101.5546875 58 104.306640625 c 1
 52.58203125 101.5546875 46.4638671875 100.000976562 40 100.000976562 c 0
 18 100.000976562 0 118.000976562 0 140.000976562 c 0
288 240.000976562 m 0
 288 262.000976562 306 280.000976562 328 280.000976562 c 0
 334.463867188 280.000976562 340.58203125 278.447265625 346 275.6953125 c 1
 351.41796875 278.447265625 357.536132812 280.000976562 364 280.000976562 c 0
 386 280.000976562 404 262.000976562 404 240.000976562 c 0
 404 218.000976562 386 200.000976562 364 200.000976562 c 0
 357.536132812 200.000976562 351.41796875 201.5546875 346 204.306640625 c 1
 340.58203125 201.5546875 334.463867188 200.000976562 328 200.000976562 c 0
 306 200.000976562 288 218.000976562 288 240.000976562 c 0
0 240.000976562 m 0
 0 262.000976562 18 280.000976562 40 280.000976562 c 0
 46.4638671875 280.000976562 52.58203125 278.447265625 58 275.6953125 c 1
 63.41796875 278.447265625 69.5361328125 280.000976562 76 280.000976562 c 0
 98 280.000976562 116 262.000976562 116 240.000976562 c 0
 116 218.000976562 98 200.000976562 76 200.000976562 c 0
 69.5361328125 200.000976562 63.41796875 201.5546875 58 204.306640625 c 1
 52.58203125 201.5546875 46.4638671875 200.000976562 40 200.000976562 c 0
 18 200.000976562 0 218.000976562 0 240.000976562 c 0
36 340.000976562 m 0
 36 362.000976562 54 380.000976562 76 380.000976562 c 0
 82.4638671875 380.000976562 88.58203125 378.447265625 94 375.6953125 c 1
 99.41796875 378.447265625 105.536132812 380.000976562 112 380.000976562 c 0
 118.463867188 380.000976562 124.58203125 378.447265625 130 375.6953125 c 1
 135.41796875 378.447265625 141.536132812 380.000976562 148 380.000976562 c 0
 154.463867188 380.000976562 160.58203125 378.447265625 166 375.6953125 c 1
 171.41796875 378.447265625 177.536132812 380.000976562 184 380.000976562 c 0
 190.463867188 380.000976562 196.58203125 378.447265625 202 375.6953125 c 1
 207.41796875 378.447265625 213.536132812 380.000976562 220 380.000976562 c 0
 226.463867188 380.000976562 232.58203125 378.447265625 238 375.6953125 c 1
 243.41796875 378.447265625 249.536132812 380.000976562 256 380.000976562 c 0
 262.463867188 380.000976562 268.58203125 378.447265625 274 375.6953125 c 1
 279.41796875 378.447265625 285.536132812 380.000976562 292 380.000976562 c 0
 298.463867188 380.000976562 304.58203125 378.447265625 310 375.6953125 c 1
 315.41796875 378.447265625 321.536132812 380.000976562 328 380.000976562 c 0
 350 380.000976562 368 362.000976562 368 340.000976562 c 0
 368 318.000976562 350 300.000976562 328 300.000976562 c 0
 321.536132812 300.000976562 315.41796875 301.5546875 310 304.306640625 c 1
 304.58203125 301.5546875 298.463867188 300.000976562 292 300.000976562 c 0
 285.536132812 300.000976562 279.41796875 301.5546875 274 304.306640625 c 1
 268.58203125 301.5546875 262.463867188 300.000976562 256 300.000976562 c 0
 249.536132812 300.000976562 243.41796875 301.5546875 238 304.306640625 c 1
 232.58203125 301.5546875 226.463867188 300.000976562 220 300.000976562 c 0
 213.536132812 300.000976562 207.41796875 301.5546875 202 304.306640625 c 1
 196.58203125 301.5546875 190.463867188 300.000976562 184 300.000976562 c 0
 177.536132812 300.000976562 171.41796875 301.5546875 166 304.306640625 c 1
 160.58203125 301.5546875 154.463867188 300.000976562 148 300.000976562 c 0
 141.536132812 300.000976562 135.41796875 301.5546875 130 304.306640625 c 1
 124.58203125 301.5546875 118.463867188 300.000976562 112 300.000976562 c 0
 105.536132812 300.000976562 99.41796875 301.5546875 94 304.306640625 c 1
 88.58203125 301.5546875 82.4638671875 300.000976562 76 300.000976562 c 0
 54 300.000976562 36 318.000976562 36 340.000976562 c 0
288 440.000976562 m 0
 288 462.000976562 306 480.000976562 328 480.000976562 c 0
 334.463867188 480.000976562 340.58203125 478.447265625 346 475.6953125 c 1
 351.41796875 478.447265625 357.536132812 480.000976562 364 480.000976562 c 0
 386 480.000976562 404 462.000976562 404 440.000976562 c 0
 404 418.000976562 386 400.000976562 364 400.000976562 c 0
 357.536132812 400.000976562 351.41796875 401.5546875 346 404.306640625 c 1
 340.58203125 401.5546875 334.463867188 400.000976562 328 400.000976562 c 0
 306 400.000976562 288 418.000976562 288 440.000976562 c 0
0 440.000976562 m 0
 0 462.000976562 18 480.000976562 40 480.000976562 c 0
 46.4638671875 480.000976562 52.58203125 478.447265625 58 475.6953125 c 1
 63.41796875 478.447265625 69.5361328125 480.000976562 76 480.000976562 c 0
 98 480.000976562 116 462.000976562 116 440.000976562 c 0
 116 418.000976562 98 400.000976562 76 400.000976562 c 0
 69.5361328125 400.000976562 63.41796875 401.5546875 58 404.306640625 c 1
 52.58203125 401.5546875 46.4638671875 400.000976562 40 400.000976562 c 0
 18 400.000976562 0 418.000976562 0 440.000976562 c 0
288 540.000976562 m 0
 288 562.000976562 306 580.000976562 328 580.000976562 c 0
 334.463867188 580.000976562 340.58203125 578.447265625 346 575.6953125 c 1
 351.41796875 578.447265625 357.536132812 580.000976562 364 580.000976562 c 0
 386 580.000976562 404 562.000976562 404 540.000976562 c 0
 404 518.000976562 386 500.000976562 364 500.000976562 c 0
 357.536132812 500.000976562 351.41796875 501.5546875 346 504.306640625 c 1
 340.58203125 501.5546875 334.463867188 500.000976562 328 500.000976562 c 0
 306 500.000976562 288 518.000976562 288 540.000976562 c 0
0 540.000976562 m 0
 0 562.000976562 18 580.000976562 40 580.000976562 c 0
 46.4638671875 580.000976562 52.58203125 578.447265625 58 575.6953125 c 1
 63.41796875 578.447265625 69.5361328125 580.000976562 76 580.000976562 c 0
 98 580.000976562 116 562.000976562 116 540.000976562 c 0
 116 518.000976562 98 500.000976562 76 500.000976562 c 0
 69.5361328125 500.000976562 63.41796875 501.5546875 58 504.306640625 c 1
 52.58203125 501.5546875 46.4638671875 500.000976562 40 500.000976562 c 0
 18 500.000976562 0 518.000976562 0 540.000976562 c 0
36 640.000976562 m 0
 36 662.000976562 54 680.000976562 76 680.000976562 c 0
 82.4638671875 680.000976562 88.58203125 678.447265625 94 675.6953125 c 1
 99.41796875 678.447265625 105.536132812 680.000976562 112 680.000976562 c 0
 118.463867188 680.000976562 124.58203125 678.447265625 130 675.6953125 c 1
 135.41796875 678.447265625 141.536132812 680.000976562 148 680.000976562 c 0
 154.463867188 680.000976562 160.58203125 678.447265625 166 675.6953125 c 1
 171.41796875 678.447265625 177.536132812 680.000976562 184 680.000976562 c 0
 190.463867188 680.000976562 196.58203125 678.447265625 202 675.6953125 c 1
 207.41796875 678.447265625 213.536132812 680.000976562 220 680.000976562 c 0
 226.463867188 680.000976562 232.58203125 678.447265625 238 675.6953125 c 1
 243.41796875 678.447265625 249.536132812 680.000976562 256 680.000976562 c 0
 262.463867188 680.000976562 268.58203125 678.447265625 274 675.6953125 c 1
 279.41796875 678.447265625 285.536132812 680.000976562 292 680.000976562 c 0
 298.463867188 680.000976562 304.58203125 678.447265625 310 675.6953125 c 1
 315.41796875 678.447265625 321.536132812 680.000976562 328 680.000976562 c 0
 350 680.000976562 368 662.000976562 368 640.000976562 c 0
 368 618.000976562 350 600.000976562 328 600.000976562 c 0
 321.536132812 600.000976562 315.41796875 601.5546875 310 604.306640625 c 1
 304.58203125 601.5546875 298.463867188 600.000976562 292 600.000976562 c 0
 285.536132812 600.000976562 279.41796875 601.5546875 274 604.306640625 c 1
 268.58203125 601.5546875 262.463867188 600.000976562 256 600.000976562 c 0
 249.536132812 600.000976562 243.41796875 601.5546875 238 604.306640625 c 1
 232.58203125 601.5546875 226.463867188 600.000976562 220 600.000976562 c 0
 213.536132812 600.000976562 207.41796875 601.5546875 202 604.306640625 c 1
 196.58203125 601.5546875 190.463867188 600.000976562 184 600.000976562 c 0
 177.536132812 600.000976562 171.41796875 601.5546875 166 604.306640625 c 1
 160.58203125 601.5546875 154.463867188 600.000976562 148 600.000976562 c 0
 141.536132812 600.000976562 135.41796875 601.5546875 130 604.306640625 c 1
 124.58203125 601.5546875 118.463867188 600.000976562 112 600.000976562 c 0
 105.536132812 600.000976562 99.41796875 601.5546875 94 604.306640625 c 1
 88.58203125 601.5546875 82.4638671875 600.000976562 76 600.000976562 c 0
 54 600.000976562 36 618.000976562 36 640.000976562 c 0
EndSplineSet
EndChar

StartChar: nine
Encoding: 57 57 26
Width: 432
GlyphClass: 2
Flags: MW
HStem: 0 80 100 80 200 80 300 80 400 80 500 80 600 80
LayerCount: 2
Fore
SplineSet
144 40 m 0
 144 62 162 80.0009765625 184 80.0009765625 c 0
 190.463867188 80.0009765625 196.58203125 78.447265625 202 75.6953125 c 1
 207.41796875 78.447265625 213.536132812 80.0009765625 220 80.0009765625 c 0
 242 80.0009765625 260 62.0009765625 260 40.0009765625 c 0
 260 18.0009765625 242 0.0009765625 220 0.0009765625 c 0
 213.536132812 0.0009765625 207.41796875 1.5546875 202 4.306640625 c 1
 196.58203125 1.5537109375 190.463867188 0 184 0 c 0
 162 0 144 18 144 40 c 0
180 140.000976562 m 0
 180 162.000976562 198 180.000976562 220 180.000976562 c 0
 226.463867188 180.000976562 232.58203125 178.447265625 238 175.6953125 c 1
 243.41796875 178.447265625 249.536132812 180.000976562 256 180.000976562 c 0
 278 180.000976562 296 162.000976562 296 140.000976562 c 0
 296 118.000976562 278 100.000976562 256 100.000976562 c 0
 249.536132812 100.000976562 243.41796875 101.5546875 238 104.306640625 c 1
 232.58203125 101.5546875 226.463867188 100.000976562 220 100.000976562 c 0
 198 100.000976562 180 118.000976562 180 140.000976562 c 0
216 240.000976562 m 0
 216 262.000976562 234 280.000976562 256 280.000976562 c 0
 262.463867188 280.000976562 268.58203125 278.447265625 274 275.6953125 c 1
 279.41796875 278.447265625 285.536132812 280.000976562 292 280.000976562 c 0
 314 280.000976562 332 262.000976562 332 240.000976562 c 0
 332 218.000976562 314 200.000976562 292 200.000976562 c 0
 285.536132812 200.000976562 279.41796875 201.5546875 274 204.306640625 c 1
 268.58203125 201.5546875 262.463867188 200.000976562 256 200.000976562 c 0
 234 200.000976562 216 218.000976562 216 240.000976562 c 0
36 340.000976562 m 0
 36 362.000976562 54 380.000976562 76 380.000976562 c 0
 82.4638671875 380.000976562 88.58203125 378.447265625 94 375.6953125 c 1
 99.41796875 378.447265625 105.536132812 380.000976562 112 380.000976562 c 0
 118.463867188 380.000976562 124.58203125 378.447265625 130 375.6953125 c 1
 135.41796875 378.447265625 141.536132812 380.000976562 148 380.000976562 c 0
 154.463867188 380.000976562 160.58203125 378.447265625 166 375.6953125 c 1
 171.41796875 378.447265625 177.536132812 380.000976562 184 380.000976562 c 0
 190.463867188 380.000976562 196.58203125 378.447265625 202 375.6953125 c 1
 207.41796875 378.447265625 213.536132812 380.000976562 220 380.000976562 c 0
 226.463867188 380.000976562 232.58203125 378.447265625 238 375.6953125 c 1
 243.41796875 378.447265625 249.536132812 380.000976562 256 380.000976562 c 0
 262.463867188 380.000976562 268.58203125 378.447265625 274 375.6953125 c 1
 279.41796875 378.447265625 285.536132812 380.000976562 292 380.000976562 c 0
 298.463867188 380.000976562 304.58203125 378.447265625 310 375.6953125 c 1
 315.41796875 378.447265625 321.536132812 380.000976562 328 380.000976562 c 0
 350 380.000976562 368 362.000976562 368 340.000976562 c 0
 368 318.000976562 350 300.000976562 328 300.000976562 c 0
 321.536132812 300.000976562 315.41796875 301.5546875 310 304.306640625 c 1
 304.58203125 301.5546875 298.463867188 300.000976562 292 300.000976562 c 0
 285.536132812 300.000976562 279.41796875 301.5546875 274 304.306640625 c 1
 268.58203125 301.5546875 262.463867188 300.000976562 256 300.000976562 c 0
 249.536132812 300.000976562 243.41796875 301.5546875 238 304.306640625 c 1
 232.58203125 301.5546875 226.463867188 300.000976562 220 300.000976562 c 0
 213.536132812 300.000976562 207.41796875 301.5546875 202 304.306640625 c 1
 196.58203125 301.5546875 190.463867188 300.000976562 184 300.000976562 c 0
 177.536132812 300.000976562 171.41796875 301.5546875 166 304.306640625 c 1
 160.58203125 301.5546875 154.463867188 300.000976562 148 300.000976562 c 0
 141.536132812 300.000976562 135.41796875 301.5546875 130 304.306640625 c 1
 124.58203125 301.5546875 118.463867188 300.000976562 112 300.000976562 c 0
 105.536132812 300.000976562 99.41796875 301.5546875 94 304.306640625 c 1
 88.58203125 301.5546875 82.4638671875 300.000976562 76 300.000976562 c 0
 54 300.000976562 36 318.000976562 36 340.000976562 c 0
288 440.000976562 m 0
 288 462.000976562 306 480.000976562 328 480.000976562 c 0
 334.463867188 480.000976562 340.58203125 478.447265625 346 475.6953125 c 1
 351.41796875 478.447265625 357.536132812 480.000976562 364 480.000976562 c 0
 386 480.000976562 404 462.000976562 404 440.000976562 c 0
 404 418.000976562 386 400.000976562 364 400.000976562 c 0
 357.536132812 400.000976562 351.41796875 401.5546875 346 404.306640625 c 1
 340.58203125 401.5546875 334.463867188 400.000976562 328 400.000976562 c 0
 306 400.000976562 288 418.000976562 288 440.000976562 c 0
0 440.000976562 m 0
 0 462.000976562 18 480.000976562 40 480.000976562 c 0
 46.4638671875 480.000976562 52.58203125 478.447265625 58 475.6953125 c 1
 63.41796875 478.447265625 69.5361328125 480.000976562 76 480.000976562 c 0
 98 480.000976562 116 462.000976562 116 440.000976562 c 0
 116 418.000976562 98 400.000976562 76 400.000976562 c 0
 69.5361328125 400.000976562 63.41796875 401.5546875 58 404.306640625 c 1
 52.58203125 401.5546875 46.4638671875 400.000976562 40 400.000976562 c 0
 18 400.000976562 0 418.000976562 0 440.000976562 c 0
288 540.000976562 m 0
 288 562.000976562 306 580.000976562 328 580.000976562 c 0
 334.463867188 580.000976562 340.58203125 578.447265625 346 575.6953125 c 1
 351.41796875 578.447265625 357.536132812 580.000976562 364 580.000976562 c 0
 386 580.000976562 404 562.000976562 404 540.000976562 c 0
 404 518.000976562 386 500.000976562 364 500.000976562 c 0
 357.536132812 500.000976562 351.41796875 501.5546875 346 504.306640625 c 1
 340.58203125 501.5546875 334.463867188 500.000976562 328 500.000976562 c 0
 306 500.000976562 288 518.000976562 288 540.000976562 c 0
0 540.000976562 m 0
 0 562.000976562 18 580.000976562 40 580.000976562 c 0
 46.4638671875 580.000976562 52.58203125 578.447265625 58 575.6953125 c 1
 63.41796875 578.447265625 69.5361328125 580.000976562 76 580.000976562 c 0
 98 580.000976562 116 562.000976562 116 540.000976562 c 0
 116 518.000976562 98 500.000976562 76 500.000976562 c 0
 69.5361328125 500.000976562 63.41796875 501.5546875 58 504.306640625 c 1
 52.58203125 501.5546875 46.4638671875 500.000976562 40 500.000976562 c 0
 18 500.000976562 0 518.000976562 0 540.000976562 c 0
36 640.000976562 m 0
 36 662.000976562 54 680.000976562 76 680.000976562 c 0
 82.4638671875 680.000976562 88.58203125 678.447265625 94 675.6953125 c 1
 99.41796875 678.447265625 105.536132812 680.000976562 112 680.000976562 c 0
 118.463867188 680.000976562 124.58203125 678.447265625 130 675.6953125 c 1
 135.41796875 678.447265625 141.536132812 680.000976562 148 680.000976562 c 0
 154.463867188 680.000976562 160.58203125 678.447265625 166 675.6953125 c 1
 171.41796875 678.447265625 177.536132812 680.000976562 184 680.000976562 c 0
 190.463867188 680.000976562 196.58203125 678.447265625 202 675.6953125 c 1
 207.41796875 678.447265625 213.536132812 680.000976562 220 680.000976562 c 0
 226.463867188 680.000976562 232.58203125 678.447265625 238 675.6953125 c 1
 243.41796875 678.447265625 249.536132812 680.000976562 256 680.000976562 c 0
 262.463867188 680.000976562 268.58203125 678.447265625 274 675.6953125 c 1
 279.41796875 678.447265625 285.536132812 680.000976562 292 680.000976562 c 0
 298.463867188 680.000976562 304.58203125 678.447265625 310 675.6953125 c 1
 315.41796875 678.447265625 321.536132812 680.000976562 328 680.000976562 c 0
 350 680.000976562 368 662.000976562 368 640.000976562 c 0
 368 618.000976562 350 600.000976562 328 600.000976562 c 0
 321.536132812 600.000976562 315.41796875 601.5546875 310 604.306640625 c 1
 304.58203125 601.5546875 298.463867188 600.000976562 292 600.000976562 c 0
 285.536132812 600.000976562 279.41796875 601.5546875 274 604.306640625 c 1
 268.58203125 601.5546875 262.463867188 600.000976562 256 600.000976562 c 0
 249.536132812 600.000976562 243.41796875 601.5546875 238 604.306640625 c 1
 232.58203125 601.5546875 226.463867188 600.000976562 220 600.000976562 c 0
 213.536132812 600.000976562 207.41796875 601.5546875 202 604.306640625 c 1
 196.58203125 601.5546875 190.463867188 600.000976562 184 600.000976562 c 0
 177.536132812 600.000976562 171.41796875 601.5546875 166 604.306640625 c 1
 160.58203125 601.5546875 154.463867188 600.000976562 148 600.000976562 c 0
 141.536132812 600.000976562 135.41796875 601.5546875 130 604.306640625 c 1
 124.58203125 601.5546875 118.463867188 600.000976562 112 600.000976562 c 0
 105.536132812 600.000976562 99.41796875 601.5546875 94 604.306640625 c 1
 88.58203125 601.5546875 82.4638671875 600.000976562 76 600.000976562 c 0
 54 600.000976562 36 618.000976562 36 640.000976562 c 0
EndSplineSet
EndChar

StartChar: colon
Encoding: 58 58 27
Width: 432
GlyphClass: 2
Flags: MW
HStem: 0 80 100 80 300 80 400 80
LayerCount: 2
Fore
SplineSet
72 40 m 0
 72 62 90 80.0009765625 112 80.0009765625 c 0
 118.463867188 80.0009765625 124.58203125 78.447265625 130 75.6953125 c 1
 135.41796875 78.447265625 141.536132812 80.0009765625 148 80.0009765625 c 0
 154.463867188 80.0009765625 160.58203125 78.447265625 166 75.6953125 c 1
 171.41796875 78.447265625 177.536132812 80.0009765625 184 80.0009765625 c 0
 190.463867188 80.0009765625 196.58203125 78.447265625 202 75.6953125 c 1
 207.41796875 78.447265625 213.536132812 80.0009765625 220 80.0009765625 c 0
 242 80.0009765625 260 62.0009765625 260 40.0009765625 c 0
 260 18.0009765625 242 0.0009765625 220 0.0009765625 c 0
 213.536132812 0.0009765625 207.41796875 1.5546875 202 4.306640625 c 1
 196.58203125 1.5546875 190.463867188 0.0009765625 184 0.0009765625 c 0
 177.536132812 0.0009765625 171.41796875 1.5546875 166 4.306640625 c 1
 160.58203125 1.5546875 154.463867188 0.0009765625 148 0.0009765625 c 0
 141.536132812 0.0009765625 135.41796875 1.5546875 130 4.306640625 c 1
 124.58203125 1.5537109375 118.463867188 0 112 0 c 0
 90 0 72 18 72 40 c 0
72 140.000976562 m 0
 72 162.000976562 90 180.000976562 112 180.000976562 c 0
 118.463867188 180.000976562 124.58203125 178.447265625 130 175.6953125 c 1
 135.41796875 178.447265625 141.536132812 180.000976562 148 180.000976562 c 0
 154.463867188 180.000976562 160.58203125 178.447265625 166 175.6953125 c 1
 171.41796875 178.447265625 177.536132812 180.000976562 184 180.000976562 c 0
 190.463867188 180.000976562 196.58203125 178.447265625 202 175.6953125 c 1
 207.41796875 178.447265625 213.536132812 180.000976562 220 180.000976562 c 0
 242 180.000976562 260 162.000976562 260 140.000976562 c 0
 260 118.000976562 242 100.000976562 220 100.000976562 c 0
 213.536132812 100.000976562 207.41796875 101.5546875 202 104.306640625 c 1
 196.58203125 101.5546875 190.463867188 100.000976562 184 100.000976562 c 0
 177.536132812 100.000976562 171.41796875 101.5546875 166 104.306640625 c 1
 160.58203125 101.5546875 154.463867188 100.000976562 148 100.000976562 c 0
 141.536132812 100.000976562 135.41796875 101.5546875 130 104.306640625 c 1
 124.58203125 101.5546875 118.463867188 100.000976562 112 100.000976562 c 0
 90 100.000976562 72 118.000976562 72 140.000976562 c 0
72 340.000976562 m 0
 72 362.000976562 90 380.000976562 112 380.000976562 c 0
 118.463867188 380.000976562 124.58203125 378.447265625 130 375.6953125 c 1
 135.41796875 378.447265625 141.536132812 380.000976562 148 380.000976562 c 0
 154.463867188 380.000976562 160.58203125 378.447265625 166 375.6953125 c 1
 171.41796875 378.447265625 177.536132812 380.000976562 184 380.000976562 c 0
 190.463867188 380.000976562 196.58203125 378.447265625 202 375.6953125 c 1
 207.41796875 378.447265625 213.536132812 380.000976562 220 380.000976562 c 0
 242 380.000976562 260 362.000976562 260 340.000976562 c 0
 260 318.000976562 242 300.000976562 220 300.000976562 c 0
 213.536132812 300.000976562 207.41796875 301.5546875 202 304.306640625 c 1
 196.58203125 301.5546875 190.463867188 300.000976562 184 300.000976562 c 0
 177.536132812 300.000976562 171.41796875 301.5546875 166 304.306640625 c 1
 160.58203125 301.5546875 154.463867188 300.000976562 148 300.000976562 c 0
 141.536132812 300.000976562 135.41796875 301.5546875 130 304.306640625 c 1
 124.58203125 301.5546875 118.463867188 300.000976562 112 300.000976562 c 0
 90 300.000976562 72 318.000976562 72 340.000976562 c 0
72 440.000976562 m 0
 72 462.000976562 90 480.000976562 112 480.000976562 c 0
 118.463867188 480.000976562 124.58203125 478.447265625 130 475.6953125 c 1
 135.41796875 478.447265625 141.536132812 480.000976562 148 480.000976562 c 0
 154.463867188 480.000976562 160.58203125 478.447265625 166 475.6953125 c 1
 171.41796875 478.447265625 177.536132812 480.000976562 184 480.000976562 c 0
 190.463867188 480.000976562 196.58203125 478.447265625 202 475.6953125 c 1
 207.41796875 478.447265625 213.536132812 480.000976562 220 480.000976562 c 0
 242 480.000976562 260 462.000976562 260 440.000976562 c 0
 260 418.000976562 242 400.000976562 220 400.000976562 c 0
 213.536132812 400.000976562 207.41796875 401.5546875 202 404.306640625 c 1
 196.58203125 401.5546875 190.463867188 400.000976562 184 400.000976562 c 0
 177.536132812 400.000976562 171.41796875 401.5546875 166 404.306640625 c 1
 160.58203125 401.5546875 154.463867188 400.000976562 148 400.000976562 c 0
 141.536132812 400.000976562 135.41796875 401.5546875 130 404.306640625 c 1
 124.58203125 401.5546875 118.463867188 400.000976562 112 400.000976562 c 0
 90 400.000976562 72 418.000976562 72 440.000976562 c 0
EndSplineSet
EndChar

StartChar: semicolon
Encoding: 59 59 28
Width: 432
GlyphClass: 2
Flags: MW
HStem: -200 80 -100 80 0 80 100 80 300 80 400 80
LayerCount: 2
Fore
SplineSet
72 -160 m 0
 72 -138 90 -119.999023438 112 -119.999023438 c 0
 118.463867188 -119.999023438 124.58203125 -121.552734375 130 -124.3046875 c 1
 135.41796875 -121.552734375 141.536132812 -119.999023438 148 -119.999023438 c 0
 170 -119.999023438 188 -137.999023438 188 -159.999023438 c 0
 188 -181.999023438 170 -199.999023438 148 -199.999023438 c 0
 141.536132812 -199.999023438 135.41796875 -198.4453125 130 -195.693359375 c 1
 124.58203125 -198.446289062 118.463867188 -200 112 -200 c 0
 90 -200 72 -182 72 -160 c 0
144 -59.9990234375 m 0
 144 -37.9990234375 162 -19.9990234375 184 -19.9990234375 c 0
 190.463867188 -19.9990234375 196.58203125 -21.552734375 202 -24.3046875 c 1
 207.41796875 -21.552734375 213.536132812 -19.9990234375 220 -19.9990234375 c 0
 242 -19.9990234375 260 -37.9990234375 260 -59.9990234375 c 0
 260 -81.9990234375 242 -99.9990234375 220 -99.9990234375 c 0
 213.536132812 -99.9990234375 207.41796875 -98.4453125 202 -95.693359375 c 1
 196.58203125 -98.4453125 190.463867188 -99.9990234375 184 -99.9990234375 c 0
 162 -99.9990234375 144 -81.9990234375 144 -59.9990234375 c 0
72 40.0009765625 m 0
 72 62.0009765625 90 80.0009765625 112 80.0009765625 c 0
 118.463867188 80.0009765625 124.58203125 78.447265625 130 75.6953125 c 1
 135.41796875 78.447265625 141.536132812 80.0009765625 148 80.0009765625 c 0
 154.463867188 80.0009765625 160.58203125 78.447265625 166 75.6953125 c 1
 171.41796875 78.447265625 177.536132812 80.0009765625 184 80.0009765625 c 0
 190.463867188 80.0009765625 196.58203125 78.447265625 202 75.6953125 c 1
 207.41796875 78.447265625 213.536132812 80.0009765625 220 80.0009765625 c 0
 242 80.0009765625 260 62.0009765625 260 40.0009765625 c 0
 260 18.0009765625 242 0.0009765625 220 0.0009765625 c 0
 213.536132812 0.0009765625 207.41796875 1.5546875 202 4.306640625 c 1
 196.58203125 1.5546875 190.463867188 0.0009765625 184 0.0009765625 c 0
 177.536132812 0.0009765625 171.41796875 1.5546875 166 4.306640625 c 1
 160.58203125 1.5546875 154.463867188 0.0009765625 148 0.0009765625 c 0
 141.536132812 0.0009765625 135.41796875 1.5546875 130 4.306640625 c 1
 124.58203125 1.5546875 118.463867188 0.0009765625 112 0.0009765625 c 0
 90 0.0009765625 72 18.0009765625 72 40.0009765625 c 0
72 140.000976562 m 0
 72 162.000976562 90 180.000976562 112 180.000976562 c 0
 118.463867188 180.000976562 124.58203125 178.447265625 130 175.6953125 c 1
 135.41796875 178.447265625 141.536132812 180.000976562 148 180.000976562 c 0
 154.463867188 180.000976562 160.58203125 178.447265625 166 175.6953125 c 1
 171.41796875 178.447265625 177.536132812 180.000976562 184 180.000976562 c 0
 190.463867188 180.000976562 196.58203125 178.447265625 202 175.6953125 c 1
 207.41796875 178.447265625 213.536132812 180.000976562 220 180.000976562 c 0
 242 180.000976562 260 162.000976562 260 140.000976562 c 0
 260 118.000976562 242 100.000976562 220 100.000976562 c 0
 213.536132812 100.000976562 207.41796875 101.5546875 202 104.306640625 c 1
 196.58203125 101.5546875 190.463867188 100.000976562 184 100.000976562 c 0
 177.536132812 100.000976562 171.41796875 101.5546875 166 104.306640625 c 1
 160.58203125 101.5546875 154.463867188 100.000976562 148 100.000976562 c 0
 141.536132812 100.000976562 135.41796875 101.5546875 130 104.306640625 c 1
 124.58203125 101.5546875 118.463867188 100.000976562 112 100.000976562 c 0
 90 100.000976562 72 118.000976562 72 140.000976562 c 0
72 340.000976562 m 0
 72 362.000976562 90 380.000976562 112 380.000976562 c 0
 118.463867188 380.000976562 124.58203125 378.447265625 130 375.6953125 c 1
 135.41796875 378.447265625 141.536132812 380.000976562 148 380.000976562 c 0
 154.463867188 380.000976562 160.58203125 378.447265625 166 375.6953125 c 1
 171.41796875 378.447265625 177.536132812 380.000976562 184 380.000976562 c 0
 190.463867188 380.000976562 196.58203125 378.447265625 202 375.6953125 c 1
 207.41796875 378.447265625 213.536132812 380.000976562 220 380.000976562 c 0
 242 380.000976562 260 362.000976562 260 340.000976562 c 0
 260 318.000976562 242 300.000976562 220 300.000976562 c 0
 213.536132812 300.000976562 207.41796875 301.5546875 202 304.306640625 c 1
 196.58203125 301.5546875 190.463867188 300.000976562 184 300.000976562 c 0
 177.536132812 300.000976562 171.41796875 301.5546875 166 304.306640625 c 1
 160.58203125 301.5546875 154.463867188 300.000976562 148 300.000976562 c 0
 141.536132812 300.000976562 135.41796875 301.5546875 130 304.306640625 c 1
 124.58203125 301.5546875 118.463867188 300.000976562 112 300.000976562 c 0
 90 300.000976562 72 318.000976562 72 340.000976562 c 0
72 440.000976562 m 0
 72 462.000976562 90 480.000976562 112 480.000976562 c 0
 118.463867188 480.000976562 124.58203125 478.447265625 130 475.6953125 c 1
 135.41796875 478.447265625 141.536132812 480.000976562 148 480.000976562 c 0
 154.463867188 480.000976562 160.58203125 478.447265625 166 475.6953125 c 1
 171.41796875 478.447265625 177.536132812 480.000976562 184 480.000976562 c 0
 190.463867188 480.000976562 196.58203125 478.447265625 202 475.6953125 c 1
 207.41796875 478.447265625 213.536132812 480.000976562 220 480.000976562 c 0
 242 480.000976562 260 462.000976562 260 440.000976562 c 0
 260 418.000976562 242 400.000976562 220 400.000976562 c 0
 213.536132812 400.000976562 207.41796875 401.5546875 202 404.306640625 c 1
 196.58203125 401.5546875 190.463867188 400.000976562 184 400.000976562 c 0
 177.536132812 400.000976562 171.41796875 401.5546875 166 404.306640625 c 1
 160.58203125 401.5546875 154.463867188 400.000976562 148 400.000976562 c 0
 141.536132812 400.000976562 135.41796875 401.5546875 130 404.306640625 c 1
 124.58203125 401.5546875 118.463867188 400.000976562 112 400.000976562 c 0
 90 400.000976562 72 418.000976562 72 440.000976562 c 0
EndSplineSet
EndChar

